solid sliced-tower-main
facet normal -1.2520455792445718e-06 -0.9999999999990814 5.194698842564696e-07
  outer loop
    vertex 1542.6499764579546 -281.9934697907936 22.533045912490486
    vertex 1532.0005889138893 -281.99349752637465 24.53253148537982
    vertex 1532.0006254129019 -281.99344937883734 22.532579616198063
  endloop
endfacet
facet normal -1.2520455792445718e-06 -0.9999999999990814 5.194698842564696e-07
  outer loop
    vertex 1532.0005889138893 -281.99349752637465 24.53253148537982
    vertex 1542.6499764579546 -281.9934697907936 22.533045912490486
    vertex 1542.6255525207914 -281.99350482538205 24.532580825311502
  endloop
endfacet
facet normal -1.2520455792445718e-06 -0.9999999999990814 5.194698842564696e-07
  outer loop
    vertex 1532.0005889138893 -281.99349752637465 24.53253148537982
    vertex 1542.6255525207914 -281.99350482538205 24.532580825311502
    vertex 1534.0008743266499 -281.993472820691 24.532690701646576
  endloop
endfacet
facet normal -1.2520455792445718e-06 -0.9999999999990814 5.194698842564696e-07
  outer loop
    vertex 1534.0008743266499 -281.993472820691 24.532690701646576
    vertex 1542.6255525207914 -281.99350482538205 24.532580825311502
    vertex 1540.6019851702067 -281.99348021993177 24.53275582007463
  endloop
endfacet
facet normal -1.2520455792445718e-06 -0.9999999999990814 5.194698842564696e-07
  outer loop
    vertex 1534.0008743266499 -281.993472820691 24.532690701646576
    vertex 1540.6019851702067 -281.99348021993177 24.53275582007463
    vertex 1534.00081371823 -281.99345378001163 26.532690700637588
  endloop
endfacet
facet normal -1.2520455792445718e-06 -0.9999999999990814 5.194698842564696e-07
  outer loop
    vertex 1534.00081371823 -281.99345378001163 26.532690700637588
    vertex 1540.6019851702067 -281.99348021993177 24.53275582007463
    vertex 1540.6019245617867 -281.99346117925234 26.532755819065642
  endloop
endfacet
facet normal 6.404014902931114e-07 0.9999999993309385 3.6574757090555686e-05
  outer loop
    vertex 1499.9506338955177 -234.60352552273707 24.53337276715881
    vertex 1544.6506256302282 -234.60350650917388 22.533778873327815
    vertex 1499.9506703945303 -234.60347737519973 22.533420897977052
  endloop
endfacet
facet normal 6.404014902931114e-07 0.9999999993309385 3.6574757090555686e-05
  outer loop
    vertex 1544.6506256302282 -234.60350650917388 22.533778873327815
    vertex 1499.9506338955177 -234.60352552273707 24.53337276715881
    vertex 1519.300627868069 -234.60353050366348 24.53336535194146
  endloop
endfacet
facet normal 6.404014902931114e-07 0.9999999993309385 3.6574757090555686e-05
  outer loop
    vertex 1519.3006275474518 -234.60363816152872 26.533610289648497
    vertex 1525.3006278680602 -234.60353065851632 24.533367275301902
    vertex 1519.300627868069 -234.60353050366348 24.53336535194146
  endloop
endfacet
facet normal 6.404014902931114e-07 0.9999999993309385 3.6574757090555686e-05
  outer loop
    vertex 1525.3006278680602 -234.60353065851632 24.533367275301902
    vertex 1519.3006275474518 -234.60363816152872 26.533610289648497
    vertex 1525.300627547443 -234.60363831638156 26.533612213008936
  endloop
endfacet
facet normal 6.404014902931114e-07 0.9999999993309385 3.6574757090555686e-05
  outer loop
    vertex 1544.6506256302282 -234.60350650917388 22.533778873327815
    vertex 1525.3006278680602 -234.60353065851632 24.533367275301902
    vertex 1544.6505891312156 -234.6035546567112 24.533730742509572
  endloop
endfacet
facet normal 6.404014902931114e-07 0.9999999993309385 3.6574757090555686e-05
  outer loop
    vertex 1525.3006278680602 -234.60353065851632 24.533367275301902
    vertex 1544.6506256302282 -234.60350650917388 22.533778873327815
    vertex 1519.300627868069 -234.60353050366348 24.53336535194146
  endloop
endfacet
facet normal -0.9999999845894219 -1.4160120605711048e-05 0.00017498756256105808
  outer loop
    vertex 1499.951718393792 -257.9125173060481 26.531964171151245
    vertex 1499.951718393792 -263.9125172540955 24.532179113473372
    vertex 1499.951718393792 -263.9125172540955 26.531964171151245
  endloop
endfacet
facet normal -0.9999999845894219 -1.4160120605711048e-05 0.00017498756256105808
  outer loop
    vertex 1499.950975273854 -236.6038446191786 26.534059121584097
    vertex 1499.950975273854 -242.60384460760207 24.532753958575523
    vertex 1499.950975273854 -242.60384460760207 26.534059121584097
  endloop
endfacet
facet normal -0.9999999845894219 -1.4160120605711048e-05 0.00017498756256105808
  outer loop
    vertex 1499.951718393792 -263.9125172540955 24.532179113473372
    vertex 1499.9505447949343 -265.91294266516786 22.531175294644463
    vertex 1499.9505082959217 -265.91299081270523 24.531127163826245
  endloop
endfacet
facet normal -0.9999999845894219 -1.4160120605711048e-05 0.00017498756256105808
  outer loop
    vertex 1499.9505447949343 -265.91294266516786 22.531175294644463
    vertex 1499.951718393792 -263.9125172540955 24.532179113473372
    vertex 1499.9506703945303 -234.60347737519973 22.533420897977052
  endloop
endfacet
facet normal -0.9999999845894219 -1.4160120605711048e-05 0.00017498756256105808
  outer loop
    vertex 1499.9506703945303 -234.60347737519973 22.533420897977052
    vertex 1499.951718393792 -263.9125172540955 24.532179113473372
    vertex 1499.951718393792 -257.9125173060481 24.532179113473372
  endloop
endfacet
facet normal -0.9999999845894219 -1.4160120605711048e-05 0.00017498756256105808
  outer loop
    vertex 1499.951718393792 -257.9125173060481 24.532179113473372
    vertex 1499.951718393792 -263.9125172540955 24.532179113473372
    vertex 1499.951718393792 -257.9125173060481 26.531964171151245
  endloop
endfacet
facet normal -0.9999999845894219 -1.4160120605711048e-05 0.00017498756256105808
  outer loop
    vertex 1499.9506703945303 -234.60347737519973 22.533420897977052
    vertex 1499.951718393792 -257.9125173060481 24.532179113473372
    vertex 1499.950975273854 -242.60384460760207 24.532753958575523
  endloop
endfacet
facet normal -0.9999999845894219 -1.4160120605711048e-05 0.00017498756256105808
  outer loop
    vertex 1499.9506703945303 -234.60347737519973 22.533420897977052
    vertex 1499.950975273854 -242.60384460760207 24.532753958575523
    vertex 1499.950975273854 -236.6038446191786 24.532753958575523
  endloop
endfacet
facet normal -0.9999999845894219 -1.4160120605711048e-05 0.00017498756256105808
  outer loop
    vertex 1499.950975273854 -236.6038446191786 24.532753958575523
    vertex 1499.950975273854 -242.60384460760207 24.532753958575523
    vertex 1499.950975273854 -236.6038446191786 26.534059121584097
  endloop
endfacet
facet normal -0.9999999845894219 -1.4160120605711048e-05 0.00017498756256105808
  outer loop
    vertex 1499.9506703945303 -234.60347737519973 22.533420897977052
    vertex 1499.950975273854 -236.6038446191786 24.532753958575523
    vertex 1499.9506338955177 -234.60352552273707 24.53337276715881
  endloop
endfacet
facet normal 0.9999999996998701 5.211363822604956e-07 2.44946582706425e-05
  outer loop
    vertex 1544.6505629677922 -265.8956171279169 22.533046140115744
    vertex 1544.6506160672739 -263.8956190081664 24.532949478866417
    vertex 1544.6506179079188 -265.9095145138066 24.532668381041983
  endloop
endfacet
facet normal 0.9999999996998701 5.211363822604956e-07 2.44946582706425e-05
  outer loop
    vertex 1544.6506160672739 -263.8956190081664 24.532949478866417
    vertex 1544.6505629677922 -265.8956171279169 22.533046140115744
    vertex 1544.6506256302282 -234.60350650917388 22.533778873327815
  endloop
endfacet
facet normal 0.9999999996998701 5.211363822604956e-07 2.44946582706425e-05
  outer loop
    vertex 1544.6506160672739 -263.8956190081664 24.532949478866417
    vertex 1544.6506256302282 -234.60350650917388 22.533778873327815
    vertex 1544.6505749690107 -257.89561712995805 24.533425961634837
  endloop
endfacet
facet normal 0.9999999996998701 5.211363822604956e-07 2.44946582706425e-05
  outer loop
    vertex 1544.6506160672739 -263.8956190081664 24.532949478866417
    vertex 1544.6505749690107 -257.89561712995805 24.533425961634837
    vertex 1544.6506160672739 -263.8956190081664 26.533364400197264
  endloop
endfacet
facet normal 0.9999999996998701 5.211363822604956e-07 2.44946582706425e-05
  outer loop
    vertex 1544.6505749690107 -257.89561712995805 24.533425961634837
    vertex 1544.6506256302282 -234.60350650917388 22.533778873327815
    vertex 1544.6505979093083 -242.60354481338828 24.533552250810597
  endloop
endfacet
facet normal 0.9999999996998701 5.211363822604956e-07 2.44946582706425e-05
  outer loop
    vertex 1544.6505979093083 -242.60354481338828 24.533552250810597
    vertex 1544.6506256302282 -234.60350650917388 22.533778873327815
    vertex 1544.650606912237 -236.603544816257 24.533635503508993
  endloop
endfacet
facet normal 0.9999999996998701 5.211363822604956e-07 2.44946582706425e-05
  outer loop
    vertex 1544.6505979093083 -242.60354481338828 24.533552250810597
    vertex 1544.650606912237 -236.603544816257 24.533635503508993
    vertex 1544.650504063623 -236.60356379107074 26.533641130495734
  endloop
endfacet
facet normal 0.9999999996998701 5.211363822604956e-07 2.44946582706425e-05
  outer loop
    vertex 1544.650606912237 -236.603544816257 24.533635503508993
    vertex 1544.6506256302282 -234.60350650917388 22.533778873327815
    vertex 1544.6505891312156 -234.6035546567112 24.533730742509572
  endloop
endfacet
facet normal 0.9999999996998701 5.211363822604956e-07 2.44946582706425e-05
  outer loop
    vertex 1544.650504063623 -236.60356379107074 26.533641130495734
    vertex 1544.6504950606945 -242.60356378820208 26.53355787779734
    vertex 1544.6505979093083 -242.60354481338828 24.533552250810597
  endloop
endfacet
facet normal 0.9999999996998701 5.211363822604956e-07 2.44946582706425e-05
  outer loop
    vertex 1544.6504554992823 -257.8955978150946 26.53342595797332
    vertex 1544.6506160672739 -263.8956190081664 26.533364400197264
    vertex 1544.6505749690107 -257.89561712995805 24.533425961634837
  endloop
endfacet
facet normal -7.735692197518882e-06 -7.680107217187573e-06 0.9999999999405875
  outer loop
    vertex 1544.6506160672739 -263.8956190081664 26.533364400197264
    vertex 1542.6499968895127 -257.8955978147307 26.533395003645015
    vertex 1542.6498584119422 -263.8955978130547 26.533364400197264
  endloop
endfacet
facet normal -7.735692197518882e-06 -7.680107217187573e-06 0.9999999999405875
  outer loop
    vertex 1542.6499968895127 -257.8955978147307 26.533395003645015
    vertex 1544.6506160672739 -263.8956190081664 26.533364400197264
    vertex 1544.6504554992823 -257.8955978150946 26.53342595797332
  endloop
endfacet
facet normal -0.9999259266112256 1.1507902379116474e-05 0.012171325246257898
  outer loop
    vertex 1542.6498584119422 -263.8955978130547 26.533364400197264
    vertex 1542.625581771881 -257.89561739919435 24.53326260085231
    vertex 1542.625581771881 -263.89561739919435 24.53326260085231
  endloop
endfacet
facet normal -0.9999259266112256 1.1507902379116474e-05 0.012171325246257898
  outer loop
    vertex 1542.625581771881 -257.89561739919435 24.53326260085231
    vertex 1542.6498584119422 -263.8955978130547 26.533364400197264
    vertex 1542.6499968895127 -257.8955978147307 26.533395003645015
  endloop
endfacet
facet normal -4.932227048581365e-06 -7.295302892789023e-05 0.9999999973267644
  outer loop
    vertex 1534.00081371823 -281.99345378001163 26.532690700637588
    vertex 1540.6019245626544 -279.97162191373747 26.53287075828694
    vertex 1534.0005488573518 -279.97162191373747 26.53287075828694
  endloop
endfacet
facet normal -4.932227048581365e-06 -7.295302892789023e-05 0.9999999973267644
  outer loop
    vertex 1540.6019245626544 -279.97162191373747 26.53287075828694
    vertex 1534.00081371823 -281.99345378001163 26.532690700637588
    vertex 1540.6019245617867 -281.99346117925234 26.532755819065642
  endloop
endfacet
facet normal -2.7578437891742662e-08 0.9999983426934538 0.0018206071364135824
  outer loop
    vertex 1534.0005488573518 -279.97162191373747 26.53287075828694
    vertex 1540.6019867808334 -279.96798034226566 24.532777878257516
    vertex 1534.000606091213 -279.96798036831865 24.532592193854008
  endloop
endfacet
facet normal -2.7578437891742662e-08 0.9999983426934538 0.0018206071364135824
  outer loop
    vertex 1540.6019867808334 -279.96798034226566 24.532777878257516
    vertex 1534.0005488573518 -279.97162191373747 26.53287075828694
    vertex 1540.6019245626544 -279.97162191373747 26.53287075828694
  endloop
endfacet
facet normal -5.142416217774781e-05 -9.48738017147233e-06 0.9999999986327726
  outer loop
    vertex 1544.6504950606945 -242.60356378820208 26.53355787779734
    vertex 1542.6505049228954 -236.60356378887676 26.53351195340893
    vertex 1542.6503664453246 -242.6035637872007 26.533481349961086
  endloop
endfacet
facet normal -5.142416217774781e-05 -9.48738017147233e-06 0.9999999986327726
  outer loop
    vertex 1542.6505049228954 -236.60356378887676 26.53351195340893
    vertex 1544.6504950606945 -242.60356378820208 26.53355787779734
    vertex 1544.650504063623 -236.60356379107074 26.533641130495734
  endloop
endfacet
facet normal -1.6028879792280972e-07 -5.382234097487871e-05 0.9999999985515651
  outer loop
    vertex 1525.3006266304617 -236.60364836860288 26.53350360615029
    vertex 1519.3006275474518 -234.60363816152872 26.533610289648497
    vertex 1519.3006266304624 -236.60364561730913 26.533503606201567
  endloop
endfacet
facet normal -1.6028879792280972e-07 -5.382234097487871e-05 0.9999999985515651
  outer loop
    vertex 1519.3006275474518 -234.60363816152872 26.533610289648497
    vertex 1525.3006266304617 -236.60364836860288 26.53350360615029
    vertex 1525.300627547443 -234.60363831638156 26.533612213008936
  endloop
endfacet
facet normal 0.0 0.0 1.0
  outer loop
    vertex 1501.950512903708 -242.60384460760207 26.534059121584097
    vertex 1499.950975273854 -236.6038446191786 26.534059121584097
    vertex 1499.950975273854 -242.60384460760207 26.534059121584097
  endloop
endfacet
facet normal 0.0 0.0 1.0
  outer loop
    vertex 1499.950975273854 -236.6038446191786 26.534059121584097
    vertex 1501.950512903708 -242.60384460760207 26.534059121584097
    vertex 1501.950512903708 -236.60384466343427 26.534059121584097
  endloop
endfacet
facet normal 0.0 0.0 1.0
  outer loop
    vertex 1501.9496808086121 -263.9125172540955 26.531964171151245
    vertex 1499.951718393792 -257.9125173060481 26.531964171151245
    vertex 1499.951718393792 -263.9125172540955 26.531964171151245
  endloop
endfacet
facet normal 0.0 0.0 1.0
  outer loop
    vertex 1499.951718393792 -257.9125173060481 26.531964171151245
    vertex 1501.9496808086121 -263.9125172540955 26.531964171151245
    vertex 1501.9496808086121 -257.9125173060481 26.531964171151245
  endloop
endfacet
facet normal -0.9999999908880538 -0.0001317157903064687 -2.9577745005358645e-05
  outer loop
    vertex 1534.00081371823 -281.99345378001163 26.532690700637588
    vertex 1534.000606091213 -279.96798036831865 24.532592193854008
    vertex 1534.0008743266499 -281.993472820691 24.532690701646576
  endloop
endfacet
facet normal -0.9999999908880538 -0.0001317157903064687 -2.9577745005358645e-05
  outer loop
    vertex 1534.000606091213 -279.96798036831865 24.532592193854008
    vertex 1534.00081371823 -281.99345378001163 26.532690700637588
    vertex 1534.0005488573518 -279.97162191373747 26.53287075828694
  endloop
endfacet
facet normal 0.9999999995285038 -3.995594443822875e-07 3.070558418997596e-05
  outer loop
    vertex 1540.6019867808334 -279.96798034226566 24.532777878257516
    vertex 1540.6019245617867 -281.99346117925234 26.532755819065642
    vertex 1540.6019851702067 -281.99348021993177 24.53275582007463
  endloop
endfacet
facet normal 0.9999999995285038 -3.995594443822875e-07 3.070558418997596e-05
  outer loop
    vertex 1540.6019245617867 -281.99346117925234 26.532755819065642
    vertex 1540.6019867808334 -279.96798034226566 24.532777878257516
    vertex 1540.6019245626544 -279.97162191373747 26.53287075828694
  endloop
endfacet
facet normal -5.634565131893823e-06 -0.9999999999719749 4.929711557041455e-06
  outer loop
    vertex 1544.6506160672739 -263.8956190081664 26.533364400197264
    vertex 1542.625581771881 -263.89561739919435 24.53326260085231
    vertex 1544.6506160672739 -263.8956190081664 24.532949478866417
  endloop
endfacet
facet normal -5.634565131893823e-06 -0.9999999999719749 4.929711557041455e-06
  outer loop
    vertex 1542.625581771881 -263.89561739919435 24.53326260085231
    vertex 1544.6506160672739 -263.8956190081664 26.533364400197264
    vertex 1542.6498584119422 -263.8955978130547 26.533364400197264
  endloop
endfacet
facet normal -6.67274587501154e-08 0.9999999999527187 -9.724106809360995e-06
  outer loop
    vertex 1542.6499968895127 -257.8955978147307 26.533395003645015
    vertex 1544.6505749690107 -257.89561712995805 24.533425961634837
    vertex 1542.625581771881 -257.89561739919435 24.53326260085231
  endloop
endfacet
facet normal -6.67274587501154e-08 0.9999999999527187 -9.724106809360995e-06
  outer loop
    vertex 1544.6505749690107 -257.89561712995805 24.533425961634837
    vertex 1542.6499968895127 -257.8955978147307 26.533395003645015
    vertex 1544.6504554992823 -257.8955978150946 26.53342595797332
  endloop
endfacet
facet normal -1.376574972068468e-10 -0.9999999999549949 -9.487380201124863e-06
  outer loop
    vertex 1544.6505979093083 -242.60354481338828 24.533552250810597
    vertex 1542.6503664453246 -242.6035637872007 26.533481349961086
    vertex 1542.6504692939384 -242.6035448123869 24.533475722974345
  endloop
endfacet
facet normal -1.376574972068468e-10 -0.9999999999549949 -9.487380201124863e-06
  outer loop
    vertex 1542.6503664453246 -242.6035637872007 26.533481349961086
    vertex 1544.6505979093083 -242.60354481338828 24.533552250810597
    vertex 1544.6504950606945 -242.60356378820208 26.53355787779734
  endloop
endfacet
facet normal -0.9999999984114493 2.307985737181668e-05 -5.1423943198984965e-05
  outer loop
    vertex 1542.6505049228954 -236.60356378887676 26.53351195340893
    vertex 1542.6504692939384 -242.6035448123869 24.533475722974345
    vertex 1542.6503664453246 -242.6035637872007 26.533481349961086
  endloop
endfacet
facet normal -0.9999999984114493 2.307985737181668e-05 -5.1423943198984965e-05
  outer loop
    vertex 1542.6504692939384 -242.6035448123869 24.533475722974345
    vertex 1542.6505049228954 -236.60356378887676 26.53351195340893
    vertex 1542.6506077715092 -236.603544814063 24.533506326422184
  endloop
endfacet
facet normal 4.842249411536207e-10 0.9999999999549949 9.48738020484701e-06
  outer loop
    vertex 1542.6505049228954 -236.60356378887676 26.53351195340893
    vertex 1544.650606912237 -236.603544816257 24.533635503508993
    vertex 1542.6506077715092 -236.603544814063 24.533506326422184
  endloop
endfacet
facet normal 4.842249411536207e-10 0.9999999999549949 9.48738020484701e-06
  outer loop
    vertex 1544.650606912237 -236.603544816257 24.533635503508993
    vertex 1542.6505049228954 -236.60356378887676 26.53351195340893
    vertex 1544.650504063623 -236.60356379107074 26.533641130495734
  endloop
endfacet
facet normal 0.9999999999998821 -4.5849703341403306e-07 1.6026431209730802e-07
  outer loop
    vertex 1525.300626951079 -236.60354071073763 24.533258668443228
    vertex 1525.300627547443 -234.60363831638156 26.533612213008936
    vertex 1525.3006266304617 -236.60364836860288 26.53350360615029
  endloop
endfacet
facet normal 0.9999999999998821 -4.5849703341403306e-07 1.6026431209730802e-07
  outer loop
    vertex 1525.300627547443 -234.60363831638156 26.533612213008936
    vertex 1525.300626951079 -236.60354071073763 24.533258668443228
    vertex 1525.3006278680602 -234.60353065851632 24.533367275301902
  endloop
endfacet
facet normal -4.585489629517059e-07 -0.9999999985514728 -5.3822341048374e-05
  outer loop
    vertex 1525.3006266304617 -236.60364836860288 26.53350360615029
    vertex 1519.3006269510795 -236.60353795944388 24.53325866849453
    vertex 1525.300626951079 -236.60354071073763 24.533258668443228
  endloop
endfacet
facet normal -4.585489629517059e-07 -0.9999999985514728 -5.3822341048374e-05
  outer loop
    vertex 1519.3006269510795 -236.60353795944388 24.53325866849453
    vertex 1525.3006266304617 -236.60364836860288 26.53350360615029
    vertex 1519.3006266304624 -236.60364561730913 26.533503606201567
  endloop
endfacet
facet normal -0.9999999999998821 4.5850153525207197e-07 -1.6026431185500946e-07
  outer loop
    vertex 1519.3006275474518 -234.60363816152872 26.533610289648497
    vertex 1519.3006269510795 -236.60353795944388 24.53325866849453
    vertex 1519.3006266304624 -236.60364561730913 26.533503606201567
  endloop
endfacet
facet normal -0.9999999999998821 4.5850153525207197e-07 -1.6026431185500946e-07
  outer loop
    vertex 1519.3006269510795 -236.60353795944388 24.53325866849453
    vertex 1519.3006275474518 -234.60363816152872 26.533610289648497
    vertex 1519.300627868069 -234.60353050366348 24.53336535194146
  endloop
endfacet
facet normal 2.2132931317395224e-08 0.9999999999999998 0.0
  outer loop
    vertex 1499.950975273854 -236.6038446191786 26.534059121584097
    vertex 1501.950512903708 -236.60384466343427 24.532753958575523
    vertex 1499.950975273854 -236.6038446191786 24.532753958575523
  endloop
endfacet
facet normal 2.2132931317395224e-08 0.9999999999999998 0.0
  outer loop
    vertex 1501.950512903708 -236.60384466343427 24.532753958575523
    vertex 1499.950975273854 -236.6038446191786 26.534059121584097
    vertex 1501.950512903708 -236.60384466343427 26.534059121584097
  endloop
endfacet
facet normal 1.0 0.0 0.0
  outer loop
    vertex 1501.950512903708 -236.60384466343427 24.532753958575523
    vertex 1501.950512903708 -242.60384460760207 26.534059121584097
    vertex 1501.950512903708 -242.60384460760207 24.532753958575523
  endloop
endfacet
facet normal 1.0 0.0 0.0
  outer loop
    vertex 1501.950512903708 -242.60384460760207 26.534059121584097
    vertex 1501.950512903708 -236.60384466343427 24.532753958575523
    vertex 1501.950512903708 -236.60384466343427 26.534059121584097
  endloop
endfacet
facet normal 0.0 -1.0 0.0
  outer loop
    vertex 1501.950512903708 -242.60384460760207 26.534059121584097
    vertex 1499.950975273854 -242.60384460760207 24.532753958575523
    vertex 1501.950512903708 -242.60384460760207 24.532753958575523
  endloop
endfacet
facet normal 0.0 -1.0 0.0
  outer loop
    vertex 1499.950975273854 -242.60384460760207 24.532753958575523
    vertex 1501.950512903708 -242.60384460760207 26.534059121584097
    vertex 1499.950975273854 -242.60384460760207 26.534059121584097
  endloop
endfacet
facet normal 0.0 1.0 0.0
  outer loop
    vertex 1499.951718393792 -257.9125173060481 26.531964171151245
    vertex 1501.9496808086121 -257.9125173060481 24.532179113473372
    vertex 1499.951718393792 -257.9125173060481 24.532179113473372
  endloop
endfacet
facet normal 0.0 1.0 0.0
  outer loop
    vertex 1501.9496808086121 -257.9125173060481 24.532179113473372
    vertex 1499.951718393792 -257.9125173060481 26.531964171151245
    vertex 1501.9496808086121 -257.9125173060481 26.531964171151245
  endloop
endfacet
facet normal 1.0 0.0 0.0
  outer loop
    vertex 1501.9496808086121 -257.9125173060481 24.532179113473372
    vertex 1501.9496808086121 -263.9125172540955 26.531964171151245
    vertex 1501.9496808086121 -263.9125172540955 24.532179113473372
  endloop
endfacet
facet normal 1.0 0.0 0.0
  outer loop
    vertex 1501.9496808086121 -263.9125172540955 26.531964171151245
    vertex 1501.9496808086121 -257.9125173060481 24.532179113473372
    vertex 1501.9496808086121 -257.9125173060481 26.531964171151245
  endloop
endfacet
facet normal 0.0 -1.0 0.0
  outer loop
    vertex 1501.9496808086121 -263.9125172540955 26.531964171151245
    vertex 1499.951718393792 -263.9125172540955 24.532179113473372
    vertex 1501.9496808086121 -263.9125172540955 24.532179113473372
  endloop
endfacet
facet normal 0.0 -1.0 0.0
  outer loop
    vertex 1499.951718393792 -263.9125172540955 24.532179113473372
    vertex 1501.9496808086121 -263.9125172540955 26.531964171151245
    vertex 1499.951718393792 -263.9125172540955 26.531964171151245
  endloop
endfacet
facet normal -2.151583116618827e-05 -2.584129640667292e-05 0.9999999994346482
  outer loop
    vertex 1534.0008743266499 -281.993472820691 24.532690701646576
    vertex 1534.000606091213 -279.96798036831865 24.532592193854008
    vertex 1532.0005889138893 -281.99349752637465 24.53253148537982
  endloop
endfacet
facet normal -2.151583116618827e-05 -2.584129640667292e-05 0.9999999994346482
  outer loop
    vertex 1542.6255525207914 -281.99350482538205 24.532580825311502
    vertex 1540.6019867808334 -279.96798034226566 24.532777878257516
    vertex 1540.6019851702067 -281.99348021993177 24.53275582007463
  endloop
endfacet
facet normal -2.151583116618827e-05 -2.584129640667292e-05 0.9999999994346482
  outer loop
    vertex 1542.625654528612 -265.90950682576226 24.53262355514016
    vertex 1542.625581771881 -263.89561739919435 24.53326260085231
    vertex 1542.6255525207914 -281.99350482538205 24.532580825311502
  endloop
endfacet
facet normal -2.151583116618827e-05 -2.584129640667292e-05 0.9999999994346482
  outer loop
    vertex 1542.625581771881 -263.89561739919435 24.53326260085231
    vertex 1542.625654528612 -265.90950682576226 24.53262355514016
    vertex 1544.6506160672739 -263.8956190081664 24.532949478866417
  endloop
endfacet
facet normal -2.151583116618827e-05 -2.584129640667292e-05 0.9999999994346482
  outer loop
    vertex 1544.6506160672739 -263.8956190081664 24.532949478866417
    vertex 1542.625654528612 -265.90950682576226 24.53262355514016
    vertex 1544.6506179079188 -265.9095145138066 24.532668381041983
  endloop
endfacet
facet normal -2.151583116618827e-05 -2.584129640667292e-05 0.9999999994346482
  outer loop
    vertex 1544.6505749690107 -257.89561712995805 24.533425961634837
    vertex 1542.6504692939384 -242.6035448123869 24.533475722974345
    vertex 1542.625581771881 -257.89561739919435 24.53326260085231
  endloop
endfacet
facet normal -2.151583116618827e-05 -2.584129640667292e-05 0.9999999994346482
  outer loop
    vertex 1542.6504692939384 -242.6035448123869 24.533475722974345
    vertex 1544.6505749690107 -257.89561712995805 24.533425961634837
    vertex 1544.6505979093083 -242.60354481338828 24.533552250810597
  endloop
endfacet
facet normal -2.151583116618827e-05 -2.584129640667292e-05 0.9999999994346482
  outer loop
    vertex 1532.0004640527986 -265.9116397958362 24.531209275751845
    vertex 1499.951718393792 -263.9125172540955 24.532179113473372
    vertex 1499.9505082959217 -265.91299081270523 24.531127163826245
  endloop
endfacet
facet normal -2.151583116618827e-05 -2.584129640667292e-05 0.9999999994346482
  outer loop
    vertex 1499.951718393792 -263.9125172540955 24.532179113473372
    vertex 1532.0004640527986 -265.9116397958362 24.531209275751845
    vertex 1501.9496808086121 -263.9125172540955 24.532179113473372
  endloop
endfacet
facet normal -2.151583116618827e-05 -2.584129640667292e-05 0.9999999994346482
  outer loop
    vertex 1501.9496808086121 -263.9125172540955 24.532179113473372
    vertex 1532.0004640527986 -265.9116397958362 24.531209275751845
    vertex 1501.9496808086121 -257.9125173060481 24.532179113473372
  endloop
endfacet
facet normal -2.151583116618827e-05 -2.584129640667292e-05 0.9999999994346482
  outer loop
    vertex 1501.9496808086121 -257.9125173060481 24.532179113473372
    vertex 1532.0004640527986 -265.9116397958362 24.531209275751845
    vertex 1509.249326660668 -254.75821002018378 24.532484738592245
  endloop
endfacet
facet normal -2.151583116618827e-05 -2.584129640667292e-05 0.9999999994346482
  outer loop
    vertex 1501.9496808086121 -257.9125173060481 24.532179113473372
    vertex 1509.249326660668 -254.75821002018378 24.532484738592245
    vertex 1501.950512903708 -242.60384460760207 24.532753958575523
  endloop
endfacet
facet normal -2.151583116618827e-05 -2.584129640667292e-05 0.9999999994346482
  outer loop
    vertex 1501.950512903708 -242.60384460760207 24.532753958575523
    vertex 1509.249326660668 -254.75821002018378 24.532484738592245
    vertex 1501.950512903708 -236.60384466343427 24.532753958575523
  endloop
endfacet
facet normal -2.151583116618827e-05 -2.584129640667292e-05 0.9999999994346482
  outer loop
    vertex 1509.249326660668 -254.75821002018378 24.532484738592245
    vertex 1532.0004640527986 -265.9116397958362 24.531209275751845
    vertex 1511.2493266600977 -254.75821002018378 24.5327603419224
  endloop
endfacet
facet normal -2.151583116618827e-05 -2.584129640667292e-05 0.9999999994346482
  outer loop
    vertex 1511.2493266600977 -254.75821002018378 24.5327603419224
    vertex 1532.0004640527986 -265.9116397958362 24.531209275751845
    vertex 1511.2493266600977 -245.75821002018378 24.5327603419224
  endloop
endfacet
facet normal -2.151583116618827e-05 -2.584129640667292e-05 0.9999999994346482
  outer loop
    vertex 1511.2493266600977 -245.75821002018378 24.5327603419224
    vertex 1532.0004640527986 -265.9116397958362 24.531209275751845
    vertex 1519.3006269510795 -236.60353795944388 24.53325866849453
  endloop
endfacet
facet normal -2.151583116618827e-05 -2.584129640667292e-05 0.9999999994346482
  outer loop
    vertex 1519.3006269510795 -236.60353795944388 24.53325866849453
    vertex 1532.0004640527986 -265.9116397958362 24.531209275751845
    vertex 1525.300626951079 -236.60354071073763 24.533258668443228
  endloop
endfacet
facet normal -2.151583116618827e-05 -2.584129640667292e-05 0.9999999994346482
  outer loop
    vertex 1525.300626951079 -236.60354071073763 24.533258668443228
    vertex 1532.0004640527986 -265.9116397958362 24.531209275751845
    vertex 1525.3006278680602 -234.60353065851632 24.533367275301902
  endloop
endfacet
facet normal -2.151583116618827e-05 -2.584129640667292e-05 0.9999999994346482
  outer loop
    vertex 1525.3006278680602 -234.60353065851632 24.533367275301902
    vertex 1532.0004640527986 -265.9116397958362 24.531209275751845
    vertex 1542.6506077715092 -236.603544814063 24.533506326422184
  endloop
endfacet
facet normal -2.151583116618827e-05 -2.584129640667292e-05 0.9999999994346482
  outer loop
    vertex 1525.3006278680602 -234.60353065851632 24.533367275301902
    vertex 1542.6506077715092 -236.603544814063 24.533506326422184
    vertex 1544.6505891312156 -234.6035546567112 24.533730742509572
  endloop
endfacet
facet normal -2.151583116618827e-05 -2.584129640667292e-05 0.9999999994346482
  outer loop
    vertex 1542.6506077715092 -236.603544814063 24.533506326422184
    vertex 1532.0004640527986 -265.9116397958362 24.531209275751845
    vertex 1532.0005889138893 -281.99349752637465 24.53253148537982
  endloop
endfacet
facet normal -2.151583116618827e-05 -2.584129640667292e-05 0.9999999994346482
  outer loop
    vertex 1542.6506077715092 -236.603544814063 24.533506326422184
    vertex 1532.0005889138893 -281.99349752637465 24.53253148537982
    vertex 1534.000606091213 -279.96798036831865 24.532592193854008
  endloop
endfacet
facet normal -2.151583116618827e-05 -2.584129640667292e-05 0.9999999994346482
  outer loop
    vertex 1542.6506077715092 -236.603544814063 24.533506326422184
    vertex 1534.000606091213 -279.96798036831865 24.532592193854008
    vertex 1540.6019867808334 -279.96798034226566 24.532777878257516
  endloop
endfacet
facet normal -2.151583116618827e-05 -2.584129640667292e-05 0.9999999994346482
  outer loop
    vertex 1542.6506077715092 -236.603544814063 24.533506326422184
    vertex 1540.6019867808334 -279.96798034226566 24.532777878257516
    vertex 1542.625581771881 -257.89561739919435 24.53326260085231
  endloop
endfacet
facet normal -2.151583116618827e-05 -2.584129640667292e-05 0.9999999994346482
  outer loop
    vertex 1542.625581771881 -257.89561739919435 24.53326260085231
    vertex 1540.6019867808334 -279.96798034226566 24.532777878257516
    vertex 1542.6255525207914 -281.99350482538205 24.532580825311502
  endloop
endfacet
facet normal -2.151583116618827e-05 -2.584129640667292e-05 0.9999999994346482
  outer loop
    vertex 1542.625581771881 -257.89561739919435 24.53326260085231
    vertex 1542.6255525207914 -281.99350482538205 24.532580825311502
    vertex 1542.625581771881 -263.89561739919435 24.53326260085231
  endloop
endfacet
facet normal -2.151583116618827e-05 -2.584129640667292e-05 0.9999999994346482
  outer loop
    vertex 1542.6506077715092 -236.603544814063 24.533506326422184
    vertex 1542.625581771881 -257.89561739919435 24.53326260085231
    vertex 1542.6504692939384 -242.6035448123869 24.533475722974345
  endloop
endfacet
facet normal -2.151583116618827e-05 -2.584129640667292e-05 0.9999999994346482
  outer loop
    vertex 1544.6505891312156 -234.6035546567112 24.533730742509572
    vertex 1542.6506077715092 -236.603544814063 24.533506326422184
    vertex 1544.650606912237 -236.603544816257 24.533635503508993
  endloop
endfacet
facet normal -2.151583116618827e-05 -2.584129640667292e-05 0.9999999994346482
  outer loop
    vertex 1499.950975273854 -236.6038446191786 24.532753958575523
    vertex 1519.300627868069 -234.60353050366348 24.53336535194146
    vertex 1499.9506338955177 -234.60352552273707 24.53337276715881
  endloop
endfacet
facet normal -2.151583116618827e-05 -2.584129640667292e-05 0.9999999994346482
  outer loop
    vertex 1519.300627868069 -234.60353050366348 24.53336535194146
    vertex 1499.950975273854 -236.6038446191786 24.532753958575523
    vertex 1501.950512903708 -236.60384466343427 24.532753958575523
  endloop
endfacet
facet normal -2.151583116618827e-05 -2.584129640667292e-05 0.9999999994346482
  outer loop
    vertex 1519.300627868069 -234.60353050366348 24.53336535194146
    vertex 1501.950512903708 -236.60384466343427 24.532753958575523
    vertex 1509.249326660668 -245.75821002018378 24.53271731026003
  endloop
endfacet
facet normal -2.151583116618827e-05 -2.584129640667292e-05 0.9999999994346482
  outer loop
    vertex 1509.249326660668 -245.75821002018378 24.53271731026003
    vertex 1501.950512903708 -236.60384466343427 24.532753958575523
    vertex 1509.249326660668 -254.75821002018378 24.532484738592245
  endloop
endfacet
facet normal -2.151583116618827e-05 -2.584129640667292e-05 0.9999999994346482
  outer loop
    vertex 1519.300627868069 -234.60353050366348 24.53336535194146
    vertex 1509.249326660668 -245.75821002018378 24.53271731026003
    vertex 1511.2493266600977 -245.75821002018378 24.5327603419224
  endloop
endfacet
facet normal -2.151583116618827e-05 -2.584129640667292e-05 0.9999999994346482
  outer loop
    vertex 1519.300627868069 -234.60353050366348 24.53336535194146
    vertex 1511.2493266600977 -245.75821002018378 24.5327603419224
    vertex 1519.3006269510795 -236.60353795944388 24.53325866849453
  endloop
endfacet
facet normal -2.151583116618827e-05 -2.584129640667292e-05 0.9999999994346482
  outer loop
    vertex 1499.951718393792 -257.9125173060481 24.532179113473372
    vertex 1501.950512903708 -242.60384460760207 24.532753958575523
    vertex 1499.950975273854 -242.60384460760207 24.532753958575523
  endloop
endfacet
facet normal -2.151583116618827e-05 -2.584129640667292e-05 0.9999999994346482
  outer loop
    vertex 1501.950512903708 -242.60384460760207 24.532753958575523
    vertex 1499.951718393792 -257.9125173060481 24.532179113473372
    vertex 1501.9496808086121 -257.9125173060481 24.532179113473372
  endloop
endfacet
facet normal -0.9999999998462831 -7.765388693535082e-06 -1.572045348476794e-05
  outer loop
    vertex 1532.0004640527986 -265.9116397958362 24.531209275751845
    vertex 1532.0006254129019 -281.99344937883734 22.532579616198063
    vertex 1532.0005889138893 -281.99349752637465 24.53253148537982
  endloop
endfacet
facet normal -0.9999999998462831 -7.765388693535082e-06 -1.572045348476794e-05
  outer loop
    vertex 1532.0006254129019 -281.99344937883734 22.532579616198063
    vertex 1532.0004640527986 -265.9116397958362 24.531209275751845
    vertex 1532.0005005518115 -265.9115916482988 22.531257406570088
  endloop
endfacet
facet normal 4.2153523887125726e-05 -0.9999999988951925 -2.0801331716485273e-05
  outer loop
    vertex 1532.0005005518115 -265.9115916482988 22.531257406570088
    vertex 1499.9505082959217 -265.91299081270523 24.531127163826245
    vertex 1499.9505447949343 -265.91294266516786 22.531175294644463
  endloop
endfacet
facet normal 4.2153523887125726e-05 -0.9999999988951925 -2.0801331716485273e-05
  outer loop
    vertex 1499.9505082959217 -265.91299081270523 24.531127163826245
    vertex 1532.0005005518115 -265.9115916482988 22.531257406570088
    vertex 1532.0004640527986 -265.9116397958362 24.531209275751845
  endloop
endfacet
facet normal 0.9999254075477763 -6.374168244340616e-06 0.012213897812896807
  outer loop
    vertex 1542.6499764579546 -281.9934697907936 22.533045912490486
    vertex 1542.625654528612 -265.90950682576226 24.53262355514016
    vertex 1542.6255525207914 -281.99350482538205 24.532580825311502
  endloop
endfacet
facet normal 0.9999254075477763 -6.374168244340616e-06 0.012213897812896807
  outer loop
    vertex 1542.625654528612 -265.90950682576226 24.53262355514016
    vertex 1542.6499764579546 -281.9934697907936 22.533045912490486
    vertex 1542.650078465775 -265.90947179117376 22.533088642319147
  endloop
endfacet
facet normal 0.0034187534903216254 -0.9999881596629294 -0.003463041801675894
  outer loop
    vertex 1544.6506179079188 -265.9095145138066 24.532668381041983
    vertex 1542.650078465775 -265.90947179117376 22.533088642319147
    vertex 1544.6505629677922 -265.8956171279169 22.533046140115744
  endloop
endfacet
facet normal 0.0034187534903216254 -0.9999881596629294 -0.003463041801675894
  outer loop
    vertex 1542.650078465775 -265.90947179117376 22.533088642319147
    vertex 1544.6506179079188 -265.9095145138066 24.532668381041983
    vertex 1542.625654528612 -265.90950682576226 24.53262355514016
  endloop
endfacet
facet normal -1.0 0.0 0.0
  outer loop
    vertex 1511.2493266600977 -245.75821002018378 24.5327603419224
    vertex 1511.2493266600977 -254.75821002018378 22.532345860461206
    vertex 1511.2493266600977 -254.75821002018378 24.5327603419224
  endloop
endfacet
facet normal -1.0 0.0 0.0
  outer loop
    vertex 1511.2493266600977 -254.75821002018378 22.532345860461206
    vertex 1511.2493266600977 -245.75821002018378 24.5327603419224
    vertex 1511.2493266600977 -245.75821002018378 22.532345860461206
  endloop
endfacet
facet normal 0.0 1.0 0.0
  outer loop
    vertex 1509.249326660668 -254.75821002018378 24.532484738592245
    vertex 1511.2493266600977 -254.75821002018378 22.532345860461206
    vertex 1509.249326660668 -254.75821002018378 22.532298096310758
  endloop
endfacet
facet normal 0.0 1.0 0.0
  outer loop
    vertex 1511.2493266600977 -254.75821002018378 22.532345860461206
    vertex 1509.249326660668 -254.75821002018378 24.532484738592245
    vertex 1511.2493266600977 -254.75821002018378 24.5327603419224
  endloop
endfacet
facet normal 1.0 0.0 0.0
  outer loop
    vertex 1509.249326660668 -245.75821002018378 22.532298096310758
    vertex 1509.249326660668 -254.75821002018378 24.532484738592245
    vertex 1509.249326660668 -254.75821002018378 22.532298096310758
  endloop
endfacet
facet normal 1.0 0.0 0.0
  outer loop
    vertex 1509.249326660668 -254.75821002018378 24.532484738592245
    vertex 1509.249326660668 -245.75821002018378 22.532298096310758
    vertex 1509.249326660668 -245.75821002018378 24.53271731026003
  endloop
endfacet
facet normal 0.0 -1.0 0.0
  outer loop
    vertex 1511.2493266600977 -245.75821002018378 22.532345860461206
    vertex 1509.249326660668 -245.75821002018378 24.53271731026003
    vertex 1509.249326660668 -245.75821002018378 22.532298096310758
  endloop
endfacet
facet normal 0.0 -1.0 0.0
  outer loop
    vertex 1509.249326660668 -245.75821002018378 24.53271731026003
    vertex 1511.2493266600977 -245.75821002018378 22.532345860461206
    vertex 1511.2493266600977 -245.75821002018378 24.5327603419224
  endloop
endfacet
facet normal 3.552223958873794e-05 3.521499667826857e-05 -0.9999999987490373
  outer loop
    vertex 1544.6506256302282 -234.60350650917388 22.533778873327815
    vertex 1509.249326660668 -245.75821002018378 22.532298096310758
    vertex 1499.9506703945303 -234.60347737519973 22.533420897977052
  endloop
endfacet
facet normal 3.552223958873794e-05 3.521499667826857e-05 -0.9999999987490373
  outer loop
    vertex 1509.249326660668 -245.75821002018378 22.532298096310758
    vertex 1544.6506256302282 -234.60350650917388 22.533778873327815
    vertex 1511.2493266600977 -245.75821002018378 22.532345860461206
  endloop
endfacet
facet normal 3.552223958873794e-05 3.521499667826857e-05 -0.9999999987490373
  outer loop
    vertex 1511.2493266600977 -245.75821002018378 22.532345860461206
    vertex 1544.6506256302282 -234.60350650917388 22.533778873327815
    vertex 1511.2493266600977 -254.75821002018378 22.532345860461206
  endloop
endfacet
facet normal 3.552223958873794e-05 3.521499667826857e-05 -0.9999999987490373
  outer loop
    vertex 1511.2493266600977 -254.75821002018378 22.532345860461206
    vertex 1544.6506256302282 -234.60350650917388 22.533778873327815
    vertex 1532.0005005518115 -265.9115916482988 22.531257406570088
  endloop
endfacet
facet normal 3.552223958873794e-05 3.521499667826857e-05 -0.9999999987490373
  outer loop
    vertex 1532.0005005518115 -265.9115916482988 22.531257406570088
    vertex 1544.6506256302282 -234.60350650917388 22.533778873327815
    vertex 1532.0006254129019 -281.99344937883734 22.532579616198063
  endloop
endfacet
facet normal 3.552223958873794e-05 3.521499667826857e-05 -0.9999999987490373
  outer loop
    vertex 1532.0006254129019 -281.99344937883734 22.532579616198063
    vertex 1544.6506256302282 -234.60350650917388 22.533778873327815
    vertex 1542.650078465775 -265.90947179117376 22.533088642319147
  endloop
endfacet
facet normal 3.552223958873794e-05 3.521499667826857e-05 -0.9999999987490373
  outer loop
    vertex 1532.0006254129019 -281.99344937883734 22.532579616198063
    vertex 1542.650078465775 -265.90947179117376 22.533088642319147
    vertex 1542.6499764579546 -281.9934697907936 22.533045912490486
  endloop
endfacet
facet normal 3.552223958873794e-05 3.521499667826857e-05 -0.9999999987490373
  outer loop
    vertex 1542.650078465775 -265.90947179117376 22.533088642319147
    vertex 1544.6506256302282 -234.60350650917388 22.533778873327815
    vertex 1544.6505629677922 -265.8956171279169 22.533046140115744
  endloop
endfacet
facet normal 3.552223958873794e-05 3.521499667826857e-05 -0.9999999987490373
  outer loop
    vertex 1499.9505447949343 -265.91294266516786 22.531175294644463
    vertex 1509.249326660668 -254.75821002018378 22.532298096310758
    vertex 1532.0005005518115 -265.9115916482988 22.531257406570088
  endloop
endfacet
facet normal 3.552223958873794e-05 3.521499667826857e-05 -0.9999999987490373
  outer loop
    vertex 1509.249326660668 -254.75821002018378 22.532298096310758
    vertex 1499.9505447949343 -265.91294266516786 22.531175294644463
    vertex 1499.9506703945303 -234.60347737519973 22.533420897977052
  endloop
endfacet
facet normal 3.552223958873794e-05 3.521499667826857e-05 -0.9999999987490373
  outer loop
    vertex 1509.249326660668 -254.75821002018378 22.532298096310758
    vertex 1499.9506703945303 -234.60347737519973 22.533420897977052
    vertex 1509.249326660668 -245.75821002018378 22.532298096310758
  endloop
endfacet
facet normal 3.552223958873794e-05 3.521499667826857e-05 -0.9999999987490373
  outer loop
    vertex 1532.0005005518115 -265.9115916482988 22.531257406570088
    vertex 1509.249326660668 -254.75821002018378 22.532298096310758
    vertex 1511.2493266600977 -254.75821002018378 22.532345860461206
  endloop
endfacet
endsolid sliced-tower-main
