solid sliced-tower-main
facet normal 1.4324104190510113e-16 -1.0 1.3877787807814457e-17
  outer loop
    vertex 1146.2605454952964 -40.59047729079361 178.53253599999994
    vertex 1133.2605454952966 -40.59047729079361 132.53253599999996
    vertex 1146.2605454952964 -40.59047729079361 132.53253599999994
  endloop
endfacet
facet normal 1.4324104190510113e-16 -1.0 1.3877787807814457e-17
  outer loop
    vertex 1133.2605454952966 -40.59047729079361 132.53253599999996
    vertex 1146.2605454952964 -40.59047729079361 178.53253599999994
    vertex 1133.2605454952966 -40.59047729079361 178.532536
  endloop
endfacet
facet normal 4.447491541496642e-16 1.3877787807814518e-17 1.0
  outer loop
    vertex 1076.8005454952965 -24.590477290793736 178.532536
    vertex 1089.8005454952965 -40.590477290793615 178.532536
    vertex 1089.8005454952965 -24.590477290793732 178.532536
  endloop
endfacet
facet normal 4.447491541496642e-16 1.3877787807814518e-17 1.0
  outer loop
    vertex 1089.8005454952965 -40.590477290793615 178.532536
    vertex 1076.8005454952965 -24.590477290793736 178.532536
    vertex 1076.8005454952965 -40.590477290793615 178.53253599999996
  endloop
endfacet
facet normal 1.4324104190510113e-16 -1.0 1.3877787807814457e-17
  outer loop
    vertex 1089.8005454952965 -40.590477290793615 132.532536
    vertex 1076.8005454952965 -40.590477290793615 178.53253599999996
    vertex 1076.8005454952965 -40.590477290793615 132.53253599999996
  endloop
endfacet
facet normal 1.4324104190510113e-16 -1.0 1.3877787807814457e-17
  outer loop
    vertex 1076.8005454952965 -40.590477290793615 178.53253599999996
    vertex 1089.8005454952965 -40.590477290793615 132.532536
    vertex 1089.8005454952965 -40.590477290793615 178.532536
  endloop
endfacet
facet normal -1.4324104190510118e-16 1.0 -5.043067412944053e-16
  outer loop
    vertex 1133.2605454952966 -71.59047729079369 132.53253599999996
    vertex 1146.2605454952964 -71.59047729079369 178.53253599999994
    vertex 1146.2605454952964 -71.59047729079377 132.53253599999994
  endloop
endfacet
facet normal -1.4324104190510118e-16 1.0 -5.043067412944053e-16
  outer loop
    vertex 1146.2605454952964 -71.59047729079369 178.53253599999994
    vertex 1133.2605454952966 -71.59047729079369 132.53253599999996
    vertex 1133.2605454952966 -71.59047729079369 178.532536
  endloop
endfacet
facet normal -1.995346774063687e-16 -1.3877787807814484e-17 -1.0
  outer loop
    vertex 1076.8005454952965 -87.59047729079367 22.532535999999947
    vertex 1146.2605454952964 -24.590477290793725 22.532535999999954
    vertex 1146.2605454952964 -87.59047729079374 22.532535999999958
  endloop
endfacet
facet normal -1.995346774063687e-16 -1.3877787807814484e-17 -1.0
  outer loop
    vertex 1146.2605454952964 -24.590477290793725 22.532535999999954
    vertex 1076.8005454952965 -87.59047729079367 22.532535999999947
    vertex 1076.8005454952965 -24.590477290793647 22.532535999999947
  endloop
endfacet
facet normal 1.0 0.0 1.987868784929252e-33
  outer loop
    vertex 1089.8005454952965 -87.59047729079376 178.532536
    vertex 1089.8005454952965 -71.59047729079377 132.532536
    vertex 1089.8005454952965 -71.59047729079377 178.532536
  endloop
endfacet
facet normal 1.0 0.0 1.987868784929252e-33
  outer loop
    vertex 1089.8005454952965 -71.59047729079377 132.532536
    vertex 1089.8005454952965 -87.59047729079376 178.532536
    vertex 1089.8005454952965 -87.59047729079367 35.53253599999994
  endloop
endfacet
facet normal 1.0 0.0 1.987868784929252e-33
  outer loop
    vertex 1089.8005454952965 -24.590477290793643 35.53253599999992
    vertex 1089.8005454952965 -40.590477290793615 132.532536
    vertex 1089.8005454952965 -87.59047729079367 35.53253599999994
  endloop
endfacet
facet normal 1.0 0.0 1.987868784929252e-33
  outer loop
    vertex 1089.8005454952965 -40.590477290793615 132.532536
    vertex 1089.8005454952965 -24.590477290793643 35.53253599999992
    vertex 1089.8005454952965 -24.590477290793732 178.532536
  endloop
endfacet
facet normal 1.0 0.0 1.987868784929252e-33
  outer loop
    vertex 1089.8005454952965 -40.590477290793615 132.532536
    vertex 1089.8005454952965 -24.590477290793732 178.532536
    vertex 1089.8005454952965 -40.590477290793615 178.532536
  endloop
endfacet
facet normal 1.0 0.0 1.987868784929252e-33
  outer loop
    vertex 1089.8005454952965 -87.59047729079367 35.53253599999994
    vertex 1089.8005454952965 -40.590477290793615 132.532536
    vertex 1089.8005454952965 -71.59047729079377 132.532536
  endloop
endfacet
facet normal 1.995346774063687e-16 1.3877787807814484e-17 1.0
  outer loop
    vertex 1133.2605454952966 -71.59047729079369 178.532536
    vertex 1146.2605454952964 -87.59047729079374 178.53253599999994
    vertex 1146.2605454952964 -71.59047729079369 178.53253599999994
  endloop
endfacet
facet normal 1.995346774063687e-16 1.3877787807814484e-17 1.0
  outer loop
    vertex 1146.2605454952964 -87.59047729079374 178.53253599999994
    vertex 1133.2605454952966 -71.59047729079369 178.532536
    vertex 1133.2605454952966 -87.59047729079374 178.532536
  endloop
endfacet
facet normal -1.0 0.0 -1.987868784929252e-33
  outer loop
    vertex 1133.2605454952966 -24.59047729079373 35.53253599999997
    vertex 1133.2605454952966 -40.59047729079361 132.53253599999996
    vertex 1133.2605454952966 -24.590477290793725 178.532536
  endloop
endfacet
facet normal -1.0 0.0 -1.987868784929252e-33
  outer loop
    vertex 1133.2605454952966 -40.59047729079361 132.53253599999996
    vertex 1133.2605454952966 -24.59047729079373 35.53253599999997
    vertex 1133.2605454952966 -87.59047729079374 35.53253599999997
  endloop
endfacet
facet normal -1.0 0.0 -1.987868784929252e-33
  outer loop
    vertex 1133.2605454952966 -40.59047729079361 132.53253599999996
    vertex 1133.2605454952966 -87.59047729079374 35.53253599999997
    vertex 1133.2605454952966 -71.59047729079369 132.53253599999996
  endloop
endfacet
facet normal -1.0 0.0 -1.987868784929252e-33
  outer loop
    vertex 1133.2605454952966 -71.59047729079369 132.53253599999996
    vertex 1133.2605454952966 -87.59047729079374 35.53253599999997
    vertex 1133.2605454952966 -71.59047729079369 178.532536
  endloop
endfacet
facet normal -1.0 0.0 -1.987868784929252e-33
  outer loop
    vertex 1133.2605454952966 -71.59047729079369 178.532536
    vertex 1133.2605454952966 -87.59047729079374 35.53253599999997
    vertex 1133.2605454952966 -87.59047729079374 178.532536
  endloop
endfacet
facet normal -1.0 0.0 -1.987868784929252e-33
  outer loop
    vertex 1133.2605454952966 -40.59047729079361 178.532536
    vertex 1133.2605454952966 -24.590477290793725 178.532536
    vertex 1133.2605454952966 -40.59047729079361 132.53253599999996
  endloop
endfacet
facet normal -8.386490253264066e-16 1.3877787807814335e-17 1.0
  outer loop
    vertex 1089.8005454952965 -24.590477290793643 35.53253599999992
    vertex 1133.2605454952966 -87.59047729079374 35.53253599999997
    vertex 1133.2605454952966 -24.59047729079373 35.53253599999997
  endloop
endfacet
facet normal -8.386490253264066e-16 1.3877787807814335e-17 1.0
  outer loop
    vertex 1133.2605454952966 -87.59047729079374 35.53253599999997
    vertex 1089.8005454952965 -24.590477290793643 35.53253599999992
    vertex 1089.8005454952965 -87.59047729079367 35.53253599999994
  endloop
endfacet
facet normal 1.995346774063687e-16 1.3877787807814484e-17 1.0
  outer loop
    vertex 1076.8005454952965 -71.59047729079377 178.5325359999999
    vertex 1089.8005454952965 -87.59047729079376 178.532536
    vertex 1089.8005454952965 -71.59047729079377 178.532536
  endloop
endfacet
facet normal 1.995346774063687e-16 1.3877787807814484e-17 1.0
  outer loop
    vertex 1089.8005454952965 -87.59047729079376 178.532536
    vertex 1076.8005454952965 -71.59047729079377 178.5325359999999
    vertex 1076.8005454952965 -87.59047729079376 178.5325359999999
  endloop
endfacet
facet normal -1.4324104190510118e-16 1.0 -5.043067412944052e-16
  outer loop
    vertex 1076.8005454952965 -71.59047729079377 178.5325359999999
    vertex 1089.8005454952965 -71.59047729079377 132.532536
    vertex 1076.8005454952965 -71.59047729079379 132.5325359999999
  endloop
endfacet
facet normal -1.4324104190510118e-16 1.0 -5.043067412944052e-16
  outer loop
    vertex 1089.8005454952965 -71.59047729079377 132.532536
    vertex 1076.8005454952965 -71.59047729079377 178.5325359999999
    vertex 1089.8005454952965 -71.59047729079377 178.532536
  endloop
endfacet
facet normal 1.0 -1.1646205894336139e-17 -2.3854521678132955e-16
  outer loop
    vertex 1146.2605454952964 -87.59047729079374 178.53253599999994
    vertex 1146.2605454952964 -71.59047729079377 132.53253599999994
    vertex 1146.2605454952964 -71.59047729079369 178.53253599999994
  endloop
endfacet
facet normal 1.0 -1.1646205894336139e-17 -2.3854521678132955e-16
  outer loop
    vertex 1146.2605454952964 -40.59047729079361 178.53253599999994
    vertex 1146.2605454952964 -24.590477290793725 22.532535999999954
    vertex 1146.2605454952964 -24.59047729079372 178.53253599999994
  endloop
endfacet
facet normal 1.0 -1.1646205894336139e-17 -2.3854521678132955e-16
  outer loop
    vertex 1146.2605454952964 -24.590477290793725 22.532535999999954
    vertex 1146.2605454952964 -40.59047729079361 178.53253599999994
    vertex 1146.2605454952964 -40.59047729079361 132.53253599999994
  endloop
endfacet
facet normal 1.0 -1.1646205894336139e-17 -2.3854521678132955e-16
  outer loop
    vertex 1146.2605454952964 -24.590477290793725 22.532535999999954
    vertex 1146.2605454952964 -40.59047729079361 132.53253599999994
    vertex 1146.2605454952964 -87.59047729079374 22.532535999999958
  endloop
endfacet
facet normal 1.0 -1.1646205894336139e-17 -2.3854521678132955e-16
  outer loop
    vertex 1146.2605454952964 -87.59047729079374 22.532535999999958
    vertex 1146.2605454952964 -40.59047729079361 132.53253599999994
    vertex 1146.2605454952964 -71.59047729079377 132.53253599999994
  endloop
endfacet
facet normal 1.0 -1.1646205894336139e-17 -2.3854521678132955e-16
  outer loop
    vertex 1146.2605454952964 -87.59047729079374 22.532535999999958
    vertex 1146.2605454952964 -71.59047729079377 132.53253599999994
    vertex 1146.2605454952964 -87.59047729079374 178.53253599999994
  endloop
endfacet
facet normal 1.995346774063687e-16 1.3877787807814484e-17 1.0
  outer loop
    vertex 1133.2605454952966 -24.590477290793725 178.532536
    vertex 1146.2605454952964 -40.59047729079361 178.53253599999994
    vertex 1146.2605454952964 -24.59047729079372 178.53253599999994
  endloop
endfacet
facet normal 1.995346774063687e-16 1.3877787807814484e-17 1.0
  outer loop
    vertex 1146.2605454952964 -40.59047729079361 178.53253599999994
    vertex 1133.2605454952966 -24.590477290793725 178.532536
    vertex 1133.2605454952966 -40.59047729079361 178.532536
  endloop
endfacet
facet normal 1.4324104190510113e-16 -1.0 1.3877787807814457e-17
  outer loop
    vertex 1146.2605454952964 -87.59047729079374 22.532535999999958
    vertex 1133.2605454952966 -87.59047729079374 35.53253599999997
    vertex 1089.8005454952965 -87.59047729079367 35.53253599999994
  endloop
endfacet
facet normal 1.4324104190510113e-16 -1.0 1.3877787807814457e-17
  outer loop
    vertex 1133.2605454952966 -87.59047729079374 35.53253599999997
    vertex 1146.2605454952964 -87.59047729079374 22.532535999999958
    vertex 1146.2605454952964 -87.59047729079374 178.53253599999994
  endloop
endfacet
facet normal 1.4324104190510113e-16 -1.0 1.3877787807814457e-17
  outer loop
    vertex 1133.2605454952966 -87.59047729079374 35.53253599999997
    vertex 1146.2605454952964 -87.59047729079374 178.53253599999994
    vertex 1133.2605454952966 -87.59047729079374 178.532536
  endloop
endfacet
facet normal 1.4324104190510113e-16 -1.0 1.3877787807814457e-17
  outer loop
    vertex 1076.8005454952965 -87.59047729079367 22.532535999999947
    vertex 1089.8005454952965 -87.59047729079367 35.53253599999994
    vertex 1076.8005454952965 -87.59047729079376 178.5325359999999
  endloop
endfacet
facet normal 1.4324104190510113e-16 -1.0 1.3877787807814457e-17
  outer loop
    vertex 1089.8005454952965 -87.59047729079367 35.53253599999994
    vertex 1076.8005454952965 -87.59047729079367 22.532535999999947
    vertex 1146.2605454952964 -87.59047729079374 22.532535999999958
  endloop
endfacet
facet normal 1.4324104190510113e-16 -1.0 1.3877787807814457e-17
  outer loop
    vertex 1076.8005454952965 -87.59047729079376 178.5325359999999
    vertex 1089.8005454952965 -87.59047729079367 35.53253599999994
    vertex 1089.8005454952965 -87.59047729079376 178.532536
  endloop
endfacet
facet normal -1.849926991736739e-16 1.0 3.267032310788071e-16
  outer loop
    vertex 1076.8005454952965 -24.590477290793647 22.532535999999947
    vertex 1089.8005454952965 -24.590477290793643 35.53253599999992
    vertex 1146.2605454952964 -24.590477290793725 22.532535999999954
  endloop
endfacet
facet normal -1.849926991736739e-16 1.0 3.267032310788071e-16
  outer loop
    vertex 1089.8005454952965 -24.590477290793643 35.53253599999992
    vertex 1076.8005454952965 -24.590477290793647 22.532535999999947
    vertex 1076.8005454952965 -24.590477290793736 178.532536
  endloop
endfacet
facet normal -1.849926991736739e-16 1.0 3.267032310788071e-16
  outer loop
    vertex 1089.8005454952965 -24.590477290793643 35.53253599999992
    vertex 1076.8005454952965 -24.590477290793736 178.532536
    vertex 1089.8005454952965 -24.590477290793732 178.532536
  endloop
endfacet
facet normal -1.849926991736739e-16 1.0 3.267032310788071e-16
  outer loop
    vertex 1146.2605454952964 -24.590477290793725 22.532535999999954
    vertex 1133.2605454952966 -24.59047729079373 35.53253599999997
    vertex 1146.2605454952964 -24.59047729079372 178.53253599999994
  endloop
endfacet
facet normal -1.849926991736739e-16 1.0 3.267032310788071e-16
  outer loop
    vertex 1133.2605454952966 -24.59047729079373 35.53253599999997
    vertex 1146.2605454952964 -24.590477290793725 22.532535999999954
    vertex 1089.8005454952965 -24.590477290793643 35.53253599999992
  endloop
endfacet
facet normal -1.849926991736739e-16 1.0 3.267032310788071e-16
  outer loop
    vertex 1146.2605454952964 -24.59047729079372 178.53253599999994
    vertex 1133.2605454952966 -24.59047729079373 35.53253599999997
    vertex 1133.2605454952966 -24.590477290793725 178.532536
  endloop
endfacet
facet normal -1.0 -3.443428786511337e-16 1.2271000647804862e-16
  outer loop
    vertex 1076.8005454952965 -24.590477290793647 22.532535999999947
    vertex 1076.8005454952965 -40.590477290793615 132.53253599999996
    vertex 1076.8005454952965 -24.590477290793736 178.532536
  endloop
endfacet
facet normal -1.0 -3.443428786511337e-16 1.2271000647804862e-16
  outer loop
    vertex 1076.8005454952965 -40.590477290793615 132.53253599999996
    vertex 1076.8005454952965 -24.590477290793647 22.532535999999947
    vertex 1076.8005454952965 -87.59047729079367 22.532535999999947
  endloop
endfacet
facet normal -1.0 -3.443428786511337e-16 1.2271000647804862e-16
  outer loop
    vertex 1076.8005454952965 -40.590477290793615 132.53253599999996
    vertex 1076.8005454952965 -87.59047729079367 22.532535999999947
    vertex 1076.8005454952965 -71.59047729079379 132.5325359999999
  endloop
endfacet
facet normal -1.0 -3.443428786511337e-16 1.2271000647804862e-16
  outer loop
    vertex 1076.8005454952965 -71.59047729079379 132.5325359999999
    vertex 1076.8005454952965 -87.59047729079367 22.532535999999947
    vertex 1076.8005454952965 -71.59047729079377 178.5325359999999
  endloop
endfacet
facet normal -1.0 -3.443428786511337e-16 1.2271000647804862e-16
  outer loop
    vertex 1076.8005454952965 -71.59047729079377 178.5325359999999
    vertex 1076.8005454952965 -87.59047729079367 22.532535999999947
    vertex 1076.8005454952965 -87.59047729079376 178.5325359999999
  endloop
endfacet
facet normal -1.0 -3.443428786511337e-16 1.2271000647804862e-16
  outer loop
    vertex 1076.8005454952965 -40.590477290793615 178.53253599999996
    vertex 1076.8005454952965 -24.590477290793736 178.532536
    vertex 1076.8005454952965 -40.590477290793615 132.53253599999996
  endloop
endfacet
facet normal 1.995346774063687e-16 1.3877787807814484e-17 1.0
  outer loop
    vertex 1133.2605454952966 -40.59047729079361 132.53253599999996
    vertex 1146.2605454952964 -71.59047729079377 132.53253599999994
    vertex 1146.2605454952964 -40.59047729079361 132.53253599999994
  endloop
endfacet
facet normal 1.995346774063687e-16 1.3877787807814484e-17 1.0
  outer loop
    vertex 1146.2605454952964 -71.59047729079377 132.53253599999994
    vertex 1133.2605454952966 -40.59047729079361 132.53253599999996
    vertex 1133.2605454952966 -71.59047729079369 132.53253599999996
  endloop
endfacet
facet normal 1.995346774063687e-16 1.3877787807814484e-17 1.0
  outer loop
    vertex 1076.8005454952965 -40.590477290793615 132.53253599999996
    vertex 1089.8005454952965 -71.59047729079377 132.532536
    vertex 1089.8005454952965 -40.590477290793615 132.532536
  endloop
endfacet
facet normal 1.995346774063687e-16 1.3877787807814484e-17 1.0
  outer loop
    vertex 1089.8005454952965 -71.59047729079377 132.532536
    vertex 1076.8005454952965 -40.590477290793615 132.53253599999996
    vertex 1076.8005454952965 -71.59047729079379 132.5325359999999
  endloop
endfacet
endsolid sliced-tower-main
