solid sliced-tower-main
facet normal -1.6653345369377348e-16 0.0 1.0
  outer loop
    vertex 1687.2621473987895 -243.59346979079373 52.53253599999994
    vertex 1661.2621473987892 -256.5934697907935 52.532535999999986
    vertex 1687.2621473987895 -256.5934697907935 52.53253599999994
  endloop
endfacet
facet normal -1.6653345369377348e-16 0.0 1.0
  outer loop
    vertex 1661.2621473987892 -256.5934697907935 52.532535999999986
    vertex 1687.2621473987895 -243.59346979079373 52.53253599999994
    vertex 1661.2621473987892 -243.59346979079373 52.532535999999986
  endloop
endfacet
facet normal 1.0 0.0 0.0
  outer loop
    vertex 1841.8970023987895 -243.59346979079373 22.53253600000002
    vertex 1841.8970023987895 -248.78532224559854 28.724388454804913
    vertex 1841.8970023987895 -256.5934697907935 22.53253600000002
  endloop
endfacet
facet normal 1.0 0.0 0.0
  outer loop
    vertex 1841.8970023987895 -248.78532224559854 28.724388454804913
    vertex 1841.8970023987895 -243.59346979079373 22.53253600000002
    vertex 1841.8970023987895 -248.49132279379242 29.107536000000014
  endloop
endfacet
facet normal 1.0 0.0 0.0
  outer loop
    vertex 1841.8970023987895 -248.49132279379242 29.107536000000014
    vertex 1841.8970023987895 -243.59346979079373 22.53253600000002
    vertex 1841.8970023987895 -248.30650701215885 29.55372076656039
  endloop
endfacet
facet normal 1.0 0.0 0.0
  outer loop
    vertex 1841.8970023987895 -248.30650701215885 29.55372076656039
    vertex 1841.8970023987895 -243.59346979079373 22.53253600000002
    vertex 1841.8970023987895 -243.59346979079373 52.53253600000006
  endloop
endfacet
facet normal 1.0 0.0 0.0
  outer loop
    vertex 1841.8970023987895 -256.5934697907935 22.53253600000002
    vertex 1841.8970023987895 -248.78532224559854 28.724388454804913
    vertex 1841.8970023987895 -249.16846979079364 28.430389002998805
  endloop
endfacet
facet normal 1.0 0.0 0.0
  outer loop
    vertex 1841.8970023987895 -256.5934697907935 22.53253600000002
    vertex 1841.8970023987895 -249.16846979079364 28.430389002998805
    vertex 1841.8970023987895 -249.61465455735396 28.24557322136527
  endloop
endfacet
facet normal 1.0 0.0 0.0
  outer loop
    vertex 1841.8970023987895 -256.5934697907935 22.53253600000002
    vertex 1841.8970023987895 -249.61465455735396 28.24557322136527
    vertex 1841.8970023987895 -250.09346979079365 28.182536000000045
  endloop
endfacet
facet normal 1.0 0.0 0.0
  outer loop
    vertex 1841.8970023987895 -248.30650701215885 29.55372076656039
    vertex 1841.8970023987895 -243.59346979079373 52.53253600000006
    vertex 1841.8970023987895 -248.24346979079363 30.03253600000003
  endloop
endfacet
facet normal 1.0 0.0 0.0
  outer loop
    vertex 1841.8970023987895 -248.24346979079363 30.03253600000003
    vertex 1841.8970023987895 -243.59346979079373 52.53253600000006
    vertex 1841.8970023987895 -248.30650701215885 30.511351233439672
  endloop
endfacet
facet normal 1.0 0.0 0.0
  outer loop
    vertex 1841.8970023987895 -248.30650701215885 30.511351233439672
    vertex 1841.8970023987895 -243.59346979079373 52.53253600000006
    vertex 1841.8970023987895 -248.49132279379242 30.957536000000047
  endloop
endfacet
facet normal 1.0 0.0 0.0
  outer loop
    vertex 1841.8970023987895 -248.49132279379242 30.957536000000047
    vertex 1841.8970023987895 -243.59346979079373 52.53253600000006
    vertex 1841.8970023987895 -248.78532224559854 31.340683545195148
  endloop
endfacet
facet normal 1.0 0.0 0.0
  outer loop
    vertex 1841.8970023987895 -248.78532224559854 31.340683545195148
    vertex 1841.8970023987895 -243.59346979079373 52.53253600000006
    vertex 1841.8970023987895 -249.16846979079364 31.634682997001256
  endloop
endfacet
facet normal 1.0 0.0 0.0
  outer loop
    vertex 1841.8970023987895 -249.16846979079364 31.634682997001256
    vertex 1841.8970023987895 -243.59346979079373 52.53253600000006
    vertex 1841.8970023987895 -249.61465455735396 31.81949877863479
  endloop
endfacet
facet normal 1.0 0.0 0.0
  outer loop
    vertex 1841.8970023987895 -249.61465455735396 31.81949877863479
    vertex 1841.8970023987895 -243.59346979079373 52.53253600000006
    vertex 1841.8970023987895 -250.09346979079365 31.882536000000016
  endloop
endfacet
facet normal 1.0 0.0 0.0
  outer loop
    vertex 1841.8970023987895 -250.09346979079365 31.882536000000016
    vertex 1841.8970023987895 -243.59346979079373 52.53253600000006
    vertex 1841.8970023987895 -248.49132279379242 44.10753600000003
  endloop
endfacet
facet normal 1.0 0.0 0.0
  outer loop
    vertex 1841.8970023987895 -250.09346979079365 31.882536000000016
    vertex 1841.8970023987895 -248.49132279379242 44.10753600000003
    vertex 1841.8970023987895 -248.78532224559854 43.72438845480493
  endloop
endfacet
facet normal 1.0 0.0 0.0
  outer loop
    vertex 1841.8970023987895 -250.09346979079365 31.882536000000016
    vertex 1841.8970023987895 -248.78532224559854 43.72438845480493
    vertex 1841.8970023987895 -249.16846979079364 43.43038900299882
  endloop
endfacet
facet normal 1.0 0.0 0.0
  outer loop
    vertex 1841.8970023987895 -250.09346979079365 31.882536000000016
    vertex 1841.8970023987895 -249.16846979079364 43.43038900299882
    vertex 1841.8970023987895 -249.61465455735396 43.245573221365284
  endloop
endfacet
facet normal 1.0 0.0 0.0
  outer loop
    vertex 1841.8970023987895 -250.09346979079365 31.882536000000016
    vertex 1841.8970023987895 -249.61465455735396 43.245573221365284
    vertex 1841.8970023987895 -250.09346979079365 43.18253600000006
  endloop
endfacet
facet normal 1.0 0.0 0.0
  outer loop
    vertex 1841.8970023987895 -248.49132279379242 44.10753600000003
    vertex 1841.8970023987895 -243.59346979079373 52.53253600000006
    vertex 1841.8970023987895 -248.30650701215885 44.5537207665604
  endloop
endfacet
facet normal 1.0 0.0 0.0
  outer loop
    vertex 1841.8970023987895 -248.30650701215885 44.5537207665604
    vertex 1841.8970023987895 -243.59346979079373 52.53253600000006
    vertex 1841.8970023987895 -248.24346979079363 45.03253600000005
  endloop
endfacet
facet normal 1.0 0.0 0.0
  outer loop
    vertex 1841.8970023987895 -248.24346979079363 45.03253600000005
    vertex 1841.8970023987895 -243.59346979079373 52.53253600000006
    vertex 1841.8970023987895 -248.30650701215885 45.51135123343969
  endloop
endfacet
facet normal 1.0 0.0 0.0
  outer loop
    vertex 1841.8970023987895 -248.30650701215885 45.51135123343969
    vertex 1841.8970023987895 -243.59346979079373 52.53253600000006
    vertex 1841.8970023987895 -248.49132279379242 45.95753600000006
  endloop
endfacet
facet normal 1.0 0.0 0.0
  outer loop
    vertex 1841.8970023987895 -248.49132279379242 45.95753600000006
    vertex 1841.8970023987895 -243.59346979079373 52.53253600000006
    vertex 1841.8970023987895 -248.78532224559854 46.34068354519517
  endloop
endfacet
facet normal 1.0 0.0 0.0
  outer loop
    vertex 1841.8970023987895 -248.78532224559854 46.34068354519517
    vertex 1841.8970023987895 -243.59346979079373 52.53253600000006
    vertex 1841.8970023987895 -249.16846979079364 46.63468299700128
  endloop
endfacet
facet normal 1.0 0.0 0.0
  outer loop
    vertex 1841.8970023987895 -249.16846979079364 46.63468299700128
    vertex 1841.8970023987895 -243.59346979079373 52.53253600000006
    vertex 1841.8970023987895 -249.61465455735396 46.81949877863481
  endloop
endfacet
facet normal 1.0 0.0 0.0
  outer loop
    vertex 1841.8970023987895 -249.61465455735396 46.81949877863481
    vertex 1841.8970023987895 -243.59346979079373 52.53253600000006
    vertex 1841.8970023987895 -250.09346979079365 46.88253600000003
  endloop
endfacet
facet normal 1.0 0.0 0.0
  outer loop
    vertex 1841.8970023987895 -256.5934697907935 22.53253600000002
    vertex 1841.8970023987895 -251.88043256942842 29.55372076656039
    vertex 1841.8970023987895 -256.5934697907935 52.53253600000006
  endloop
endfacet
facet normal 1.0 0.0 0.0
  outer loop
    vertex 1841.8970023987895 -251.88043256942842 29.55372076656039
    vertex 1841.8970023987895 -256.5934697907935 22.53253600000002
    vertex 1841.8970023987895 -251.69561678779485 29.107536000000014
  endloop
endfacet
facet normal 1.0 0.0 0.0
  outer loop
    vertex 1841.8970023987895 -251.69561678779485 29.107536000000014
    vertex 1841.8970023987895 -256.5934697907935 22.53253600000002
    vertex 1841.8970023987895 -251.40161733598876 28.724388454804913
  endloop
endfacet
facet normal 1.0 0.0 0.0
  outer loop
    vertex 1841.8970023987895 -251.40161733598876 28.724388454804913
    vertex 1841.8970023987895 -256.5934697907935 22.53253600000002
    vertex 1841.8970023987895 -251.01846979079363 28.430389002998805
  endloop
endfacet
facet normal 1.0 0.0 0.0
  outer loop
    vertex 1841.8970023987895 -251.01846979079363 28.430389002998805
    vertex 1841.8970023987895 -256.5934697907935 22.53253600000002
    vertex 1841.8970023987895 -250.5722850242333 28.24557322136527
  endloop
endfacet
facet normal 1.0 0.0 0.0
  outer loop
    vertex 1841.8970023987895 -250.5722850242333 28.24557322136527
    vertex 1841.8970023987895 -256.5934697907935 22.53253600000002
    vertex 1841.8970023987895 -250.09346979079365 28.182536000000045
  endloop
endfacet
facet normal 1.0 0.0 0.0
  outer loop
    vertex 1841.8970023987895 -256.5934697907935 52.53253600000006
    vertex 1841.8970023987895 -251.88043256942842 29.55372076656039
    vertex 1841.8970023987895 -251.94346979079364 30.03253600000003
  endloop
endfacet
facet normal 1.0 0.0 0.0
  outer loop
    vertex 1841.8970023987895 -256.5934697907935 52.53253600000006
    vertex 1841.8970023987895 -251.94346979079364 30.03253600000003
    vertex 1841.8970023987895 -251.88043256942842 30.511351233439672
  endloop
endfacet
facet normal 1.0 0.0 0.0
  outer loop
    vertex 1841.8970023987895 -256.5934697907935 52.53253600000006
    vertex 1841.8970023987895 -251.88043256942842 30.511351233439672
    vertex 1841.8970023987895 -251.69561678779485 30.957536000000047
  endloop
endfacet
facet normal 1.0 0.0 0.0
  outer loop
    vertex 1841.8970023987895 -256.5934697907935 52.53253600000006
    vertex 1841.8970023987895 -251.69561678779485 30.957536000000047
    vertex 1841.8970023987895 -251.40161733598876 31.340683545195148
  endloop
endfacet
facet normal 1.0 0.0 0.0
  outer loop
    vertex 1841.8970023987895 -256.5934697907935 52.53253600000006
    vertex 1841.8970023987895 -251.40161733598876 31.340683545195148
    vertex 1841.8970023987895 -251.01846979079363 31.634682997001256
  endloop
endfacet
facet normal 1.0 0.0 0.0
  outer loop
    vertex 1841.8970023987895 -256.5934697907935 52.53253600000006
    vertex 1841.8970023987895 -251.01846979079363 31.634682997001256
    vertex 1841.8970023987895 -250.5722850242333 31.81949877863479
  endloop
endfacet
facet normal 1.0 0.0 0.0
  outer loop
    vertex 1841.8970023987895 -256.5934697907935 52.53253600000006
    vertex 1841.8970023987895 -250.5722850242333 31.81949877863479
    vertex 1841.8970023987895 -250.09346979079365 31.882536000000016
  endloop
endfacet
facet normal 1.0 0.0 0.0
  outer loop
    vertex 1841.8970023987895 -256.5934697907935 52.53253600000006
    vertex 1841.8970023987895 -250.09346979079365 31.882536000000016
    vertex 1841.8970023987895 -251.69561678779485 44.10753600000003
  endloop
endfacet
facet normal 1.0 0.0 0.0
  outer loop
    vertex 1841.8970023987895 -251.69561678779485 44.10753600000003
    vertex 1841.8970023987895 -250.09346979079365 31.882536000000016
    vertex 1841.8970023987895 -251.40161733598876 43.72438845480493
  endloop
endfacet
facet normal 1.0 0.0 0.0
  outer loop
    vertex 1841.8970023987895 -251.40161733598876 43.72438845480493
    vertex 1841.8970023987895 -250.09346979079365 31.882536000000016
    vertex 1841.8970023987895 -251.01846979079363 43.43038900299882
  endloop
endfacet
facet normal 1.0 0.0 0.0
  outer loop
    vertex 1841.8970023987895 -251.01846979079363 43.43038900299882
    vertex 1841.8970023987895 -250.09346979079365 31.882536000000016
    vertex 1841.8970023987895 -250.5722850242333 43.245573221365284
  endloop
endfacet
facet normal 1.0 0.0 0.0
  outer loop
    vertex 1841.8970023987895 -250.5722850242333 43.245573221365284
    vertex 1841.8970023987895 -250.09346979079365 31.882536000000016
    vertex 1841.8970023987895 -250.09346979079365 43.18253600000006
  endloop
endfacet
facet normal 1.0 0.0 0.0
  outer loop
    vertex 1841.8970023987895 -256.5934697907935 52.53253600000006
    vertex 1841.8970023987895 -251.69561678779485 44.10753600000003
    vertex 1841.8970023987895 -251.88043256942842 44.5537207665604
  endloop
endfacet
facet normal 1.0 0.0 0.0
  outer loop
    vertex 1841.8970023987895 -256.5934697907935 52.53253600000006
    vertex 1841.8970023987895 -251.88043256942842 44.5537207665604
    vertex 1841.8970023987895 -251.94346979079364 45.03253600000005
  endloop
endfacet
facet normal 1.0 0.0 0.0
  outer loop
    vertex 1841.8970023987895 -256.5934697907935 52.53253600000006
    vertex 1841.8970023987895 -251.94346979079364 45.03253600000005
    vertex 1841.8970023987895 -251.88043256942842 45.51135123343969
  endloop
endfacet
facet normal 1.0 0.0 0.0
  outer loop
    vertex 1841.8970023987895 -256.5934697907935 52.53253600000006
    vertex 1841.8970023987895 -251.88043256942842 45.51135123343969
    vertex 1841.8970023987895 -251.69561678779485 45.95753600000006
  endloop
endfacet
facet normal 1.0 0.0 0.0
  outer loop
    vertex 1841.8970023987895 -256.5934697907935 52.53253600000006
    vertex 1841.8970023987895 -251.69561678779485 45.95753600000006
    vertex 1841.8970023987895 -251.40161733598876 46.34068354519517
  endloop
endfacet
facet normal 1.0 0.0 0.0
  outer loop
    vertex 1841.8970023987895 -256.5934697907935 52.53253600000006
    vertex 1841.8970023987895 -251.40161733598876 46.34068354519517
    vertex 1841.8970023987895 -251.01846979079363 46.63468299700128
  endloop
endfacet
facet normal 1.0 0.0 0.0
  outer loop
    vertex 1841.8970023987895 -256.5934697907935 52.53253600000006
    vertex 1841.8970023987895 -251.01846979079363 46.63468299700128
    vertex 1841.8970023987895 -250.5722850242333 46.81949877863481
  endloop
endfacet
facet normal 1.0 0.0 0.0
  outer loop
    vertex 1841.8970023987895 -256.5934697907935 52.53253600000006
    vertex 1841.8970023987895 -250.5722850242333 46.81949877863481
    vertex 1841.8970023987895 -250.09346979079365 46.88253600000003
  endloop
endfacet
facet normal 1.0 0.0 0.0
  outer loop
    vertex 1841.8970023987895 -256.5934697907935 52.53253600000006
    vertex 1841.8970023987895 -250.09346979079365 46.88253600000003
    vertex 1841.8970023987895 -243.59346979079373 52.53253600000006
  endloop
endfacet
facet normal -1.0 0.0 -1.6653345369377348e-16
  outer loop
    vertex 1661.2621473987892 -256.5934697907935 52.532535999999986
    vertex 1661.2621473987892 -243.59346979079373 22.53253599999999
    vertex 1661.2621473987892 -256.5934697907935 22.53253599999999
  endloop
endfacet
facet normal -1.0 0.0 -1.6653345369377348e-16
  outer loop
    vertex 1661.2621473987892 -243.59346979079373 22.53253599999999
    vertex 1661.2621473987892 -256.5934697907935 52.532535999999986
    vertex 1661.2621473987892 -243.59346979079373 52.532535999999986
  endloop
endfacet
facet normal -1.6653345369377348e-16 0.0 1.0
  outer loop
    vertex 1841.8970023987895 -243.59346979079373 52.53253600000006
    vertex 1819.058263964174 -256.5934697907935 52.53253600000006
    vertex 1841.8970023987895 -256.5934697907935 52.53253600000006
  endloop
endfacet
facet normal -1.6653345369377348e-16 0.0 1.0
  outer loop
    vertex 1819.058263964174 -256.5934697907935 52.53253600000006
    vertex 1841.8970023987895 -243.59346979079373 52.53253600000006
    vertex 1819.058263964174 -243.59346979079373 52.53253600000006
  endloop
endfacet
facet normal 1.0 0.0 1.6653345369377348e-16
  outer loop
    vertex 1687.2621473987895 -243.59346979079373 52.53253599999994
    vertex 1687.2621473987895 -256.5934697907935 45.362536000000006
    vertex 1687.2621473987895 -243.59346979079373 45.362536000000006
  endloop
endfacet
facet normal 1.0 0.0 1.6653345369377348e-16
  outer loop
    vertex 1687.2621473987895 -256.5934697907935 45.362536000000006
    vertex 1687.2621473987895 -243.59346979079373 52.53253599999994
    vertex 1687.2621473987895 -256.5934697907935 52.53253599999994
  endloop
endfacet
facet normal -1.0 0.0 -1.6653345369377348e-16
  outer loop
    vertex 1819.058263964174 -256.5934697907935 52.53253600000006
    vertex 1819.058263964174 -243.59346979079373 45.36253600000003
    vertex 1819.058263964174 -256.5934697907935 45.36253600000003
  endloop
endfacet
facet normal -1.0 0.0 -1.6653345369377348e-16
  outer loop
    vertex 1819.058263964174 -243.59346979079373 45.36253600000003
    vertex 1819.058263964174 -256.5934697907935 52.53253600000006
    vertex 1819.058263964174 -243.59346979079373 52.53253600000006
  endloop
endfacet
facet normal 1.6653345369377348e-16 0.0 -1.0
  outer loop
    vertex 1661.2621473987892 -243.59346979079373 22.53253599999999
    vertex 1841.8970023987895 -256.5934697907935 22.53253600000002
    vertex 1661.2621473987892 -256.5934697907935 22.53253599999999
  endloop
endfacet
facet normal 1.6653345369377348e-16 0.0 -1.0
  outer loop
    vertex 1841.8970023987895 -256.5934697907935 22.53253600000002
    vertex 1661.2621473987892 -243.59346979079373 22.53253599999999
    vertex 1841.8970023987895 -243.59346979079373 22.53253600000002
  endloop
endfacet
facet normal 0.0 1.0 0.0
  outer loop
    vertex 1841.8970023987895 -243.59346979079373 22.53253600000002
    vertex 1819.058263964174 -243.59346979079373 45.36253600000003
    vertex 1841.8970023987895 -243.59346979079373 52.53253600000006
  endloop
endfacet
facet normal 0.0 1.0 0.0
  outer loop
    vertex 1819.058263964174 -243.59346979079373 45.36253600000003
    vertex 1841.8970023987895 -243.59346979079373 22.53253600000002
    vertex 1661.2621473987892 -243.59346979079373 22.53253599999999
  endloop
endfacet
facet normal 0.0 1.0 0.0
  outer loop
    vertex 1819.058263964174 -243.59346979079373 45.36253600000003
    vertex 1661.2621473987892 -243.59346979079373 22.53253599999999
    vertex 1804.3302279641744 -243.59346979079373 45.36253600000002
  endloop
endfacet
facet normal 0.0 1.0 0.0
  outer loop
    vertex 1804.3302279641744 -243.59346979079373 45.36253600000002
    vertex 1661.2621473987892 -243.59346979079373 22.53253599999999
    vertex 1804.3302279641744 -243.59346979079373 52.532536000000015
  endloop
endfacet
facet normal 0.0 1.0 0.0
  outer loop
    vertex 1804.3302279641744 -243.59346979079373 52.532536000000015
    vertex 1661.2621473987892 -243.59346979079373 22.53253599999999
    vertex 1750.2621473987897 -243.59346979079373 45.36253600000001
  endloop
endfacet
facet normal 0.0 1.0 0.0
  outer loop
    vertex 1750.2621473987897 -243.59346979079373 45.36253600000001
    vertex 1661.2621473987892 -243.59346979079373 22.53253599999999
    vertex 1687.2621473987895 -243.59346979079373 45.362536000000006
  endloop
endfacet
facet normal 0.0 1.0 0.0
  outer loop
    vertex 1687.2621473987895 -243.59346979079373 45.362536000000006
    vertex 1661.2621473987892 -243.59346979079373 22.53253599999999
    vertex 1687.2621473987895 -243.59346979079373 52.53253599999994
  endloop
endfacet
facet normal 0.0 1.0 0.0
  outer loop
    vertex 1687.2621473987895 -243.59346979079373 52.53253599999994
    vertex 1661.2621473987892 -243.59346979079373 22.53253599999999
    vertex 1661.2621473987892 -243.59346979079373 52.532535999999986
  endloop
endfacet
facet normal 0.0 1.0 0.0
  outer loop
    vertex 1750.2621473987897 -243.59346979079373 52.532535999999986
    vertex 1804.3302279641744 -243.59346979079373 52.532536000000015
    vertex 1750.2621473987897 -243.59346979079373 45.36253600000001
  endloop
endfacet
facet normal 0.0 1.0 0.0
  outer loop
    vertex 1819.058263964174 -243.59346979079373 52.53253600000006
    vertex 1841.8970023987895 -243.59346979079373 52.53253600000006
    vertex 1819.058263964174 -243.59346979079373 45.36253600000003
  endloop
endfacet
facet normal -1.6653345369377348e-16 0.0 1.0
  outer loop
    vertex 1819.058263964174 -243.59346979079373 45.36253600000003
    vertex 1804.3302279641744 -256.5934697907935 45.36253600000002
    vertex 1819.058263964174 -256.5934697907935 45.36253600000003
  endloop
endfacet
facet normal -1.6653345369377348e-16 0.0 1.0
  outer loop
    vertex 1804.3302279641744 -256.5934697907935 45.36253600000002
    vertex 1819.058263964174 -243.59346979079373 45.36253600000003
    vertex 1804.3302279641744 -243.59346979079373 45.36253600000002
  endloop
endfacet
facet normal -1.6653345369377348e-16 0.0 1.0
  outer loop
    vertex 1750.2621473987897 -243.59346979079373 45.36253600000001
    vertex 1687.2621473987895 -256.5934697907935 45.362536000000006
    vertex 1750.2621473987897 -256.5934697907935 45.36253600000001
  endloop
endfacet
facet normal -1.6653345369377348e-16 0.0 1.0
  outer loop
    vertex 1687.2621473987895 -256.5934697907935 45.362536000000006
    vertex 1750.2621473987897 -243.59346979079373 45.36253600000001
    vertex 1687.2621473987895 -243.59346979079373 45.362536000000006
  endloop
endfacet
facet normal -1.6653345369377348e-16 0.0 1.0
  outer loop
    vertex 1804.3302279641744 -243.59346979079373 52.532536000000015
    vertex 1750.2621473987897 -256.5934697907935 52.532535999999986
    vertex 1804.3302279641744 -256.5934697907935 52.532536000000015
  endloop
endfacet
facet normal -1.6653345369377348e-16 0.0 1.0
  outer loop
    vertex 1750.2621473987897 -256.5934697907935 52.532535999999986
    vertex 1804.3302279641744 -243.59346979079373 52.532536000000015
    vertex 1750.2621473987897 -243.59346979079373 52.532535999999986
  endloop
endfacet
facet normal 1.0 0.0 1.6653345369377348e-16
  outer loop
    vertex 1804.3302279641744 -243.59346979079373 52.532536000000015
    vertex 1804.3302279641744 -256.5934697907935 45.36253600000002
    vertex 1804.3302279641744 -243.59346979079373 45.36253600000002
  endloop
endfacet
facet normal 1.0 0.0 1.6653345369377348e-16
  outer loop
    vertex 1804.3302279641744 -256.5934697907935 45.36253600000002
    vertex 1804.3302279641744 -243.59346979079373 52.532536000000015
    vertex 1804.3302279641744 -256.5934697907935 52.532536000000015
  endloop
endfacet
facet normal -0.0 -1.0 0.0
  outer loop
    vertex 1750.2621473987897 -256.5934697907935 52.532535999999986
    vertex 1804.3302279641744 -256.5934697907935 45.36253600000002
    vertex 1804.3302279641744 -256.5934697907935 52.532536000000015
  endloop
endfacet
facet normal -0.0 -1.0 0.0
  outer loop
    vertex 1661.2621473987892 -256.5934697907935 52.532535999999986
    vertex 1687.2621473987895 -256.5934697907935 45.362536000000006
    vertex 1687.2621473987895 -256.5934697907935 52.53253599999994
  endloop
endfacet
facet normal -0.0 -1.0 0.0
  outer loop
    vertex 1819.058263964174 -256.5934697907935 52.53253600000006
    vertex 1841.8970023987895 -256.5934697907935 22.53253600000002
    vertex 1841.8970023987895 -256.5934697907935 52.53253600000006
  endloop
endfacet
facet normal -0.0 -1.0 0.0
  outer loop
    vertex 1841.8970023987895 -256.5934697907935 22.53253600000002
    vertex 1819.058263964174 -256.5934697907935 52.53253600000006
    vertex 1819.058263964174 -256.5934697907935 45.36253600000003
  endloop
endfacet
facet normal -0.0 -1.0 0.0
  outer loop
    vertex 1841.8970023987895 -256.5934697907935 22.53253600000002
    vertex 1819.058263964174 -256.5934697907935 45.36253600000003
    vertex 1661.2621473987892 -256.5934697907935 22.53253599999999
  endloop
endfacet
facet normal -0.0 -1.0 0.0
  outer loop
    vertex 1661.2621473987892 -256.5934697907935 22.53253599999999
    vertex 1819.058263964174 -256.5934697907935 45.36253600000003
    vertex 1804.3302279641744 -256.5934697907935 45.36253600000002
  endloop
endfacet
facet normal -0.0 -1.0 0.0
  outer loop
    vertex 1661.2621473987892 -256.5934697907935 22.53253599999999
    vertex 1804.3302279641744 -256.5934697907935 45.36253600000002
    vertex 1750.2621473987897 -256.5934697907935 45.36253600000001
  endloop
endfacet
facet normal -0.0 -1.0 0.0
  outer loop
    vertex 1750.2621473987897 -256.5934697907935 45.36253600000001
    vertex 1804.3302279641744 -256.5934697907935 45.36253600000002
    vertex 1750.2621473987897 -256.5934697907935 52.532535999999986
  endloop
endfacet
facet normal -0.0 -1.0 0.0
  outer loop
    vertex 1661.2621473987892 -256.5934697907935 22.53253599999999
    vertex 1750.2621473987897 -256.5934697907935 45.36253600000001
    vertex 1687.2621473987895 -256.5934697907935 45.362536000000006
  endloop
endfacet
facet normal -0.0 -1.0 0.0
  outer loop
    vertex 1661.2621473987892 -256.5934697907935 22.53253599999999
    vertex 1687.2621473987895 -256.5934697907935 45.362536000000006
    vertex 1661.2621473987892 -256.5934697907935 52.532535999999986
  endloop
endfacet
facet normal -1.0 0.0 -1.6653345369377348e-16
  outer loop
    vertex 1750.2621473987897 -256.5934697907935 52.532535999999986
    vertex 1750.2621473987897 -243.59346979079373 45.36253600000001
    vertex 1750.2621473987897 -256.5934697907935 45.36253600000001
  endloop
endfacet
facet normal -1.0 0.0 -1.6653345369377348e-16
  outer loop
    vertex 1750.2621473987897 -243.59346979079373 45.36253600000001
    vertex 1750.2621473987897 -256.5934697907935 52.532535999999986
    vertex 1750.2621473987897 -243.59346979079373 52.532535999999986
  endloop
endfacet
facet normal 1.0 0.0 1.6653345369377348e-16
  outer loop
    vertex 1821.8970023987895 -249.61465455735396 43.245573221365284
    vertex 1821.8970023987895 -250.5722850242333 43.245573221365284
    vertex 1821.8970023987895 -250.09346979079365 43.18253600000006
  endloop
endfacet
facet normal 1.0 0.0 1.6653345369377348e-16
  outer loop
    vertex 1821.8970023987895 -250.5722850242333 43.245573221365284
    vertex 1821.8970023987895 -249.61465455735396 43.245573221365284
    vertex 1821.8970023987895 -249.16846979079364 43.43038900299882
  endloop
endfacet
facet normal 1.0 0.0 1.6653345369377348e-16
  outer loop
    vertex 1821.8970023987895 -250.5722850242333 43.245573221365284
    vertex 1821.8970023987895 -249.16846979079364 43.43038900299882
    vertex 1821.8970023987895 -251.01846979079363 43.43038900299882
  endloop
endfacet
facet normal 1.0 0.0 1.6653345369377348e-16
  outer loop
    vertex 1821.8970023987895 -251.01846979079363 43.43038900299882
    vertex 1821.8970023987895 -249.16846979079364 43.43038900299882
    vertex 1821.8970023987895 -248.78532224559854 43.72438845480493
  endloop
endfacet
facet normal 1.0 0.0 1.6653345369377348e-16
  outer loop
    vertex 1821.8970023987895 -251.01846979079363 43.43038900299882
    vertex 1821.8970023987895 -248.78532224559854 43.72438845480493
    vertex 1821.8970023987895 -251.40161733598876 43.72438845480493
  endloop
endfacet
facet normal 1.0 0.0 1.6653345369377348e-16
  outer loop
    vertex 1821.8970023987895 -251.40161733598876 43.72438845480493
    vertex 1821.8970023987895 -248.78532224559854 43.72438845480493
    vertex 1821.8970023987895 -248.49132279379242 44.10753600000003
  endloop
endfacet
facet normal 1.0 0.0 1.6653345369377348e-16
  outer loop
    vertex 1821.8970023987895 -251.40161733598876 43.72438845480493
    vertex 1821.8970023987895 -248.49132279379242 44.10753600000003
    vertex 1821.8970023987895 -251.69561678779485 44.10753600000003
  endloop
endfacet
facet normal 1.0 0.0 1.6653345369377348e-16
  outer loop
    vertex 1821.8970023987895 -251.69561678779485 44.10753600000003
    vertex 1821.8970023987895 -248.49132279379242 44.10753600000003
    vertex 1821.8970023987895 -248.30650701215885 44.5537207665604
  endloop
endfacet
facet normal 1.0 0.0 1.6653345369377348e-16
  outer loop
    vertex 1821.8970023987895 -251.69561678779485 44.10753600000003
    vertex 1821.8970023987895 -248.30650701215885 44.5537207665604
    vertex 1821.8970023987895 -251.88043256942842 44.5537207665604
  endloop
endfacet
facet normal 1.0 0.0 1.6653345369377348e-16
  outer loop
    vertex 1821.8970023987895 -251.88043256942842 44.5537207665604
    vertex 1821.8970023987895 -248.30650701215885 44.5537207665604
    vertex 1821.8970023987895 -248.24346979079363 45.03253600000005
  endloop
endfacet
facet normal 1.0 0.0 1.6653345369377348e-16
  outer loop
    vertex 1821.8970023987895 -251.88043256942842 44.5537207665604
    vertex 1821.8970023987895 -248.24346979079363 45.03253600000005
    vertex 1821.8970023987895 -251.94346979079364 45.03253600000005
  endloop
endfacet
facet normal 1.0 0.0 1.6653345369377348e-16
  outer loop
    vertex 1821.8970023987895 -251.94346979079364 45.03253600000005
    vertex 1821.8970023987895 -248.24346979079363 45.03253600000005
    vertex 1821.8970023987895 -248.30650701215885 45.51135123343969
  endloop
endfacet
facet normal 1.0 0.0 1.6653345369377348e-16
  outer loop
    vertex 1821.8970023987895 -251.94346979079364 45.03253600000005
    vertex 1821.8970023987895 -248.30650701215885 45.51135123343969
    vertex 1821.8970023987895 -251.88043256942842 45.51135123343969
  endloop
endfacet
facet normal 1.0 0.0 1.6653345369377348e-16
  outer loop
    vertex 1821.8970023987895 -251.88043256942842 45.51135123343969
    vertex 1821.8970023987895 -248.30650701215885 45.51135123343969
    vertex 1821.8970023987895 -248.49132279379242 45.95753600000006
  endloop
endfacet
facet normal 1.0 0.0 1.6653345369377348e-16
  outer loop
    vertex 1821.8970023987895 -251.88043256942842 45.51135123343969
    vertex 1821.8970023987895 -248.49132279379242 45.95753600000006
    vertex 1821.8970023987895 -251.69561678779485 45.95753600000006
  endloop
endfacet
facet normal 1.0 0.0 1.6653345369377348e-16
  outer loop
    vertex 1821.8970023987895 -251.69561678779485 45.95753600000006
    vertex 1821.8970023987895 -248.49132279379242 45.95753600000006
    vertex 1821.8970023987895 -248.78532224559854 46.34068354519517
  endloop
endfacet
facet normal 1.0 0.0 1.6653345369377348e-16
  outer loop
    vertex 1821.8970023987895 -251.69561678779485 45.95753600000006
    vertex 1821.8970023987895 -248.78532224559854 46.34068354519517
    vertex 1821.8970023987895 -251.40161733598876 46.34068354519517
  endloop
endfacet
facet normal 1.0 0.0 1.6653345369377348e-16
  outer loop
    vertex 1821.8970023987895 -251.40161733598876 46.34068354519517
    vertex 1821.8970023987895 -248.78532224559854 46.34068354519517
    vertex 1821.8970023987895 -249.16846979079364 46.63468299700128
  endloop
endfacet
facet normal 1.0 0.0 1.6653345369377348e-16
  outer loop
    vertex 1821.8970023987895 -251.40161733598876 46.34068354519517
    vertex 1821.8970023987895 -249.16846979079364 46.63468299700128
    vertex 1821.8970023987895 -251.01846979079363 46.63468299700128
  endloop
endfacet
facet normal 1.0 0.0 1.6653345369377348e-16
  outer loop
    vertex 1821.8970023987895 -251.01846979079363 46.63468299700128
    vertex 1821.8970023987895 -249.16846979079364 46.63468299700128
    vertex 1821.8970023987895 -249.61465455735396 46.81949877863481
  endloop
endfacet
facet normal 1.0 0.0 1.6653345369377348e-16
  outer loop
    vertex 1821.8970023987895 -251.01846979079363 46.63468299700128
    vertex 1821.8970023987895 -249.61465455735396 46.81949877863481
    vertex 1821.8970023987895 -250.5722850242333 46.81949877863481
  endloop
endfacet
facet normal 1.0 0.0 1.6653345369377348e-16
  outer loop
    vertex 1821.8970023987895 -250.5722850242333 46.81949877863481
    vertex 1821.8970023987895 -249.61465455735396 46.81949877863481
    vertex 1821.8970023987895 -250.09346979079365 46.88253600000003
  endloop
endfacet
facet normal 1.8442795241169157e-17 0.9914448613738096 -0.13052619222005782
  outer loop
    vertex 1821.8970023987895 -251.94346979079364 45.03253600000005
    vertex 1841.8970023987895 -251.88043256942842 45.51135123343969
    vertex 1841.8970023987895 -251.94346979079364 45.03253600000005
  endloop
endfacet
facet normal 1.8442795241169157e-17 0.9914448613738096 -0.13052619222005782
  outer loop
    vertex 1841.8970023987895 -251.88043256942842 45.51135123343969
    vertex 1821.8970023987895 -251.94346979079364 45.03253600000005
    vertex 1821.8970023987895 -251.88043256942842 45.51135123343969
  endloop
endfacet
facet normal -1.8442795241169157e-17 0.9914448613738096 0.13052619222005782
  outer loop
    vertex 1821.8970023987895 -251.88043256942842 44.5537207665604
    vertex 1841.8970023987895 -251.94346979079364 45.03253600000005
    vertex 1841.8970023987895 -251.88043256942842 44.5537207665604
  endloop
endfacet
facet normal -1.8442795241169157e-17 0.9914448613738096 0.13052619222005782
  outer loop
    vertex 1841.8970023987895 -251.94346979079364 45.03253600000005
    vertex 1821.8970023987895 -251.88043256942842 44.5537207665604
    vertex 1821.8970023987895 -251.94346979079364 45.03253600000005
  endloop
endfacet
facet normal -6.372959366314263e-17 0.9238795325112951 0.38268343236506974
  outer loop
    vertex 1821.8970023987895 -251.69561678779485 44.10753600000003
    vertex 1841.8970023987895 -251.88043256942842 44.5537207665604
    vertex 1841.8970023987895 -251.69561678779485 44.10753600000003
  endloop
endfacet
facet normal -6.372959366314263e-17 0.9238795325112951 0.38268343236506974
  outer loop
    vertex 1841.8970023987895 -251.88043256942842 44.5537207665604
    vertex 1821.8970023987895 -251.69561678779485 44.10753600000003
    vertex 1821.8970023987895 -251.88043256942842 44.5537207665604
  endloop
endfacet
facet normal -1.0137914324838045e-16 0.7933533402912292 0.6087614290087284
  outer loop
    vertex 1821.8970023987895 -251.40161733598876 43.72438845480493
    vertex 1841.8970023987895 -251.69561678779485 44.10753600000003
    vertex 1841.8970023987895 -251.40161733598876 43.72438845480493
  endloop
endfacet
facet normal -1.0137914324838045e-16 0.7933533402912292 0.6087614290087284
  outer loop
    vertex 1841.8970023987895 -251.69561678779485 44.10753600000003
    vertex 1821.8970023987895 -251.40161733598876 43.72438845480493
    vertex 1821.8970023987895 -251.69561678779485 44.10753600000003
  endloop
endfacet
facet normal -1.3211987175818948e-16 0.6087614290087319 0.7933533402912265
  outer loop
    vertex 1841.8970023987895 -251.01846979079363 43.43038900299882
    vertex 1821.8970023987895 -251.40161733598876 43.72438845480493
    vertex 1841.8970023987895 -251.40161733598876 43.72438845480493
  endloop
endfacet
facet normal -1.3211987175818948e-16 0.6087614290087319 0.7933533402912265
  outer loop
    vertex 1821.8970023987895 -251.40161733598876 43.72438845480493
    vertex 1841.8970023987895 -251.01846979079363 43.43038900299882
    vertex 1821.8970023987895 -251.01846979079363 43.43038900299882
  endloop
endfacet
facet normal -1.5385684934609732e-16 0.38268343236503477 0.9238795325113097
  outer loop
    vertex 1841.8970023987895 -250.5722850242333 43.245573221365284
    vertex 1821.8970023987895 -251.01846979079363 43.43038900299882
    vertex 1841.8970023987895 -251.01846979079363 43.43038900299882
  endloop
endfacet
facet normal -1.5385684934609732e-16 0.38268343236503477 0.9238795325113097
  outer loop
    vertex 1821.8970023987895 -251.01846979079363 43.43038900299882
    vertex 1841.8970023987895 -250.5722850242333 43.245573221365284
    vertex 1821.8970023987895 -250.5722850242333 43.245573221365284
  endloop
endfacet
facet normal -1.6510873691152511e-16 0.13052619222005177 0.9914448613738104
  outer loop
    vertex 1841.8970023987895 -250.09346979079365 43.18253600000006
    vertex 1821.8970023987895 -250.5722850242333 43.245573221365284
    vertex 1841.8970023987895 -250.5722850242333 43.245573221365284
  endloop
endfacet
facet normal -1.6510873691152511e-16 0.13052619222005177 0.9914448613738104
  outer loop
    vertex 1821.8970023987895 -250.5722850242333 43.245573221365284
    vertex 1841.8970023987895 -250.09346979079365 43.18253600000006
    vertex 1821.8970023987895 -250.09346979079365 43.18253600000006
  endloop
endfacet
facet normal -1.6510873691152511e-16 -0.13052619222005177 0.9914448613738104
  outer loop
    vertex 1841.8970023987895 -249.61465455735396 43.245573221365284
    vertex 1821.8970023987895 -250.09346979079365 43.18253600000006
    vertex 1841.8970023987895 -250.09346979079365 43.18253600000006
  endloop
endfacet
facet normal -1.6510873691152511e-16 -0.13052619222005177 0.9914448613738104
  outer loop
    vertex 1821.8970023987895 -250.09346979079365 43.18253600000006
    vertex 1841.8970023987895 -249.61465455735396 43.245573221365284
    vertex 1821.8970023987895 -249.61465455735396 43.245573221365284
  endloop
endfacet
facet normal -1.538568493460967e-16 -0.38268343236504293 0.9238795325113062
  outer loop
    vertex 1841.8970023987895 -249.16846979079364 43.43038900299882
    vertex 1821.8970023987895 -249.61465455735396 43.245573221365284
    vertex 1841.8970023987895 -249.61465455735396 43.245573221365284
  endloop
endfacet
facet normal -1.538568493460967e-16 -0.38268343236504293 0.9238795325113062
  outer loop
    vertex 1821.8970023987895 -249.61465455735396 43.245573221365284
    vertex 1841.8970023987895 -249.16846979079364 43.43038900299882
    vertex 1821.8970023987895 -249.16846979079364 43.43038900299882
  endloop
endfacet
facet normal -1.3211987175818948e-16 -0.6087614290087319 0.7933533402912265
  outer loop
    vertex 1841.8970023987895 -248.78532224559854 43.72438845480493
    vertex 1821.8970023987895 -249.16846979079364 43.43038900299882
    vertex 1841.8970023987895 -249.16846979079364 43.43038900299882
  endloop
endfacet
facet normal -1.3211987175818948e-16 -0.6087614290087319 0.7933533402912265
  outer loop
    vertex 1821.8970023987895 -249.16846979079364 43.43038900299882
    vertex 1841.8970023987895 -248.78532224559854 43.72438845480493
    vertex 1821.8970023987895 -248.78532224559854 43.72438845480493
  endloop
endfacet
facet normal -1.0137914324838045e-16 -0.7933533402912292 0.6087614290087284
  outer loop
    vertex 1821.8970023987895 -248.49132279379242 44.10753600000003
    vertex 1841.8970023987895 -248.78532224559854 43.72438845480493
    vertex 1841.8970023987895 -248.49132279379242 44.10753600000003
  endloop
endfacet
facet normal -1.0137914324838045e-16 -0.7933533402912292 0.6087614290087284
  outer loop
    vertex 1841.8970023987895 -248.78532224559854 43.72438845480493
    vertex 1821.8970023987895 -248.49132279379242 44.10753600000003
    vertex 1821.8970023987895 -248.78532224559854 43.72438845480493
  endloop
endfacet
facet normal -6.372959366314263e-17 -0.9238795325112951 0.38268343236506974
  outer loop
    vertex 1821.8970023987895 -248.30650701215885 44.5537207665604
    vertex 1841.8970023987895 -248.49132279379242 44.10753600000003
    vertex 1841.8970023987895 -248.30650701215885 44.5537207665604
  endloop
endfacet
facet normal -6.372959366314263e-17 -0.9238795325112951 0.38268343236506974
  outer loop
    vertex 1841.8970023987895 -248.49132279379242 44.10753600000003
    vertex 1821.8970023987895 -248.30650701215885 44.5537207665604
    vertex 1821.8970023987895 -248.49132279379242 44.10753600000003
  endloop
endfacet
facet normal -2.1736977587903577e-17 -0.9914448613738096 0.13052619222005782
  outer loop
    vertex 1821.8970023987895 -248.24346979079363 45.03253600000005
    vertex 1841.8970023987895 -248.30650701215885 44.5537207665604
    vertex 1841.8970023987895 -248.24346979079363 45.03253600000005
  endloop
endfacet
facet normal -2.1736977587903577e-17 -0.9914448613738096 0.13052619222005782
  outer loop
    vertex 1841.8970023987895 -248.30650701215885 44.5537207665604
    vertex 1821.8970023987895 -248.24346979079363 45.03253600000005
    vertex 1821.8970023987895 -248.30650701215885 44.5537207665604
  endloop
endfacet
facet normal 2.1736977587903577e-17 -0.9914448613738096 -0.13052619222005782
  outer loop
    vertex 1821.8970023987895 -248.30650701215885 45.51135123343969
    vertex 1841.8970023987895 -248.24346979079363 45.03253600000005
    vertex 1841.8970023987895 -248.30650701215885 45.51135123343969
  endloop
endfacet
facet normal 2.1736977587903577e-17 -0.9914448613738096 -0.13052619222005782
  outer loop
    vertex 1841.8970023987895 -248.24346979079363 45.03253600000005
    vertex 1821.8970023987895 -248.30650701215885 45.51135123343969
    vertex 1821.8970023987895 -248.24346979079363 45.03253600000005
  endloop
endfacet
facet normal 6.372959366314263e-17 -0.9238795325112951 -0.38268343236506974
  outer loop
    vertex 1821.8970023987895 -248.49132279379242 45.95753600000006
    vertex 1841.8970023987895 -248.30650701215885 45.51135123343969
    vertex 1841.8970023987895 -248.49132279379242 45.95753600000006
  endloop
endfacet
facet normal 6.372959366314263e-17 -0.9238795325112951 -0.38268343236506974
  outer loop
    vertex 1841.8970023987895 -248.30650701215885 45.51135123343969
    vertex 1821.8970023987895 -248.49132279379242 45.95753600000006
    vertex 1821.8970023987895 -248.30650701215885 45.51135123343969
  endloop
endfacet
facet normal 1.0137914324838045e-16 -0.7933533402912292 -0.6087614290087284
  outer loop
    vertex 1821.8970023987895 -248.78532224559854 46.34068354519517
    vertex 1841.8970023987895 -248.49132279379242 45.95753600000006
    vertex 1841.8970023987895 -248.78532224559854 46.34068354519517
  endloop
endfacet
facet normal 1.0137914324838045e-16 -0.7933533402912292 -0.6087614290087284
  outer loop
    vertex 1841.8970023987895 -248.49132279379242 45.95753600000006
    vertex 1821.8970023987895 -248.78532224559854 46.34068354519517
    vertex 1821.8970023987895 -248.49132279379242 45.95753600000006
  endloop
endfacet
facet normal 1.3211987175818948e-16 -0.6087614290087319 -0.7933533402912265
  outer loop
    vertex 1821.8970023987895 -248.78532224559854 46.34068354519517
    vertex 1841.8970023987895 -249.16846979079364 46.63468299700128
    vertex 1821.8970023987895 -249.16846979079364 46.63468299700128
  endloop
endfacet
facet normal 1.3211987175818948e-16 -0.6087614290087319 -0.7933533402912265
  outer loop
    vertex 1841.8970023987895 -249.16846979079364 46.63468299700128
    vertex 1821.8970023987895 -248.78532224559854 46.34068354519517
    vertex 1841.8970023987895 -248.78532224559854 46.34068354519517
  endloop
endfacet
facet normal 1.538568493460967e-16 -0.38268343236504293 -0.9238795325113062
  outer loop
    vertex 1821.8970023987895 -249.16846979079364 46.63468299700128
    vertex 1841.8970023987895 -249.61465455735396 46.81949877863481
    vertex 1821.8970023987895 -249.61465455735396 46.81949877863481
  endloop
endfacet
facet normal 1.538568493460967e-16 -0.38268343236504293 -0.9238795325113062
  outer loop
    vertex 1841.8970023987895 -249.61465455735396 46.81949877863481
    vertex 1821.8970023987895 -249.16846979079364 46.63468299700128
    vertex 1841.8970023987895 -249.16846979079364 46.63468299700128
  endloop
endfacet
facet normal 1.6510873691152511e-16 -0.13052619222005177 -0.9914448613738104
  outer loop
    vertex 1821.8970023987895 -249.61465455735396 46.81949877863481
    vertex 1841.8970023987895 -250.09346979079365 46.88253600000003
    vertex 1821.8970023987895 -250.09346979079365 46.88253600000003
  endloop
endfacet
facet normal 1.6510873691152511e-16 -0.13052619222005177 -0.9914448613738104
  outer loop
    vertex 1841.8970023987895 -250.09346979079365 46.88253600000003
    vertex 1821.8970023987895 -249.61465455735396 46.81949877863481
    vertex 1841.8970023987895 -249.61465455735396 46.81949877863481
  endloop
endfacet
facet normal 1.6510873691152511e-16 0.13052619222005177 -0.9914448613738104
  outer loop
    vertex 1821.8970023987895 -250.09346979079365 46.88253600000003
    vertex 1841.8970023987895 -250.5722850242333 46.81949877863481
    vertex 1821.8970023987895 -250.5722850242333 46.81949877863481
  endloop
endfacet
facet normal 1.6510873691152511e-16 0.13052619222005177 -0.9914448613738104
  outer loop
    vertex 1841.8970023987895 -250.5722850242333 46.81949877863481
    vertex 1821.8970023987895 -250.09346979079365 46.88253600000003
    vertex 1841.8970023987895 -250.09346979079365 46.88253600000003
  endloop
endfacet
facet normal 1.5385684934609732e-16 0.38268343236503477 -0.9238795325113097
  outer loop
    vertex 1821.8970023987895 -250.5722850242333 46.81949877863481
    vertex 1841.8970023987895 -251.01846979079363 46.63468299700128
    vertex 1821.8970023987895 -251.01846979079363 46.63468299700128
  endloop
endfacet
facet normal 1.5385684934609732e-16 0.38268343236503477 -0.9238795325113097
  outer loop
    vertex 1841.8970023987895 -251.01846979079363 46.63468299700128
    vertex 1821.8970023987895 -250.5722850242333 46.81949877863481
    vertex 1841.8970023987895 -250.5722850242333 46.81949877863481
  endloop
endfacet
facet normal 1.3211987175818948e-16 0.6087614290087319 -0.7933533402912265
  outer loop
    vertex 1821.8970023987895 -251.01846979079363 46.63468299700128
    vertex 1841.8970023987895 -251.40161733598876 46.34068354519517
    vertex 1821.8970023987895 -251.40161733598876 46.34068354519517
  endloop
endfacet
facet normal 1.3211987175818948e-16 0.6087614290087319 -0.7933533402912265
  outer loop
    vertex 1841.8970023987895 -251.40161733598876 46.34068354519517
    vertex 1821.8970023987895 -251.01846979079363 46.63468299700128
    vertex 1841.8970023987895 -251.01846979079363 46.63468299700128
  endloop
endfacet
facet normal 1.0137914324838045e-16 0.7933533402912292 -0.6087614290087284
  outer loop
    vertex 1821.8970023987895 -251.69561678779485 45.95753600000006
    vertex 1841.8970023987895 -251.40161733598876 46.34068354519517
    vertex 1841.8970023987895 -251.69561678779485 45.95753600000006
  endloop
endfacet
facet normal 1.0137914324838045e-16 0.7933533402912292 -0.6087614290087284
  outer loop
    vertex 1841.8970023987895 -251.40161733598876 46.34068354519517
    vertex 1821.8970023987895 -251.69561678779485 45.95753600000006
    vertex 1821.8970023987895 -251.40161733598876 46.34068354519517
  endloop
endfacet
facet normal 6.372959366314263e-17 0.9238795325112951 -0.38268343236506974
  outer loop
    vertex 1821.8970023987895 -251.88043256942842 45.51135123343969
    vertex 1841.8970023987895 -251.69561678779485 45.95753600000006
    vertex 1841.8970023987895 -251.88043256942842 45.51135123343969
  endloop
endfacet
facet normal 6.372959366314263e-17 0.9238795325112951 -0.38268343236506974
  outer loop
    vertex 1841.8970023987895 -251.69561678779485 45.95753600000006
    vertex 1821.8970023987895 -251.88043256942842 45.51135123343969
    vertex 1821.8970023987895 -251.69561678779485 45.95753600000006
  endloop
endfacet
facet normal 1.0 7.745031373453682e-31 1.6653345369377348e-16
  outer loop
    vertex 1821.8970023987895 -249.61465455735396 28.245573221365262
    vertex 1821.8970023987895 -250.5722850242333 28.245573221365262
    vertex 1821.8970023987895 -250.09346979079365 28.182536000000038
  endloop
endfacet
facet normal 1.0 7.745031373453682e-31 1.6653345369377348e-16
  outer loop
    vertex 1821.8970023987895 -250.5722850242333 28.245573221365262
    vertex 1821.8970023987895 -249.61465455735396 28.245573221365262
    vertex 1821.8970023987895 -249.16846979079364 28.430389002998798
  endloop
endfacet
facet normal 1.0 7.745031373453682e-31 1.6653345369377348e-16
  outer loop
    vertex 1821.8970023987895 -250.5722850242333 28.245573221365262
    vertex 1821.8970023987895 -249.16846979079364 28.430389002998798
    vertex 1821.8970023987895 -251.01846979079363 28.430389002998798
  endloop
endfacet
facet normal 1.0 7.745031373453682e-31 1.6653345369377348e-16
  outer loop
    vertex 1821.8970023987895 -251.01846979079363 28.430389002998798
    vertex 1821.8970023987895 -249.16846979079364 28.430389002998798
    vertex 1821.8970023987895 -248.78532224559854 28.724388454804906
  endloop
endfacet
facet normal 1.0 7.745031373453682e-31 1.6653345369377348e-16
  outer loop
    vertex 1821.8970023987895 -251.01846979079363 28.430389002998798
    vertex 1821.8970023987895 -248.78532224559854 28.724388454804906
    vertex 1821.8970023987895 -251.40161733598876 28.724388454804906
  endloop
endfacet
facet normal 1.0 7.745031373453682e-31 1.6653345369377348e-16
  outer loop
    vertex 1821.8970023987895 -251.40161733598876 28.724388454804906
    vertex 1821.8970023987895 -248.78532224559854 28.724388454804906
    vertex 1821.8970023987895 -248.49132279379242 29.107536000000014
  endloop
endfacet
facet normal 1.0 7.745031373453682e-31 1.6653345369377348e-16
  outer loop
    vertex 1821.8970023987895 -251.40161733598876 28.724388454804906
    vertex 1821.8970023987895 -248.49132279379242 29.107536000000014
    vertex 1821.8970023987895 -251.69561678779485 29.107536000000014
  endloop
endfacet
facet normal 1.0 7.745031373453682e-31 1.6653345369377348e-16
  outer loop
    vertex 1821.8970023987895 -251.69561678779485 29.107536000000014
    vertex 1821.8970023987895 -248.49132279379242 29.107536000000014
    vertex 1821.8970023987895 -248.30650701215885 29.55372076656039
  endloop
endfacet
facet normal 1.0 7.745031373453682e-31 1.6653345369377348e-16
  outer loop
    vertex 1821.8970023987895 -251.69561678779485 29.107536000000014
    vertex 1821.8970023987895 -248.30650701215885 29.55372076656039
    vertex 1821.8970023987895 -251.88043256942842 29.55372076656039
  endloop
endfacet
facet normal 1.0 7.745031373453682e-31 1.6653345369377348e-16
  outer loop
    vertex 1821.8970023987895 -251.88043256942842 29.55372076656039
    vertex 1821.8970023987895 -248.30650701215885 29.55372076656039
    vertex 1821.8970023987895 -248.24346979079363 30.03253600000003
  endloop
endfacet
facet normal 1.0 7.745031373453682e-31 1.6653345369377348e-16
  outer loop
    vertex 1821.8970023987895 -251.88043256942842 29.55372076656039
    vertex 1821.8970023987895 -248.24346979079363 30.03253600000003
    vertex 1821.8970023987895 -251.94346979079364 30.03253600000003
  endloop
endfacet
facet normal 1.0 7.745031373453682e-31 1.6653345369377348e-16
  outer loop
    vertex 1821.8970023987895 -251.94346979079364 30.03253600000003
    vertex 1821.8970023987895 -248.24346979079363 30.03253600000003
    vertex 1821.8970023987895 -248.30650701215885 30.511351233439672
  endloop
endfacet
facet normal 1.0 7.745031373453682e-31 1.6653345369377348e-16
  outer loop
    vertex 1821.8970023987895 -251.94346979079364 30.03253600000003
    vertex 1821.8970023987895 -248.30650701215885 30.511351233439672
    vertex 1821.8970023987895 -251.88043256942842 30.511351233439672
  endloop
endfacet
facet normal 1.0 7.745031373453682e-31 1.6653345369377348e-16
  outer loop
    vertex 1821.8970023987895 -251.88043256942842 30.511351233439672
    vertex 1821.8970023987895 -248.30650701215885 30.511351233439672
    vertex 1821.8970023987895 -248.49132279379242 30.957536000000047
  endloop
endfacet
facet normal 1.0 7.745031373453682e-31 1.6653345369377348e-16
  outer loop
    vertex 1821.8970023987895 -251.88043256942842 30.511351233439672
    vertex 1821.8970023987895 -248.49132279379242 30.957536000000047
    vertex 1821.8970023987895 -251.69561678779485 30.957536000000047
  endloop
endfacet
facet normal 1.0 7.745031373453682e-31 1.6653345369377348e-16
  outer loop
    vertex 1821.8970023987895 -251.69561678779485 30.957536000000047
    vertex 1821.8970023987895 -248.49132279379242 30.957536000000047
    vertex 1821.8970023987895 -248.78532224559854 31.340683545195148
  endloop
endfacet
facet normal 1.0 7.745031373453682e-31 1.6653345369377348e-16
  outer loop
    vertex 1821.8970023987895 -251.69561678779485 30.957536000000047
    vertex 1821.8970023987895 -248.78532224559854 31.340683545195148
    vertex 1821.8970023987895 -251.40161733598876 31.340683545195148
  endloop
endfacet
facet normal 1.0 7.745031373453682e-31 1.6653345369377348e-16
  outer loop
    vertex 1821.8970023987895 -251.40161733598876 31.340683545195148
    vertex 1821.8970023987895 -248.78532224559854 31.340683545195148
    vertex 1821.8970023987895 -249.16846979079364 31.634682997001256
  endloop
endfacet
facet normal 1.0 7.745031373453682e-31 1.6653345369377348e-16
  outer loop
    vertex 1821.8970023987895 -251.40161733598876 31.340683545195148
    vertex 1821.8970023987895 -249.16846979079364 31.634682997001256
    vertex 1821.8970023987895 -251.01846979079363 31.634682997001256
  endloop
endfacet
facet normal 1.0 7.745031373453682e-31 1.6653345369377348e-16
  outer loop
    vertex 1821.8970023987895 -251.01846979079363 31.634682997001256
    vertex 1821.8970023987895 -249.16846979079364 31.634682997001256
    vertex 1821.8970023987895 -249.61465455735396 31.81949877863479
  endloop
endfacet
facet normal 1.0 7.745031373453682e-31 1.6653345369377348e-16
  outer loop
    vertex 1821.8970023987895 -251.01846979079363 31.634682997001256
    vertex 1821.8970023987895 -249.61465455735396 31.81949877863479
    vertex 1821.8970023987895 -250.5722850242333 31.81949877863479
  endloop
endfacet
facet normal 1.0 7.745031373453682e-31 1.6653345369377348e-16
  outer loop
    vertex 1821.8970023987895 -250.5722850242333 31.81949877863479
    vertex 1821.8970023987895 -249.61465455735396 31.81949877863479
    vertex 1821.8970023987895 -250.09346979079365 31.882536000000016
  endloop
endfacet
facet normal 1.835149427462888e-17 0.9914448613738096 -0.13052619222005782
  outer loop
    vertex 1821.8970023987895 -251.94346979079364 30.03253600000003
    vertex 1841.8970023987895 -251.88043256942842 30.511351233439672
    vertex 1841.8970023987895 -251.94346979079364 30.03253600000003
  endloop
endfacet
facet normal 1.835149427462888e-17 0.9914448613738096 -0.13052619222005782
  outer loop
    vertex 1841.8970023987895 -251.88043256942842 30.511351233439672
    vertex 1821.8970023987895 -251.94346979079364 30.03253600000003
    vertex 1821.8970023987895 -251.88043256942842 30.511351233439672
  endloop
endfacet
facet normal -1.835149427462888e-17 0.9914448613738096 0.13052619222005782
  outer loop
    vertex 1821.8970023987895 -251.88043256942842 29.55372076656039
    vertex 1841.8970023987895 -251.94346979079364 30.03253600000003
    vertex 1841.8970023987895 -251.88043256942842 29.55372076656039
  endloop
endfacet
facet normal -1.835149427462888e-17 0.9914448613738096 0.13052619222005782
  outer loop
    vertex 1841.8970023987895 -251.94346979079364 30.03253600000003
    vertex 1821.8970023987895 -251.88043256942842 29.55372076656039
    vertex 1821.8970023987895 -251.94346979079364 30.03253600000003
  endloop
endfacet
facet normal -6.372959366314336e-17 0.9238795325112951 0.38268343236506974
  outer loop
    vertex 1821.8970023987895 -251.69561678779485 29.107536000000014
    vertex 1841.8970023987895 -251.88043256942842 29.55372076656039
    vertex 1841.8970023987895 -251.69561678779485 29.107536000000014
  endloop
endfacet
facet normal -6.372959366314336e-17 0.9238795325112951 0.38268343236506974
  outer loop
    vertex 1841.8970023987895 -251.88043256942842 29.55372076656039
    vertex 1821.8970023987895 -251.69561678779485 29.107536000000014
    vertex 1821.8970023987895 -251.88043256942842 29.55372076656039
  endloop
endfacet
facet normal -1.0137914324838106e-16 0.7933533402912292 0.6087614290087284
  outer loop
    vertex 1821.8970023987895 -251.40161733598876 28.724388454804906
    vertex 1841.8970023987895 -251.69561678779485 29.107536000000014
    vertex 1841.8970023987895 -251.40161733598876 28.724388454804913
  endloop
endfacet
facet normal -1.0137914324838106e-16 0.7933533402912292 0.6087614290087284
  outer loop
    vertex 1841.8970023987895 -251.69561678779485 29.107536000000014
    vertex 1821.8970023987895 -251.40161733598876 28.724388454804906
    vertex 1821.8970023987895 -251.69561678779485 29.107536000000014
  endloop
endfacet
facet normal -1.3211987175818995e-16 0.6087614290087319 0.7933533402912265
  outer loop
    vertex 1841.8970023987895 -251.01846979079363 28.430389002998805
    vertex 1821.8970023987895 -251.40161733598876 28.724388454804906
    vertex 1841.8970023987895 -251.40161733598876 28.724388454804913
  endloop
endfacet
facet normal -1.3211987175818995e-16 0.6087614290087319 0.7933533402912265
  outer loop
    vertex 1821.8970023987895 -251.40161733598876 28.724388454804906
    vertex 1841.8970023987895 -251.01846979079363 28.430389002998805
    vertex 1821.8970023987895 -251.01846979079363 28.430389002998798
  endloop
endfacet
facet normal -1.5385684934609762e-16 0.38268343236503477 0.9238795325113097
  outer loop
    vertex 1841.8970023987895 -250.5722850242333 28.24557322136527
    vertex 1821.8970023987895 -251.01846979079363 28.430389002998798
    vertex 1841.8970023987895 -251.01846979079363 28.430389002998805
  endloop
endfacet
facet normal -1.5385684934609762e-16 0.38268343236503477 0.9238795325113097
  outer loop
    vertex 1821.8970023987895 -251.01846979079363 28.430389002998798
    vertex 1841.8970023987895 -250.5722850242333 28.24557322136527
    vertex 1821.8970023987895 -250.5722850242333 28.245573221365262
  endloop
endfacet
facet normal -1.651087369115252e-16 0.13052619222005177 0.9914448613738104
  outer loop
    vertex 1841.8970023987895 -250.09346979079365 28.182536000000045
    vertex 1821.8970023987895 -250.5722850242333 28.245573221365262
    vertex 1841.8970023987895 -250.5722850242333 28.24557322136527
  endloop
endfacet
facet normal -1.651087369115252e-16 0.13052619222005177 0.9914448613738104
  outer loop
    vertex 1821.8970023987895 -250.5722850242333 28.245573221365262
    vertex 1841.8970023987895 -250.09346979079365 28.182536000000045
    vertex 1821.8970023987895 -250.09346979079365 28.182536000000038
  endloop
endfacet
facet normal -1.6510873691152501e-16 -0.13052619222005177 0.9914448613738104
  outer loop
    vertex 1841.8970023987895 -249.61465455735396 28.24557322136527
    vertex 1821.8970023987895 -250.09346979079365 28.182536000000038
    vertex 1841.8970023987895 -250.09346979079365 28.182536000000045
  endloop
endfacet
facet normal -1.6510873691152501e-16 -0.13052619222005177 0.9914448613738104
  outer loop
    vertex 1821.8970023987895 -250.09346979079365 28.182536000000038
    vertex 1841.8970023987895 -249.61465455735396 28.24557322136527
    vertex 1821.8970023987895 -249.61465455735396 28.245573221365262
  endloop
endfacet
facet normal -1.5385684934609638e-16 -0.38268343236504293 0.9238795325113062
  outer loop
    vertex 1841.8970023987895 -249.16846979079364 28.430389002998805
    vertex 1821.8970023987895 -249.61465455735396 28.245573221365262
    vertex 1841.8970023987895 -249.61465455735396 28.24557322136527
  endloop
endfacet
facet normal -1.5385684934609638e-16 -0.38268343236504293 0.9238795325113062
  outer loop
    vertex 1821.8970023987895 -249.61465455735396 28.245573221365262
    vertex 1841.8970023987895 -249.16846979079364 28.430389002998805
    vertex 1821.8970023987895 -249.16846979079364 28.430389002998798
  endloop
endfacet
facet normal -1.3211987175818902e-16 -0.6087614290087319 0.7933533402912265
  outer loop
    vertex 1841.8970023987895 -248.78532224559854 28.724388454804913
    vertex 1821.8970023987895 -249.16846979079364 28.430389002998798
    vertex 1841.8970023987895 -249.16846979079364 28.430389002998805
  endloop
endfacet
facet normal -1.3211987175818902e-16 -0.6087614290087319 0.7933533402912265
  outer loop
    vertex 1821.8970023987895 -249.16846979079364 28.430389002998798
    vertex 1841.8970023987895 -248.78532224559854 28.724388454804913
    vertex 1821.8970023987895 -248.78532224559854 28.724388454804906
  endloop
endfacet
facet normal -1.0137914324837984e-16 -0.7933533402912292 0.6087614290087284
  outer loop
    vertex 1821.8970023987895 -248.49132279379242 29.107536000000014
    vertex 1841.8970023987895 -248.78532224559854 28.724388454804913
    vertex 1841.8970023987895 -248.49132279379242 29.107536000000014
  endloop
endfacet
facet normal -1.0137914324837984e-16 -0.7933533402912292 0.6087614290087284
  outer loop
    vertex 1841.8970023987895 -248.78532224559854 28.724388454804913
    vertex 1821.8970023987895 -248.49132279379242 29.107536000000014
    vertex 1821.8970023987895 -248.78532224559854 28.724388454804906
  endloop
endfacet
facet normal -6.372959366314192e-17 -0.9238795325112951 0.38268343236506974
  outer loop
    vertex 1821.8970023987895 -248.30650701215885 29.55372076656039
    vertex 1841.8970023987895 -248.49132279379242 29.107536000000014
    vertex 1841.8970023987895 -248.30650701215885 29.55372076656039
  endloop
endfacet
facet normal -6.372959366314192e-17 -0.9238795325112951 0.38268343236506974
  outer loop
    vertex 1841.8970023987895 -248.49132279379242 29.107536000000014
    vertex 1821.8970023987895 -248.30650701215885 29.55372076656039
    vertex 1821.8970023987895 -248.49132279379242 29.107536000000014
  endloop
endfacet
facet normal -2.173697758790281e-17 -0.9914448613738096 0.13052619222005782
  outer loop
    vertex 1821.8970023987895 -248.24346979079363 30.03253600000003
    vertex 1841.8970023987895 -248.30650701215885 29.55372076656039
    vertex 1841.8970023987895 -248.24346979079363 30.03253600000003
  endloop
endfacet
facet normal -2.173697758790281e-17 -0.9914448613738096 0.13052619222005782
  outer loop
    vertex 1841.8970023987895 -248.30650701215885 29.55372076656039
    vertex 1821.8970023987895 -248.24346979079363 30.03253600000003
    vertex 1821.8970023987895 -248.30650701215885 29.55372076656039
  endloop
endfacet
facet normal 2.1736977587904344e-17 -0.9914448613738096 -0.13052619222005782
  outer loop
    vertex 1821.8970023987895 -248.30650701215885 30.511351233439672
    vertex 1841.8970023987895 -248.24346979079363 30.03253600000003
    vertex 1841.8970023987895 -248.30650701215885 30.511351233439672
  endloop
endfacet
facet normal 2.1736977587904344e-17 -0.9914448613738096 -0.13052619222005782
  outer loop
    vertex 1841.8970023987895 -248.24346979079363 30.03253600000003
    vertex 1821.8970023987895 -248.30650701215885 30.511351233439672
    vertex 1821.8970023987895 -248.24346979079363 30.03253600000003
  endloop
endfacet
facet normal 6.372959366314336e-17 -0.9238795325112951 -0.38268343236506974
  outer loop
    vertex 1821.8970023987895 -248.49132279379242 30.957536000000047
    vertex 1841.8970023987895 -248.30650701215885 30.511351233439672
    vertex 1841.8970023987895 -248.49132279379242 30.957536000000047
  endloop
endfacet
facet normal 6.372959366314336e-17 -0.9238795325112951 -0.38268343236506974
  outer loop
    vertex 1841.8970023987895 -248.30650701215885 30.511351233439672
    vertex 1821.8970023987895 -248.49132279379242 30.957536000000047
    vertex 1821.8970023987895 -248.30650701215885 30.511351233439672
  endloop
endfacet
facet normal 1.0137914324838106e-16 -0.7933533402912292 -0.6087614290087284
  outer loop
    vertex 1821.8970023987895 -248.78532224559854 31.340683545195148
    vertex 1841.8970023987895 -248.49132279379242 30.957536000000047
    vertex 1841.8970023987895 -248.78532224559854 31.340683545195148
  endloop
endfacet
facet normal 1.0137914324838106e-16 -0.7933533402912292 -0.6087614290087284
  outer loop
    vertex 1841.8970023987895 -248.49132279379242 30.957536000000047
    vertex 1821.8970023987895 -248.78532224559854 31.340683545195148
    vertex 1821.8970023987895 -248.49132279379242 30.957536000000047
  endloop
endfacet
facet normal 1.3211987175818995e-16 -0.6087614290087319 -0.7933533402912265
  outer loop
    vertex 1821.8970023987895 -248.78532224559854 31.340683545195148
    vertex 1841.8970023987895 -249.16846979079364 31.634682997001256
    vertex 1821.8970023987895 -249.16846979079364 31.634682997001256
  endloop
endfacet
facet normal 1.3211987175818995e-16 -0.6087614290087319 -0.7933533402912265
  outer loop
    vertex 1841.8970023987895 -249.16846979079364 31.634682997001256
    vertex 1821.8970023987895 -248.78532224559854 31.340683545195148
    vertex 1841.8970023987895 -248.78532224559854 31.340683545195148
  endloop
endfacet
facet normal 1.53856849346097e-16 -0.38268343236504293 -0.9238795325113062
  outer loop
    vertex 1821.8970023987895 -249.16846979079364 31.634682997001256
    vertex 1841.8970023987895 -249.61465455735396 31.81949877863479
    vertex 1821.8970023987895 -249.61465455735396 31.81949877863479
  endloop
endfacet
facet normal 1.53856849346097e-16 -0.38268343236504293 -0.9238795325113062
  outer loop
    vertex 1841.8970023987895 -249.61465455735396 31.81949877863479
    vertex 1821.8970023987895 -249.16846979079364 31.634682997001256
    vertex 1841.8970023987895 -249.16846979079364 31.634682997001256
  endloop
endfacet
facet normal 1.651087369115252e-16 -0.13052619222005177 -0.9914448613738104
  outer loop
    vertex 1821.8970023987895 -249.61465455735396 31.81949877863479
    vertex 1841.8970023987895 -250.09346979079365 31.882536000000016
    vertex 1821.8970023987895 -250.09346979079365 31.882536000000016
  endloop
endfacet
facet normal 1.651087369115252e-16 -0.13052619222005177 -0.9914448613738104
  outer loop
    vertex 1841.8970023987895 -250.09346979079365 31.882536000000016
    vertex 1821.8970023987895 -249.61465455735396 31.81949877863479
    vertex 1841.8970023987895 -249.61465455735396 31.81949877863479
  endloop
endfacet
facet normal 1.6510873691152501e-16 0.13052619222005177 -0.9914448613738104
  outer loop
    vertex 1821.8970023987895 -250.09346979079365 31.882536000000016
    vertex 1841.8970023987895 -250.5722850242333 31.81949877863479
    vertex 1821.8970023987895 -250.5722850242333 31.81949877863479
  endloop
endfacet
facet normal 1.6510873691152501e-16 0.13052619222005177 -0.9914448613738104
  outer loop
    vertex 1841.8970023987895 -250.5722850242333 31.81949877863479
    vertex 1821.8970023987895 -250.09346979079365 31.882536000000016
    vertex 1841.8970023987895 -250.09346979079365 31.882536000000016
  endloop
endfacet
facet normal 1.53856849346097e-16 0.38268343236503477 -0.9238795325113097
  outer loop
    vertex 1821.8970023987895 -250.5722850242333 31.81949877863479
    vertex 1841.8970023987895 -251.01846979079363 31.634682997001256
    vertex 1821.8970023987895 -251.01846979079363 31.634682997001256
  endloop
endfacet
facet normal 1.53856849346097e-16 0.38268343236503477 -0.9238795325113097
  outer loop
    vertex 1841.8970023987895 -251.01846979079363 31.634682997001256
    vertex 1821.8970023987895 -250.5722850242333 31.81949877863479
    vertex 1841.8970023987895 -250.5722850242333 31.81949877863479
  endloop
endfacet
facet normal 1.3211987175818902e-16 0.6087614290087319 -0.7933533402912265
  outer loop
    vertex 1821.8970023987895 -251.01846979079363 31.634682997001256
    vertex 1841.8970023987895 -251.40161733598876 31.340683545195148
    vertex 1821.8970023987895 -251.40161733598876 31.340683545195148
  endloop
endfacet
facet normal 1.3211987175818902e-16 0.6087614290087319 -0.7933533402912265
  outer loop
    vertex 1841.8970023987895 -251.40161733598876 31.340683545195148
    vertex 1821.8970023987895 -251.01846979079363 31.634682997001256
    vertex 1841.8970023987895 -251.01846979079363 31.634682997001256
  endloop
endfacet
facet normal 1.0137914324837984e-16 0.7933533402912292 -0.6087614290087284
  outer loop
    vertex 1821.8970023987895 -251.69561678779485 30.957536000000047
    vertex 1841.8970023987895 -251.40161733598876 31.340683545195148
    vertex 1841.8970023987895 -251.69561678779485 30.957536000000047
  endloop
endfacet
facet normal 1.0137914324837984e-16 0.7933533402912292 -0.6087614290087284
  outer loop
    vertex 1841.8970023987895 -251.40161733598876 31.340683545195148
    vertex 1821.8970023987895 -251.69561678779485 30.957536000000047
    vertex 1821.8970023987895 -251.40161733598876 31.340683545195148
  endloop
endfacet
facet normal 6.372959366314192e-17 0.9238795325112951 -0.38268343236506974
  outer loop
    vertex 1821.8970023987895 -251.88043256942842 30.511351233439672
    vertex 1841.8970023987895 -251.69561678779485 30.957536000000047
    vertex 1841.8970023987895 -251.88043256942842 30.511351233439672
  endloop
endfacet
facet normal 6.372959366314192e-17 0.9238795325112951 -0.38268343236506974
  outer loop
    vertex 1841.8970023987895 -251.69561678779485 30.957536000000047
    vertex 1821.8970023987895 -251.88043256942842 30.511351233439672
    vertex 1821.8970023987895 -251.69561678779485 30.957536000000047
  endloop
endfacet
endsolid sliced-tower-main
