solid sliced-tower-main
facet normal 0.0 0.0 -1.0
  outer loop
    vertex 1181.943695907841 -24.590477290793725 22.532536
    vertex 1309.943695907841 -72.59047729079369 22.532536
    vertex 1309.943695907841 -94.59047729079373 22.532536
  endloop
endfacet
facet normal 0.0 0.0 -1.0
  outer loop
    vertex 1309.943695907841 -72.59047729079369 22.532536
    vertex 1181.943695907841 -24.590477290793725 22.532536
    vertex 1355.943695907841 -24.590477290793682 22.532536
  endloop
endfacet
facet normal 0.0 0.0 -1.0
  outer loop
    vertex 1309.943695907841 -72.59047729079369 22.532536
    vertex 1355.943695907841 -24.590477290793682 22.532536
    vertex 1355.943695907841 -72.59047729079369 22.532536
  endloop
endfacet
facet normal 0.0 0.0 -1.0
  outer loop
    vertex 1181.943695907841 -24.590477290793725 22.532536
    vertex 1355.943695907841 -142.5904772907937 22.532536
    vertex 1181.943695907841 -142.59047729079373 22.532536
  endloop
endfacet
facet normal 0.0 0.0 -1.0
  outer loop
    vertex 1355.943695907841 -142.5904772907937 22.532536
    vertex 1181.943695907841 -24.590477290793725 22.532536
    vertex 1309.943695907841 -94.59047729079373 22.532536
  endloop
endfacet
facet normal 0.0 0.0 -1.0
  outer loop
    vertex 1355.943695907841 -142.5904772907937 22.532536
    vertex 1309.943695907841 -94.59047729079373 22.532536
    vertex 1355.943695907841 -94.59047729079369 22.532536
  endloop
endfacet
facet normal 0.0 -1.0 0.0
  outer loop
    vertex 1355.943695907841 -142.5904772907937 29.032535999999965
    vertex 1181.943695907841 -142.59047729079373 22.532536
    vertex 1355.943695907841 -142.5904772907937 22.532536
  endloop
endfacet
facet normal 0.0 -1.0 0.0
  outer loop
    vertex 1181.943695907841 -142.59047729079373 22.532536
    vertex 1355.943695907841 -142.5904772907937 29.032535999999965
    vertex 1181.943695907841 -142.59047729079373 29.032535999999965
  endloop
endfacet
facet normal 0.0 1.0 0.0
  outer loop
    vertex 1181.943695907841 -24.590477290793725 29.032535999999965
    vertex 1355.943695907841 -24.590477290793682 22.532536
    vertex 1181.943695907841 -24.590477290793725 22.532536
  endloop
endfacet
facet normal 0.0 1.0 0.0
  outer loop
    vertex 1355.943695907841 -24.590477290793682 22.532536
    vertex 1181.943695907841 -24.590477290793725 29.032535999999965
    vertex 1355.943695907841 -24.590477290793682 29.032535999999965
  endloop
endfacet
facet normal 1.0 0.0 0.0
  outer loop
    vertex 1309.943695907841 -72.59047729079369 22.532536
    vertex 1309.943695907841 -94.59047729079373 29.032535999999965
    vertex 1309.943695907841 -94.59047729079373 22.532536
  endloop
endfacet
facet normal 1.0 0.0 0.0
  outer loop
    vertex 1309.943695907841 -94.59047729079373 29.032535999999965
    vertex 1309.943695907841 -72.59047729079369 22.532536
    vertex 1309.943695907841 -72.59047729079369 29.032535999999965
  endloop
endfacet
facet normal -1.0 0.0 0.0
  outer loop
    vertex 1181.943695907841 -24.590477290793725 29.032535999999965
    vertex 1181.943695907841 -142.59047729079373 22.532536
    vertex 1181.943695907841 -142.59047729079373 29.032535999999965
  endloop
endfacet
facet normal -1.0 0.0 0.0
  outer loop
    vertex 1181.943695907841 -142.59047729079373 22.532536
    vertex 1181.943695907841 -24.590477290793725 29.032535999999965
    vertex 1181.943695907841 -24.590477290793725 22.532536
  endloop
endfacet
facet normal 1.0 0.0 0.0
  outer loop
    vertex 1355.943695907841 -24.590477290793682 22.532536
    vertex 1355.943695907841 -72.59047729079369 29.032535999999965
    vertex 1355.943695907841 -72.59047729079369 22.532536
  endloop
endfacet
facet normal 1.0 0.0 0.0
  outer loop
    vertex 1355.943695907841 -72.59047729079369 29.032535999999965
    vertex 1355.943695907841 -24.590477290793682 22.532536
    vertex 1355.943695907841 -24.590477290793682 29.032535999999965
  endloop
endfacet
facet normal 0.0 -1.0 0.0
  outer loop
    vertex 1355.943695907841 -72.59047729079369 29.032535999999965
    vertex 1309.943695907841 -72.59047729079369 22.532536
    vertex 1355.943695907841 -72.59047729079369 22.532536
  endloop
endfacet
facet normal 0.0 -1.0 0.0
  outer loop
    vertex 1309.943695907841 -72.59047729079369 22.532536
    vertex 1355.943695907841 -72.59047729079369 29.032535999999965
    vertex 1309.943695907841 -72.59047729079369 29.032535999999965
  endloop
endfacet
facet normal 0.0 1.0 0.0
  outer loop
    vertex 1309.943695907841 -94.59047729079373 29.032535999999965
    vertex 1355.943695907841 -94.59047729079369 22.532536
    vertex 1309.943695907841 -94.59047729079373 22.532536
  endloop
endfacet
facet normal 0.0 1.0 0.0
  outer loop
    vertex 1355.943695907841 -94.59047729079369 22.532536
    vertex 1309.943695907841 -94.59047729079373 29.032535999999965
    vertex 1355.943695907841 -94.59047729079369 29.032535999999965
  endloop
endfacet
facet normal 1.0 0.0 0.0
  outer loop
    vertex 1355.943695907841 -94.59047729079369 22.532536
    vertex 1355.943695907841 -142.5904772907937 29.032535999999965
    vertex 1355.943695907841 -142.5904772907937 22.532536
  endloop
endfacet
facet normal 1.0 0.0 0.0
  outer loop
    vertex 1355.943695907841 -142.5904772907937 29.032535999999965
    vertex 1355.943695907841 -94.59047729079369 22.532536
    vertex 1355.943695907841 -94.59047729079369 29.032535999999965
  endloop
endfacet
facet normal 0.0 0.0 1.0
  outer loop
    vertex 1181.943695907841 -24.590477290793725 29.032535999999965
    vertex 1309.943695907841 -72.59047729079369 29.032535999999965
    vertex 1355.943695907841 -24.590477290793682 29.032535999999965
  endloop
endfacet
facet normal 0.0 0.0 1.0
  outer loop
    vertex 1309.943695907841 -72.59047729079369 29.032535999999965
    vertex 1181.943695907841 -24.590477290793725 29.032535999999965
    vertex 1309.943695907841 -94.59047729079373 29.032535999999965
  endloop
endfacet
facet normal 0.0 0.0 1.0
  outer loop
    vertex 1355.943695907841 -24.590477290793682 29.032535999999965
    vertex 1309.943695907841 -72.59047729079369 29.032535999999965
    vertex 1355.943695907841 -72.59047729079369 29.032535999999965
  endloop
endfacet
facet normal 0.0 0.0 1.0
  outer loop
    vertex 1355.943695907841 -142.5904772907937 29.032535999999965
    vertex 1181.943695907841 -24.590477290793725 29.032535999999965
    vertex 1181.943695907841 -142.59047729079373 29.032535999999965
  endloop
endfacet
facet normal 0.0 0.0 1.0
  outer loop
    vertex 1181.943695907841 -24.590477290793725 29.032535999999965
    vertex 1355.943695907841 -142.5904772907937 29.032535999999965
    vertex 1309.943695907841 -94.59047729079373 29.032535999999965
  endloop
endfacet
facet normal 0.0 0.0 1.0
  outer loop
    vertex 1309.943695907841 -94.59047729079373 29.032535999999965
    vertex 1355.943695907841 -142.5904772907937 29.032535999999965
    vertex 1355.943695907841 -94.59047729079369 29.032535999999965
  endloop
endfacet
endsolid sliced-tower-main
