solid sliced-tower-main
facet normal 4.406480755741958e-15 -1.0 -1.49301296812522e-16
  outer loop
    vertex 1665.1194092236951 -54.050477290791825 22.532535999999972
    vertex 1639.1194087847011 -54.05047729079219 51.99253561256321
    vertex 1639.1194092236967 -54.05047729079201 22.53253561256346
  endloop
endfacet
facet normal 4.406480755741958e-15 -1.0 -1.49301296812522e-16
  outer loop
    vertex 1639.1194087847011 -54.05047729079219 51.99253561256321
    vertex 1665.1194092236951 -54.050477290791825 22.532535999999972
    vertex 1665.1194087847005 -54.05047729079201 51.99253599999971
  endloop
endfacet
facet normal -1.490140419391217e-08 -6.617444900424222e-24 1.0
  outer loop
    vertex 1665.1194087847005 -54.05047729079201 51.99253599999971
    vertex 1639.1194087847016 -24.59047729079264 51.99253561256321
    vertex 1639.1194087847011 -54.05047729079219 51.99253561256321
  endloop
endfacet
facet normal -1.490140419391217e-08 -6.617444900424222e-24 1.0
  outer loop
    vertex 1639.1194087847016 -24.59047729079264 51.99253561256321
    vertex 1665.1194087847005 -54.05047729079201 51.99253599999971
    vertex 1665.1194087846995 -24.590477290793004 51.99253599999971
  endloop
endfacet
facet normal 1.0 1.0079964711760146e-15 1.4901388095177122e-08
  outer loop
    vertex 1658.6194088349027 -50.48084922386792 48.62353595406703
    vertex 1658.6194089566984 -40.174580139632404 40.45009112989444
    vertex 1658.6194089550227 -39.32047729079413 40.56253590314051
  endloop
endfacet
facet normal 1.0 1.0079964711760146e-15 1.4901388095177122e-08
  outer loop
    vertex 1658.6194089566984 -40.174580139632404 40.45009112989444
    vertex 1658.6194088349027 -50.48084922386792 48.62353595406703
    vertex 1658.6194089616108 -40.970477290794115 40.120419735629156
  endloop
endfacet
facet normal 1.0 1.0079964711760146e-15 1.4901388095177122e-08
  outer loop
    vertex 1658.6194089616108 -40.970477290794115 40.120419735629156
    vertex 1658.6194088349027 -50.48084922386792 48.62353595406703
    vertex 1658.6194089694259 -41.65392966870987 39.59598828105614
  endloop
endfacet
facet normal 1.0 1.0079964711760146e-15 1.4901388095177122e-08
  outer loop
    vertex 1658.6194089694259 -41.65392966870987 39.59598828105614
    vertex 1658.6194088349027 -50.48084922386792 48.62353595406703
    vertex 1658.6194089796104 -42.17836112328293 38.912535903140515
  endloop
endfacet
facet normal 1.0 1.0079964711760146e-15 1.4901388095177122e-08
  outer loop
    vertex 1658.6194089796104 -42.17836112328293 38.912535903140515
    vertex 1658.6194088349027 -50.48084922386792 48.62353595406703
    vertex 1658.6194091690124 -50.480848723868824 26.202164973611104
  endloop
endfacet
facet normal 1.0 1.0079964711760146e-15 1.4901388095177122e-08
  outer loop
    vertex 1658.6194089796104 -42.17836112328293 38.912535903140515
    vertex 1658.6194091690124 -50.480848723868824 26.202164973611104
    vertex 1658.6194089914702 -42.508032517548145 38.116638751978826
  endloop
endfacet
facet normal 1.0 1.0079964711760146e-15 1.4901388095177122e-08
  outer loop
    vertex 1658.6194089914702 -42.508032517548145 38.116638751978826
    vertex 1658.6194091690124 -50.480848723868824 26.202164973611104
    vertex 1658.6194090041975 -42.6204772907941 37.262535903140524
  endloop
endfacet
facet normal 1.0 1.0079964711760146e-15 1.4901388095177122e-08
  outer loop
    vertex 1658.6194090041975 -42.6204772907941 37.262535903140524
    vertex 1658.6194091690124 -50.480848723868824 26.202164973611104
    vertex 1658.619409016925 -42.508032517548145 36.40843305430219
  endloop
endfacet
facet normal 1.0 1.0079964711760146e-15 1.4901388095177122e-08
  outer loop
    vertex 1658.619409016925 -42.508032517548145 36.40843305430219
    vertex 1658.6194091690124 -50.480848723868824 26.202164973611104
    vertex 1658.6194090287847 -42.17836112328293 35.612535903140525
  endloop
endfacet
facet normal 1.0 1.0079964711760146e-15 1.4901388095177122e-08
  outer loop
    vertex 1658.6194090287847 -42.17836112328293 35.612535903140525
    vertex 1658.6194091690124 -50.480848723868824 26.202164973611104
    vertex 1658.6194090389693 -41.65392966870987 34.92908352522491
  endloop
endfacet
facet normal 1.0 1.0079964711760146e-15 1.4901388095177122e-08
  outer loop
    vertex 1658.6194090389693 -41.65392966870987 34.92908352522491
    vertex 1658.6194091690124 -50.480848723868824 26.202164973611104
    vertex 1658.6194090467839 -40.97047729079429 34.40465207065187
  endloop
endfacet
facet normal 1.0 1.0079964711760146e-15 1.4901388095177122e-08
  outer loop
    vertex 1658.6194090467839 -40.97047729079429 34.40465207065187
    vertex 1658.6194091690124 -50.480848723868824 26.202164973611104
    vertex 1658.6194090516965 -40.174580139632404 34.074980676386595
  endloop
endfacet
facet normal 1.0 1.0079964711760146e-15 1.4901388095177122e-08
  outer loop
    vertex 1658.6194090516965 -40.174580139632404 34.074980676386595
    vertex 1658.6194091690124 -50.480848723868824 26.202164973611104
    vertex 1658.619409053372 -39.32047729079413 33.96253590314051
  endloop
endfacet
facet normal 1.0 1.0079964711760146e-15 1.4901388095177122e-08
  outer loop
    vertex 1658.619409053372 -39.32047729079413 33.96253590314051
    vertex 1658.6194091690124 -50.480848723868824 26.202164973611104
    vertex 1658.6194091690124 -28.16010650804973 26.202164975877636
  endloop
endfacet
facet normal 1.0 1.0079964711760146e-15 1.4901388095177122e-08
  outer loop
    vertex 1658.6194088349027 -28.160106508049548 48.62353595633355
    vertex 1658.6194089796104 -36.462593458305506 38.912535903140494
    vertex 1658.6194091690124 -28.16010650804973 26.202164975877636
  endloop
endfacet
facet normal 1.0 1.0079964711760146e-15 1.4901388095177122e-08
  outer loop
    vertex 1658.6194089796104 -36.462593458305506 38.912535903140494
    vertex 1658.6194088349027 -28.160106508049548 48.62353595633355
    vertex 1658.6194089694256 -36.98702491287857 39.5959882810561
  endloop
endfacet
facet normal 1.0 1.0079964711760146e-15 1.4901388095177122e-08
  outer loop
    vertex 1658.6194089694256 -36.98702491287857 39.5959882810561
    vertex 1658.6194088349027 -28.160106508049548 48.62353595633355
    vertex 1658.6194089616108 -37.670477290794146 40.12041973562914
  endloop
endfacet
facet normal 1.0 1.0079964711760146e-15 1.4901388095177122e-08
  outer loop
    vertex 1658.6194089616108 -37.670477290794146 40.12041973562914
    vertex 1658.6194088349027 -28.160106508049548 48.62353595633355
    vertex 1658.6194088349027 -50.48084922386792 48.62353595406703
  endloop
endfacet
facet normal 1.0 1.0079964711760146e-15 1.4901388095177122e-08
  outer loop
    vertex 1658.6194089616108 -37.670477290794146 40.12041973562914
    vertex 1658.6194088349027 -50.48084922386792 48.62353595406703
    vertex 1658.6194089566984 -38.46637444195586 40.45009112989443
  endloop
endfacet
facet normal 1.0 1.0079964711760146e-15 1.4901388095177122e-08
  outer loop
    vertex 1658.6194089566984 -38.46637444195586 40.45009112989443
    vertex 1658.6194088349027 -50.48084922386792 48.62353595406703
    vertex 1658.6194089550227 -39.32047729079413 40.56253590314051
  endloop
endfacet
facet normal 1.0 1.0079964711760146e-15 1.4901388095177122e-08
  outer loop
    vertex 1658.6194091690124 -28.16010650804973 26.202164975877636
    vertex 1658.6194089796104 -36.462593458305506 38.912535903140494
    vertex 1658.6194089914702 -36.132922064040294 38.11663875197882
  endloop
endfacet
facet normal 1.0 1.0079964711760146e-15 1.4901388095177122e-08
  outer loop
    vertex 1658.6194091690124 -28.16010650804973 26.202164975877636
    vertex 1658.6194089914702 -36.132922064040294 38.11663875197882
    vertex 1658.6194090041975 -36.02047729079416 37.262535903140495
  endloop
endfacet
facet normal 1.0 1.0079964711760146e-15 1.4901388095177122e-08
  outer loop
    vertex 1658.6194091690124 -28.16010650804973 26.202164975877636
    vertex 1658.6194090041975 -36.02047729079416 37.262535903140495
    vertex 1658.619409016925 -36.132922064040294 36.40843305430218
  endloop
endfacet
facet normal 1.0 1.0079964711760146e-15 1.4901388095177122e-08
  outer loop
    vertex 1658.6194091690124 -28.16010650804973 26.202164975877636
    vertex 1658.619409016925 -36.132922064040294 36.40843305430218
    vertex 1658.6194090287847 -36.462593458305506 35.612535903140504
  endloop
endfacet
facet normal 1.0 1.0079964711760146e-15 1.4901388095177122e-08
  outer loop
    vertex 1658.6194091690124 -28.16010650804973 26.202164975877636
    vertex 1658.6194090287847 -36.462593458305506 35.612535903140504
    vertex 1658.6194090389693 -36.98702491287857 34.92908352522489
  endloop
endfacet
facet normal 1.0 1.0079964711760146e-15 1.4901388095177122e-08
  outer loop
    vertex 1658.6194091690124 -28.16010650804973 26.202164975877636
    vertex 1658.6194090389693 -36.98702491287857 34.92908352522489
    vertex 1658.6194090467839 -37.670477290794324 34.40465207065186
  endloop
endfacet
facet normal 1.0 1.0079964711760146e-15 1.4901388095177122e-08
  outer loop
    vertex 1658.6194091690124 -28.16010650804973 26.202164975877636
    vertex 1658.6194090467839 -37.670477290794324 34.40465207065186
    vertex 1658.6194090516965 -38.46637444195586 34.07498067638659
  endloop
endfacet
facet normal 1.0 1.0079964711760146e-15 1.4901388095177122e-08
  outer loop
    vertex 1658.6194091690124 -28.16010650804973 26.202164975877636
    vertex 1658.6194090516965 -38.46637444195586 34.07498067638659
    vertex 1658.619409053372 -39.32047729079413 33.96253590314051
  endloop
endfacet
facet normal 1.49014001033678e-08 6.617444900424222e-24 -1.0
  outer loop
    vertex 1658.6194088349027 -28.160106508049548 48.62353595633355
    vertex 1665.1194088349027 -50.48084922386792 48.623536050926155
    vertex 1658.6194088349027 -50.48084922386792 48.62353595406703
  endloop
endfacet
facet normal 1.49014001033678e-08 6.617444900424222e-24 -1.0
  outer loop
    vertex 1665.1194088349027 -50.48084922386792 48.623536050926155
    vertex 1658.6194088349027 -28.160106508049548 48.62353595633355
    vertex 1665.1194088349027 -28.160106508049548 48.62353605319268
  endloop
endfacet
facet normal -4.417121655907431e-15 0.9999999999999999 2.266504394904693e-08
  outer loop
    vertex 1658.6194088349027 -50.48084922386792 48.62353595406703
    vertex 1665.1194091690124 -50.480848723868824 26.20216507047023
    vertex 1658.6194091690124 -50.480848723868824 26.202164973611104
  endloop
endfacet
facet normal -4.417121655907431e-15 0.9999999999999999 2.266504394904693e-08
  outer loop
    vertex 1665.1194091690124 -50.480848723868824 26.20216507047023
    vertex 1658.6194088349027 -50.48084922386792 48.62353595406703
    vertex 1665.1194088349027 -50.48084922386792 48.623536050926155
  endloop
endfacet
facet normal -1.49014001033678e-08 -6.617444900424222e-24 1.0
  outer loop
    vertex 1665.1194091690124 -28.16010650804973 26.20216507273676
    vertex 1658.6194091690124 -50.480848723868824 26.202164973611104
    vertex 1665.1194091690124 -50.480848723868824 26.20216507047023
  endloop
endfacet
facet normal -1.49014001033678e-08 -6.617444900424222e-24 1.0
  outer loop
    vertex 1658.6194091690124 -50.480848723868824 26.202164973611104
    vertex 1665.1194091690124 -28.16010650804973 26.20216507273676
    vertex 1658.6194091690124 -28.16010650804973 26.202164975877636
  endloop
endfacet
facet normal 4.079380767662266e-15 -1.0 5.417105677938293e-23
  outer loop
    vertex 1665.1194091690124 -28.16010650804973 26.20216507273676
    vertex 1658.6194088349027 -28.160106508049548 48.62353595633355
    vertex 1658.6194091690124 -28.16010650804973 26.202164975877636
  endloop
endfacet
facet normal 4.079380767662266e-15 -1.0 5.417105677938293e-23
  outer loop
    vertex 1658.6194088349027 -28.160106508049548 48.62353595633355
    vertex 1665.1194091690124 -28.16010650804973 26.20216507273676
    vertex 1665.1194088349027 -28.160106508049548 48.62353605319268
  endloop
endfacet
facet normal -5.883334607388416e-16 1.0 -2.149549798848414e-24
  outer loop
    vertex 1665.1194087846995 -24.590477290793004 51.99253599999971
    vertex 1639.119409223697 -24.590477290792823 22.53253561256346
    vertex 1639.1194087847016 -24.59047729079264 51.99253561256321
  endloop
endfacet
facet normal -5.883334607388416e-16 1.0 -2.149549798848414e-24
  outer loop
    vertex 1639.119409223697 -24.590477290792823 22.53253561256346
    vertex 1665.1194087846995 -24.590477290793004 51.99253599999971
    vertex 1665.1194092236947 -24.590477290793004 22.532535999999972
  endloop
endfacet
facet normal -1.0 6.126200097863878e-15 -1.490140419391217e-08
  outer loop
    vertex 1639.1194087847016 -24.59047729079264 51.99253561256321
    vertex 1639.119408834904 -28.160106359444264 48.62353599836673
    vertex 1639.1194087847011 -54.05047729079219 51.99253561256321
  endloop
endfacet
facet normal -1.0 6.126200097863878e-15 -1.490140419391217e-08
  outer loop
    vertex 1639.119408834904 -28.160106359444264 48.62353599836673
    vertex 1639.1194087847016 -24.59047729079264 51.99253561256321
    vertex 1639.119409223697 -24.590477290792823 22.53253561256346
  endloop
endfacet
facet normal -1.0 6.126200097863878e-15 -1.490140419391217e-08
  outer loop
    vertex 1639.119408834904 -28.160106359444264 48.62353599836673
    vertex 1639.119409223697 -24.590477290792823 22.53253561256346
    vertex 1639.1194091690143 -28.160106359444264 26.20216478674655
  endloop
endfacet
facet normal -1.0 6.126200097863878e-15 -1.490140419391217e-08
  outer loop
    vertex 1639.1194091690143 -28.160106359444264 26.20216478674655
    vertex 1639.119409223697 -24.590477290792823 22.53253561256346
    vertex 1639.1194091690143 -50.480848369019945 26.20216478674653
  endloop
endfacet
facet normal -1.0 6.126200097863878e-15 -1.490140419391217e-08
  outer loop
    vertex 1639.1194087847011 -54.05047729079219 51.99253561256321
    vertex 1639.1194088349043 -50.480848369019945 48.62353599836669
    vertex 1639.1194092236967 -54.05047729079201 22.53253561256346
  endloop
endfacet
facet normal -1.0 6.126200097863878e-15 -1.490140419391217e-08
  outer loop
    vertex 1639.1194088349043 -50.480848369019945 48.62353599836669
    vertex 1639.1194087847011 -54.05047729079219 51.99253561256321
    vertex 1639.119408834904 -28.160106359444264 48.62353599836673
  endloop
endfacet
facet normal -1.0 6.126200097863878e-15 -1.490140419391217e-08
  outer loop
    vertex 1639.1194092236967 -54.05047729079201 22.53253561256346
    vertex 1639.1194088349043 -50.480848369019945 48.62353599836669
    vertex 1639.1194091690143 -50.480848369019945 26.20216478674653
  endloop
endfacet
facet normal -1.0 6.126200097863878e-15 -1.490140419391217e-08
  outer loop
    vertex 1639.1194092236967 -54.05047729079201 22.53253561256346
    vertex 1639.1194091690143 -50.480848369019945 26.20216478674653
    vertex 1639.119409223697 -24.590477290792823 22.53253561256346
  endloop
endfacet
facet normal 1.4901405061594167e-08 6.617444900424222e-24 -1.0
  outer loop
    vertex 1639.119409223697 -24.590477290792823 22.53253561256346
    vertex 1665.1194092236951 -54.050477290791825 22.532535999999972
    vertex 1639.1194092236967 -54.05047729079201 22.53253561256346
  endloop
endfacet
facet normal 1.4901405061594167e-08 6.617444900424222e-24 -1.0
  outer loop
    vertex 1665.1194092236951 -54.050477290791825 22.532535999999972
    vertex 1639.119409223697 -24.590477290792823 22.53253561256346
    vertex 1665.1194092236947 -24.590477290793004 22.532535999999972
  endloop
endfacet
facet normal 1.0 1.1059888675436393e-14 1.4901399575937975e-08
  outer loop
    vertex 1665.1194087847005 -54.05047729079201 51.99253599999971
    vertex 1665.1194088349027 -50.48084922386792 48.623536050926155
    vertex 1665.1194087846995 -24.590477290793004 51.99253599999971
  endloop
endfacet
facet normal 1.0 1.1059888675436393e-14 1.4901399575937975e-08
  outer loop
    vertex 1665.1194088349027 -50.48084922386792 48.623536050926155
    vertex 1665.1194087847005 -54.05047729079201 51.99253599999971
    vertex 1665.1194092236951 -54.050477290791825 22.532535999999972
  endloop
endfacet
facet normal 1.0 1.1059888675436393e-14 1.4901399575937975e-08
  outer loop
    vertex 1665.1194087846995 -24.590477290793004 51.99253599999971
    vertex 1665.1194088349027 -50.48084922386792 48.623536050926155
    vertex 1665.1194088349027 -28.160106508049548 48.62353605319268
  endloop
endfacet
facet normal 1.0 1.1059888675436393e-14 1.4901399575937975e-08
  outer loop
    vertex 1665.1194088349027 -50.48084922386792 48.623536050926155
    vertex 1665.1194092236951 -54.050477290791825 22.532535999999972
    vertex 1665.1194091690124 -50.480848723868824 26.20216507047023
  endloop
endfacet
facet normal 1.0 1.1059888675436393e-14 1.4901399575937975e-08
  outer loop
    vertex 1665.1194088349027 -28.160106508049548 48.62353605319268
    vertex 1665.1194092236947 -24.590477290793004 22.532535999999972
    vertex 1665.1194087846995 -24.590477290793004 51.99253599999971
  endloop
endfacet
facet normal 1.0 1.1059888675436393e-14 1.4901399575937975e-08
  outer loop
    vertex 1665.1194092236947 -24.590477290793004 22.532535999999972
    vertex 1665.1194088349027 -28.160106508049548 48.62353605319268
    vertex 1665.1194091690124 -28.16010650804973 26.20216507273676
  endloop
endfacet
facet normal 1.0 1.1059888675436393e-14 1.4901399575937975e-08
  outer loop
    vertex 1665.1194092236947 -24.590477290793004 22.532535999999972
    vertex 1665.1194091690124 -28.16010650804973 26.20216507273676
    vertex 1665.1194091690124 -50.480848723868824 26.20216507047023
  endloop
endfacet
facet normal 1.0 1.1059888675436393e-14 1.4901399575937975e-08
  outer loop
    vertex 1665.1194092236947 -24.590477290793004 22.532535999999972
    vertex 1665.1194091690124 -50.480848723868824 26.20216507047023
    vertex 1665.1194092236951 -54.050477290791825 22.532535999999972
  endloop
endfacet
facet normal -1.0 -9.093652958233187e-15 -1.4901411237108673e-08
  outer loop
    vertex 1645.6194088349039 -28.16010635944444 48.62353609522585
    vertex 1645.6194089616124 -37.670477290794324 40.12041954191087
    vertex 1645.6194088349043 -50.480848369019945 48.623536095225816
  endloop
endfacet
facet normal -1.0 -9.093652958233187e-15 -1.4901411237108673e-08
  outer loop
    vertex 1645.6194089616124 -37.670477290794324 40.12041954191087
    vertex 1645.6194088349039 -28.16010635944444 48.62353609522585
    vertex 1645.6194089694275 -36.987024912878745 39.59598808733783
  endloop
endfacet
facet normal -1.0 -9.093652958233187e-15 -1.4901411237108673e-08
  outer loop
    vertex 1645.6194089694275 -36.987024912878745 39.59598808733783
    vertex 1645.6194088349039 -28.16010635944444 48.62353609522585
    vertex 1645.6194089796118 -36.46259345830568 38.91253570942223
  endloop
endfacet
facet normal -1.0 -9.093652958233187e-15 -1.4901411237108673e-08
  outer loop
    vertex 1645.6194089796118 -36.46259345830568 38.91253570942223
    vertex 1645.6194088349039 -28.16010635944444 48.62353609522585
    vertex 1645.6194091690143 -28.160106359444622 26.202164883605676
  endloop
endfacet
facet normal -1.0 -9.093652958233187e-15 -1.4901411237108673e-08
  outer loop
    vertex 1645.6194088349043 -50.480848369019945 48.623536095225816
    vertex 1645.6194089616124 -37.670477290794324 40.12041954191087
    vertex 1645.6194089567002 -38.466374441956035 40.45009093617616
  endloop
endfacet
facet normal -1.0 -9.093652958233187e-15 -1.4901411237108673e-08
  outer loop
    vertex 1645.6194088349043 -50.480848369019945 48.623536095225816
    vertex 1645.6194089567002 -38.466374441956035 40.45009093617616
    vertex 1645.6194089550247 -39.32047729079431 40.56253570942224
  endloop
endfacet
facet normal -1.0 -9.093652958233187e-15 -1.4901411237108673e-08
  outer loop
    vertex 1645.6194089796118 -36.46259345830568 38.91253570942223
    vertex 1645.6194091690143 -28.160106359444622 26.202164883605676
    vertex 1645.6194089914718 -36.13292206404048 38.116638558260554
  endloop
endfacet
facet normal -1.0 -9.093652958233187e-15 -1.4901411237108673e-08
  outer loop
    vertex 1645.6194089914718 -36.13292206404048 38.116638558260554
    vertex 1645.6194091690143 -28.160106359444622 26.202164883605676
    vertex 1645.619409004199 -36.02047729079434 37.26253570942224
  endloop
endfacet
facet normal -1.0 -9.093652958233187e-15 -1.4901411237108673e-08
  outer loop
    vertex 1645.619409004199 -36.02047729079434 37.26253570942224
    vertex 1645.6194091690143 -28.160106359444622 26.202164883605676
    vertex 1645.6194090169263 -36.13292206404048 36.40843286058392
  endloop
endfacet
facet normal -1.0 -9.093652958233187e-15 -1.4901411237108673e-08
  outer loop
    vertex 1645.6194090169263 -36.13292206404048 36.40843286058392
    vertex 1645.6194091690143 -28.160106359444622 26.202164883605676
    vertex 1645.6194090287863 -36.46259345830568 35.61253570942224
  endloop
endfacet
facet normal -1.0 -9.093652958233187e-15 -1.4901411237108673e-08
  outer loop
    vertex 1645.6194090287863 -36.46259345830568 35.61253570942224
    vertex 1645.6194091690143 -28.160106359444622 26.202164883605676
    vertex 1645.6194090389706 -36.987024912878745 34.929083331506625
  endloop
endfacet
facet normal -1.0 -9.093652958233187e-15 -1.4901411237108673e-08
  outer loop
    vertex 1645.6194090389706 -36.987024912878745 34.929083331506625
    vertex 1645.6194091690143 -28.160106359444622 26.202164883605676
    vertex 1645.6194090467854 -37.67047729079451 34.4046518769336
  endloop
endfacet
facet normal -1.0 -9.093652958233187e-15 -1.4901411237108673e-08
  outer loop
    vertex 1645.6194090467854 -37.67047729079451 34.4046518769336
    vertex 1645.6194091690143 -28.160106359444622 26.202164883605676
    vertex 1645.6194090516979 -38.466374441956035 34.07498048266832
  endloop
endfacet
facet normal -1.0 -9.093652958233187e-15 -1.4901411237108673e-08
  outer loop
    vertex 1645.6194090516979 -38.466374441956035 34.07498048266832
    vertex 1645.6194091690143 -28.160106359444622 26.202164883605676
    vertex 1645.6194090533736 -39.32047729079431 33.962535709422255
  endloop
endfacet
facet normal -1.0 -9.093652958233187e-15 -1.4901411237108673e-08
  outer loop
    vertex 1645.6194088349043 -50.480848369019945 48.623536095225816
    vertex 1645.6194089796118 -42.17836112328312 38.91253570942226
    vertex 1645.6194091690143 -50.48084836902012 26.202164883605654
  endloop
endfacet
facet normal -1.0 -9.093652958233187e-15 -1.4901411237108673e-08
  outer loop
    vertex 1645.6194089796118 -42.17836112328312 38.91253570942226
    vertex 1645.6194088349043 -50.480848369019945 48.623536095225816
    vertex 1645.6194089694275 -41.653929668710056 39.595988087337865
  endloop
endfacet
facet normal -1.0 -9.093652958233187e-15 -1.4901411237108673e-08
  outer loop
    vertex 1645.6194089694275 -41.653929668710056 39.595988087337865
    vertex 1645.6194088349043 -50.480848369019945 48.623536095225816
    vertex 1645.6194089616129 -40.97047729079429 40.120419541910884
  endloop
endfacet
facet normal -1.0 -9.093652958233187e-15 -1.4901411237108673e-08
  outer loop
    vertex 1645.6194089616129 -40.97047729079429 40.120419541910884
    vertex 1645.6194088349043 -50.480848369019945 48.623536095225816
    vertex 1645.6194089567002 -40.17458013963258 40.450090936176174
  endloop
endfacet
facet normal -1.0 -9.093652958233187e-15 -1.4901411237108673e-08
  outer loop
    vertex 1645.6194089567002 -40.17458013963258 40.450090936176174
    vertex 1645.6194088349043 -50.480848369019945 48.623536095225816
    vertex 1645.6194089550247 -39.32047729079431 40.56253570942224
  endloop
endfacet
facet normal -1.0 -9.093652958233187e-15 -1.4901411237108673e-08
  outer loop
    vertex 1645.6194091690143 -50.48084836902012 26.202164883605654
    vertex 1645.6194089796118 -42.17836112328312 38.91253570942226
    vertex 1645.6194089914718 -42.50803251754832 38.11663855826056
  endloop
endfacet
facet normal -1.0 -9.093652958233187e-15 -1.4901411237108673e-08
  outer loop
    vertex 1645.6194091690143 -50.48084836902012 26.202164883605654
    vertex 1645.6194089914718 -42.50803251754832 38.11663855826056
    vertex 1645.619409004199 -42.620477290794284 37.26253570942226
  endloop
endfacet
facet normal -1.0 -9.093652958233187e-15 -1.4901411237108673e-08
  outer loop
    vertex 1645.6194091690143 -50.48084836902012 26.202164883605654
    vertex 1645.619409004199 -42.620477290794284 37.26253570942226
    vertex 1645.6194090169263 -42.50803251754832 36.40843286058393
  endloop
endfacet
facet normal -1.0 -9.093652958233187e-15 -1.4901411237108673e-08
  outer loop
    vertex 1645.6194091690143 -50.48084836902012 26.202164883605654
    vertex 1645.6194090169263 -42.50803251754832 36.40843286058393
    vertex 1645.6194090287863 -42.17836112328312 35.61253570942226
  endloop
endfacet
facet normal -1.0 -9.093652958233187e-15 -1.4901411237108673e-08
  outer loop
    vertex 1645.6194091690143 -50.48084836902012 26.202164883605654
    vertex 1645.6194090287863 -42.17836112328312 35.61253570942226
    vertex 1645.6194090389706 -41.653929668710056 34.92908333150665
  endloop
endfacet
facet normal -1.0 -9.093652958233187e-15 -1.4901411237108673e-08
  outer loop
    vertex 1645.6194091690143 -50.48084836902012 26.202164883605654
    vertex 1645.6194090389706 -41.653929668710056 34.92908333150665
    vertex 1645.6194090467857 -40.97047729079448 34.404651876933606
  endloop
endfacet
facet normal -1.0 -9.093652958233187e-15 -1.4901411237108673e-08
  outer loop
    vertex 1645.6194091690143 -50.48084836902012 26.202164883605654
    vertex 1645.6194090467857 -40.97047729079448 34.404651876933606
    vertex 1645.6194090516979 -40.17458013963258 34.07498048266833
  endloop
endfacet
facet normal -1.0 -9.093652958233187e-15 -1.4901411237108673e-08
  outer loop
    vertex 1645.6194091690143 -50.48084836902012 26.202164883605654
    vertex 1645.6194090516979 -40.17458013963258 34.07498048266833
    vertex 1645.6194090533736 -39.32047729079431 33.962535709422255
  endloop
endfacet
facet normal -1.0 -9.093652958233187e-15 -1.4901411237108673e-08
  outer loop
    vertex 1645.6194091690143 -50.48084836902012 26.202164883605654
    vertex 1645.6194090533736 -39.32047729079431 33.962535709422255
    vertex 1645.6194091690143 -28.160106359444622 26.202164883605676
  endloop
endfacet
facet normal 6.119071013183013e-15 -1.0 8.456530555826753e-23
  outer loop
    vertex 1639.1194091690143 -28.160106359444264 26.20216478674655
    vertex 1645.6194088349039 -28.16010635944444 48.62353609522585
    vertex 1639.119408834904 -28.160106359444264 48.62353599836673
  endloop
endfacet
facet normal 6.119071013183013e-15 -1.0 8.456530555826753e-23
  outer loop
    vertex 1645.6194088349039 -28.16010635944444 48.62353609522585
    vertex 1639.1194091690143 -28.160106359444264 26.20216478674655
    vertex 1645.6194091690143 -28.160106359444622 26.202164883605676
  endloop
endfacet
facet normal -1.4901410329728797e-08 -6.617444900424222e-24 1.0
  outer loop
    vertex 1645.6194091690143 -28.160106359444622 26.202164883605676
    vertex 1639.1194091690143 -50.480848369019945 26.20216478674653
    vertex 1645.6194091690143 -50.48084836902012 26.202164883605654
  endloop
endfacet
facet normal -1.4901410329728797e-08 -6.617444900424222e-24 1.0
  outer loop
    vertex 1639.1194091690143 -50.480848369019945 26.20216478674653
    vertex 1645.6194091690143 -28.160106359444622 26.202164883605676
    vertex 1639.1194091690143 -28.160106359444264 26.20216478674655
  endloop
endfacet
facet normal -6.119071013183013e-15 1.0 -8.456530555826753e-23
  outer loop
    vertex 1639.1194088349043 -50.480848369019945 48.62353599836669
    vertex 1645.6194091690143 -50.48084836902012 26.202164883605654
    vertex 1639.1194091690143 -50.480848369019945 26.20216478674653
  endloop
endfacet
facet normal -6.119071013183013e-15 1.0 -8.456530555826753e-23
  outer loop
    vertex 1645.6194091690143 -50.48084836902012 26.202164883605654
    vertex 1639.1194088349043 -50.480848369019945 48.62353599836669
    vertex 1645.6194088349043 -50.480848369019945 48.623536095225816
  endloop
endfacet
facet normal 1.4901410329728797e-08 6.617444900424222e-24 -1.0
  outer loop
    vertex 1639.119408834904 -28.160106359444264 48.62353599836673
    vertex 1645.6194088349043 -50.480848369019945 48.623536095225816
    vertex 1639.1194088349043 -50.480848369019945 48.62353599836669
  endloop
endfacet
facet normal 1.4901410329728797e-08 6.617444900424222e-24 -1.0
  outer loop
    vertex 1645.6194088349043 -50.480848369019945 48.623536095225816
    vertex 1639.119408834904 -28.160106359444264 48.62353599836673
    vertex 1645.6194088349039 -28.16010635944444 48.62353609522585
  endloop
endfacet
facet normal -1.4773916576483064e-08 0.13052619222006834 0.9914448613738082
  outer loop
    vertex 1658.6194090516965 -40.174580139632404 34.074980676386595
    vertex 1645.6194090533736 -39.32047729079431 33.962535709422255
    vertex 1645.6194090516979 -40.17458013963258 34.07498048266833
  endloop
endfacet
facet normal -1.4773916576483064e-08 0.13052619222006834 0.9914448613738082
  outer loop
    vertex 1645.6194090533736 -39.32047729079431 33.962535709422255
    vertex 1658.6194090516965 -40.174580139632404 34.074980676386595
    vertex 1658.619409053372 -39.32047729079413 33.96253590314051
  endloop
endfacet
facet normal -1.4773914503395761e-08 -0.13052619222004777 0.9914448613738109
  outer loop
    vertex 1658.619409053372 -39.32047729079413 33.96253590314051
    vertex 1645.6194090516979 -38.466374441956035 34.07498048266832
    vertex 1645.6194090533736 -39.32047729079431 33.962535709422255
  endloop
endfacet
facet normal -1.4773914503395761e-08 -0.13052619222004777 0.9914448613738109
  outer loop
    vertex 1645.6194090516979 -38.466374441956035 34.07498048266832
    vertex 1658.619409053372 -39.32047729079413 33.96253590314051
    vertex 1658.6194090516965 -38.46637444195586 34.07498067638659
  endloop
endfacet
facet normal -1.3767094571950048e-08 -0.38268343236509633 0.923879532511284
  outer loop
    vertex 1658.6194090516965 -38.46637444195586 34.07498067638659
    vertex 1645.6194090467854 -37.67047729079451 34.4046518769336
    vertex 1645.6194090516979 -38.466374441956035 34.07498048266832
  endloop
endfacet
facet normal -1.3767094571950048e-08 -0.38268343236509633 0.923879532511284
  outer loop
    vertex 1645.6194090467854 -37.67047729079451 34.4046518769336
    vertex 1658.6194090516965 -38.46637444195586 34.07498067638659
    vertex 1658.6194090467839 -37.670477290794324 34.40465207065186
  endloop
endfacet
facet normal -1.1822069896625908e-08 -0.6087614290086867 0.7933533402912611
  outer loop
    vertex 1658.6194090467839 -37.670477290794324 34.40465207065186
    vertex 1645.6194090389706 -36.987024912878745 34.929083331506625
    vertex 1645.6194090467854 -37.67047729079451 34.4046518769336
  endloop
endfacet
facet normal -1.1822069896625908e-08 -0.6087614290086867 0.7933533402912611
  outer loop
    vertex 1645.6194090389706 -36.987024912878745 34.929083331506625
    vertex 1658.6194090467839 -37.670477290794324 34.40465207065186
    vertex 1658.6194090389693 -36.98702491287857 34.92908352522489
  endloop
endfacet
facet normal -9.071390694740802e-09 -0.7933533402912023 0.6087614290087636
  outer loop
    vertex 1658.6194090389693 -36.98702491287857 34.92908352522489
    vertex 1645.6194090287863 -36.46259345830568 35.61253570942224
    vertex 1645.6194090389706 -36.987024912878745 34.929083331506625
  endloop
endfacet
facet normal -9.071390694740802e-09 -0.7933533402912023 0.6087614290087636
  outer loop
    vertex 1645.6194090287863 -36.46259345830568 35.61253570942224
    vertex 1658.6194090389693 -36.98702491287857 34.92908352522489
    vertex 1658.6194090287847 -36.462593458305506 35.612535903140504
  endloop
endfacet
facet normal -5.70251120819008e-09 -0.9238795325112898 0.3826834323650824
  outer loop
    vertex 1645.6194090287863 -36.46259345830568 35.61253570942224
    vertex 1658.619409016925 -36.132922064040294 36.40843305430218
    vertex 1645.6194090169263 -36.13292206404048 36.40843286058392
  endloop
endfacet
facet normal -5.70251120819008e-09 -0.9238795325112898 0.3826834323650824
  outer loop
    vertex 1658.619409016925 -36.132922064040294 36.40843305430218
    vertex 1645.6194090287863 -36.46259345830568 35.61253570942224
    vertex 1658.6194090287847 -36.462593458305506 35.612535903140504
  endloop
endfacet
facet normal -1.9450150066459686e-09 -0.991444861373823 0.1305261922199552
  outer loop
    vertex 1658.619409016925 -36.132922064040294 36.40843305430218
    vertex 1645.619409004199 -36.02047729079434 37.26253570942224
    vertex 1645.6194090169263 -36.13292206404048 36.40843286058392
  endloop
endfacet
facet normal -1.9450150066459686e-09 -0.991444861373823 0.1305261922199552
  outer loop
    vertex 1645.619409004199 -36.02047729079434 37.26253570942224
    vertex 1658.619409016925 -36.132922064040294 36.40843305430218
    vertex 1658.6194090041975 -36.02047729079416 37.262535903140495
  endloop
endfacet
facet normal 1.945030753309594e-09 -0.9914448613738064 -0.130526192220083
  outer loop
    vertex 1658.6194090041975 -36.02047729079416 37.262535903140495
    vertex 1645.6194089914718 -36.13292206404048 38.116638558260554
    vertex 1645.619409004199 -36.02047729079434 37.26253570942224
  endloop
endfacet
facet normal 1.945030753309594e-09 -0.9914448613738064 -0.130526192220083
  outer loop
    vertex 1645.6194089914718 -36.13292206404048 38.116638558260554
    vertex 1658.6194090041975 -36.02047729079416 37.262535903140495
    vertex 1658.6194089914702 -36.132922064040294 38.11663875197882
  endloop
endfacet
facet normal 5.702525881741038e-09 -0.9238795325113397 -0.3826834323649623
  outer loop
    vertex 1658.6194089914702 -36.132922064040294 38.11663875197882
    vertex 1645.6194089796118 -36.46259345830568 38.91253570942223
    vertex 1645.6194089914718 -36.13292206404048 38.116638558260554
  endloop
endfacet
facet normal 5.702525881741038e-09 -0.9238795325113397 -0.3826834323649623
  outer loop
    vertex 1645.6194089796118 -36.46259345830568 38.91253570942223
    vertex 1658.6194089914702 -36.132922064040294 38.11663875197882
    vertex 1658.6194089796104 -36.462593458305506 38.912535903140494
  endloop
endfacet
facet normal 9.071403295205435e-09 -0.7933533402912417 -0.608761429008712
  outer loop
    vertex 1658.6194089796104 -36.462593458305506 38.912535903140494
    vertex 1645.6194089694275 -36.987024912878745 39.59598808733783
    vertex 1645.6194089796118 -36.46259345830568 38.91253570942223
  endloop
endfacet
facet normal 9.071403295205435e-09 -0.7933533402912417 -0.608761429008712
  outer loop
    vertex 1645.6194089694275 -36.987024912878745 39.59598808733783
    vertex 1658.6194089796104 -36.462593458305506 38.912535903140494
    vertex 1658.6194089694256 -36.98702491287857 39.5959882810561
  endloop
endfacet
facet normal 1.182207956530317e-08 -0.6087614290086781 -0.7933533402912677
  outer loop
    vertex 1645.6194089694275 -36.987024912878745 39.59598808733783
    vertex 1658.6194089616108 -37.670477290794146 40.12041973562914
    vertex 1645.6194089616124 -37.670477290794324 40.12041954191087
  endloop
endfacet
facet normal 1.182207956530317e-08 -0.6087614290086781 -0.7933533402912677
  outer loop
    vertex 1658.6194089616108 -37.670477290794146 40.12041973562914
    vertex 1645.6194089694275 -36.987024912878745 39.59598808733783
    vertex 1658.6194089694256 -36.98702491287857 39.5959882810561
  endloop
endfacet
facet normal 1.3767100649934795e-08 -0.3826834323650658 -0.9238795325112967
  outer loop
    vertex 1645.6194089616124 -37.670477290794324 40.12041954191087
    vertex 1658.6194089566984 -38.46637444195586 40.45009112989443
    vertex 1645.6194089567002 -38.466374441956035 40.45009093617616
  endloop
endfacet
facet normal 1.3767100649934795e-08 -0.3826834323650658 -0.9238795325112967
  outer loop
    vertex 1658.6194089566984 -38.46637444195586 40.45009112989443
    vertex 1645.6194089616124 -37.670477290794324 40.12041954191087
    vertex 1658.6194089616108 -37.670477290794146 40.12041973562914
  endloop
endfacet
facet normal 1.4773916576483064e-08 -0.13052619222006834 -0.9914448613738082
  outer loop
    vertex 1645.6194089567002 -38.466374441956035 40.45009093617616
    vertex 1658.6194089550227 -39.32047729079413 40.56253590314051
    vertex 1645.6194089550247 -39.32047729079431 40.56253570942224
  endloop
endfacet
facet normal 1.4773916576483064e-08 -0.13052619222006834 -0.9914448613738082
  outer loop
    vertex 1658.6194089550227 -39.32047729079413 40.56253590314051
    vertex 1645.6194089567002 -38.466374441956035 40.45009093617616
    vertex 1658.6194089566984 -38.46637444195586 40.45009112989443
  endloop
endfacet
facet normal 1.4773914503395761e-08 0.13052619222004777 -0.9914448613738109
  outer loop
    vertex 1645.6194089550247 -39.32047729079431 40.56253570942224
    vertex 1658.6194089566984 -40.174580139632404 40.45009112989444
    vertex 1645.6194089567002 -40.17458013963258 40.450090936176174
  endloop
endfacet
facet normal 1.4773914503395761e-08 0.13052619222004777 -0.9914448613738109
  outer loop
    vertex 1658.6194089566984 -40.174580139632404 40.45009112989444
    vertex 1645.6194089550247 -39.32047729079431 40.56253570942224
    vertex 1658.6194089550227 -39.32047729079413 40.56253590314051
  endloop
endfacet
facet normal 1.3767094571950048e-08 0.38268343236509633 -0.923879532511284
  outer loop
    vertex 1645.6194089567002 -40.17458013963258 40.450090936176174
    vertex 1658.6194089616108 -40.970477290794115 40.120419735629156
    vertex 1645.6194089616129 -40.97047729079429 40.120419541910884
  endloop
endfacet
facet normal 1.3767094571950048e-08 0.38268343236509633 -0.923879532511284
  outer loop
    vertex 1658.6194089616108 -40.970477290794115 40.120419735629156
    vertex 1645.6194089567002 -40.17458013963258 40.450090936176174
    vertex 1658.6194089566984 -40.174580139632404 40.45009112989444
  endloop
endfacet
facet normal 1.1822069896625908e-08 0.6087614290086867 -0.7933533402912611
  outer loop
    vertex 1645.6194089616129 -40.97047729079429 40.120419541910884
    vertex 1658.6194089694259 -41.65392966870987 39.59598828105614
    vertex 1645.6194089694275 -41.653929668710056 39.595988087337865
  endloop
endfacet
facet normal 1.1822069896625908e-08 0.6087614290086867 -0.7933533402912611
  outer loop
    vertex 1658.6194089694259 -41.65392966870987 39.59598828105614
    vertex 1645.6194089616129 -40.97047729079429 40.120419541910884
    vertex 1658.6194089616108 -40.970477290794115 40.120419735629156
  endloop
endfacet
facet normal 9.071390694740802e-09 0.7933533402912023 -0.6087614290087636
  outer loop
    vertex 1645.6194089694275 -41.653929668710056 39.595988087337865
    vertex 1658.6194089796104 -42.17836112328293 38.912535903140515
    vertex 1645.6194089796118 -42.17836112328312 38.91253570942226
  endloop
endfacet
facet normal 9.071390694740802e-09 0.7933533402912023 -0.6087614290087636
  outer loop
    vertex 1658.6194089796104 -42.17836112328293 38.912535903140515
    vertex 1645.6194089694275 -41.653929668710056 39.595988087337865
    vertex 1658.6194089694259 -41.65392966870987 39.59598828105614
  endloop
endfacet
facet normal 5.70251120819008e-09 0.9238795325112898 -0.3826834323650824
  outer loop
    vertex 1658.6194089796104 -42.17836112328293 38.912535903140515
    vertex 1645.6194089914718 -42.50803251754832 38.11663855826056
    vertex 1645.6194089796118 -42.17836112328312 38.91253570942226
  endloop
endfacet
facet normal 5.70251120819008e-09 0.9238795325112898 -0.3826834323650824
  outer loop
    vertex 1645.6194089914718 -42.50803251754832 38.11663855826056
    vertex 1658.6194089796104 -42.17836112328293 38.912535903140515
    vertex 1658.6194089914702 -42.508032517548145 38.116638751978826
  endloop
endfacet
facet normal 1.9450150066459686e-09 0.991444861373823 -0.1305261922199552
  outer loop
    vertex 1658.6194089914702 -42.508032517548145 38.116638751978826
    vertex 1645.619409004199 -42.620477290794284 37.26253570942226
    vertex 1645.6194089914718 -42.50803251754832 38.11663855826056
  endloop
endfacet
facet normal 1.9450150066459686e-09 0.991444861373823 -0.1305261922199552
  outer loop
    vertex 1645.619409004199 -42.620477290794284 37.26253570942226
    vertex 1658.6194089914702 -42.508032517548145 38.116638751978826
    vertex 1658.6194090041975 -42.6204772907941 37.262535903140524
  endloop
endfacet
facet normal -1.945030753309594e-09 0.9914448613738064 0.130526192220083
  outer loop
    vertex 1645.619409004199 -42.620477290794284 37.26253570942226
    vertex 1658.619409016925 -42.508032517548145 36.40843305430219
    vertex 1645.6194090169263 -42.50803251754832 36.40843286058393
  endloop
endfacet
facet normal -1.945030753309594e-09 0.9914448613738064 0.130526192220083
  outer loop
    vertex 1658.619409016925 -42.508032517548145 36.40843305430219
    vertex 1645.619409004199 -42.620477290794284 37.26253570942226
    vertex 1658.6194090041975 -42.6204772907941 37.262535903140524
  endloop
endfacet
facet normal -5.702525881741038e-09 0.9238795325113397 0.3826834323649623
  outer loop
    vertex 1658.619409016925 -42.508032517548145 36.40843305430219
    vertex 1645.6194090287863 -42.17836112328312 35.61253570942226
    vertex 1645.6194090169263 -42.50803251754832 36.40843286058393
  endloop
endfacet
facet normal -5.702525881741038e-09 0.9238795325113397 0.3826834323649623
  outer loop
    vertex 1645.6194090287863 -42.17836112328312 35.61253570942226
    vertex 1658.619409016925 -42.508032517548145 36.40843305430219
    vertex 1658.6194090287847 -42.17836112328293 35.612535903140525
  endloop
endfacet
facet normal -9.071403295205435e-09 0.7933533402912417 0.608761429008712
  outer loop
    vertex 1645.6194090287863 -42.17836112328312 35.61253570942226
    vertex 1658.6194090389693 -41.65392966870987 34.92908352522491
    vertex 1645.6194090389706 -41.653929668710056 34.92908333150665
  endloop
endfacet
facet normal -9.071403295205435e-09 0.7933533402912417 0.608761429008712
  outer loop
    vertex 1658.6194090389693 -41.65392966870987 34.92908352522491
    vertex 1645.6194090287863 -42.17836112328312 35.61253570942226
    vertex 1658.6194090287847 -42.17836112328293 35.612535903140525
  endloop
endfacet
facet normal -1.182207956530317e-08 0.6087614290086781 0.7933533402912677
  outer loop
    vertex 1658.6194090389693 -41.65392966870987 34.92908352522491
    vertex 1645.6194090467857 -40.97047729079448 34.404651876933606
    vertex 1645.6194090389706 -41.653929668710056 34.92908333150665
  endloop
endfacet
facet normal -1.182207956530317e-08 0.6087614290086781 0.7933533402912677
  outer loop
    vertex 1645.6194090467857 -40.97047729079448 34.404651876933606
    vertex 1658.6194090389693 -41.65392966870987 34.92908352522491
    vertex 1658.6194090467839 -40.97047729079429 34.40465207065187
  endloop
endfacet
facet normal -1.3767100649934795e-08 0.3826834323650658 0.9238795325112967
  outer loop
    vertex 1658.6194090467839 -40.97047729079429 34.40465207065187
    vertex 1645.6194090516979 -40.17458013963258 34.07498048266833
    vertex 1645.6194090467857 -40.97047729079448 34.404651876933606
  endloop
endfacet
facet normal -1.3767100649934795e-08 0.3826834323650658 0.9238795325112967
  outer loop
    vertex 1645.6194090516979 -40.17458013963258 34.07498048266833
    vertex 1658.6194090467839 -40.97047729079429 34.40465207065187
    vertex 1658.6194090516965 -40.174580139632404 34.074980676386595
  endloop
endfacet
endsolid sliced-tower-main
