solid sliced-tower-main
facet normal 4.622967165428034e-22 -4.079380721558729e-14 1.0
  outer loop
    vertex 1805.549869495296 -46.71121929079398 48.532536000001336
    vertex 1813.6919856628076 -37.300848290796175 48.53253600000224
    vertex 1805.549869495296 -24.5904772907935 48.53253600000224
  endloop
endfacet
facet normal 4.622967165428034e-22 -4.079380721558729e-14 1.0
  outer loop
    vertex 1813.6919856628076 -37.300848290796175 48.53253600000224
    vertex 1805.549869495296 -46.71121929079398 48.532536000001336
    vertex 1814.2164171173808 -37.98430066871178 48.53253600000224
  endloop
endfacet
facet normal 4.622967165428034e-22 -4.079380721558729e-14 1.0
  outer loop
    vertex 1814.2164171173808 -37.98430066871178 48.53253600000224
    vertex 1805.549869495296 -46.71121929079398 48.532536000001336
    vertex 1814.8998694952963 -38.50873212328482 48.53253600000224
  endloop
endfacet
facet normal 4.622967165428034e-22 -4.079380721558729e-14 1.0
  outer loop
    vertex 1814.8998694952963 -38.50873212328482 48.53253600000224
    vertex 1805.549869495296 -46.71121929079398 48.532536000001336
    vertex 1827.610240495296 -46.711218790794696 48.532536000001336
  endloop
endfacet
facet normal 4.622967165428034e-22 -4.079380721558729e-14 1.0
  outer loop
    vertex 1805.549869495296 -24.5904772907935 48.53253600000224
    vertex 1813.6919856628076 -37.300848290796175 48.53253600000224
    vertex 1813.3623142685424 -36.5049511396345 48.53253600000224
  endloop
endfacet
facet normal 4.622967165428034e-22 -4.079380721558729e-14 1.0
  outer loop
    vertex 1805.549869495296 -24.5904772907935 48.53253600000224
    vertex 1813.3623142685424 -36.5049511396345 48.53253600000224
    vertex 1813.2498694952963 -35.650848290796176 48.53253600000224
  endloop
endfacet
facet normal 4.622967165428034e-22 -4.079380721558729e-14 1.0
  outer loop
    vertex 1814.8998694952963 -38.50873212328482 48.53253600000224
    vertex 1827.610240495296 -46.711218790794696 48.532536000001336
    vertex 1815.695766646458 -38.8384035175501 48.53253600000224
  endloop
endfacet
facet normal 4.622967165428034e-22 -4.079380721558729e-14 1.0
  outer loop
    vertex 1815.695766646458 -38.8384035175501 48.53253600000224
    vertex 1827.610240495296 -46.711218790794696 48.532536000001336
    vertex 1816.5498694952964 -38.95084829079617 48.53253600000224
  endloop
endfacet
facet normal 4.622967165428034e-22 -4.079380721558729e-14 1.0
  outer loop
    vertex 1816.5498694952964 -38.95084829079617 48.53253600000224
    vertex 1827.610240495296 -46.711218790794696 48.532536000001336
    vertex 1817.4039723441347 -38.8384035175501 48.53253600000224
  endloop
endfacet
facet normal 4.622967165428034e-22 -4.079380721558729e-14 1.0
  outer loop
    vertex 1817.4039723441347 -38.8384035175501 48.53253600000224
    vertex 1827.610240495296 -46.711218790794696 48.532536000001336
    vertex 1818.1998694952963 -38.50873212328482 48.53253600000224
  endloop
endfacet
facet normal 4.622967165428034e-22 -4.079380721558729e-14 1.0
  outer loop
    vertex 1818.1998694952963 -38.50873212328482 48.53253600000224
    vertex 1827.610240495296 -46.711218790794696 48.532536000001336
    vertex 1818.8833218732118 -37.98430066871178 48.53253600000224
  endloop
endfacet
facet normal 4.622967165428034e-22 -4.079380721558729e-14 1.0
  outer loop
    vertex 1818.8833218732118 -37.98430066871178 48.53253600000224
    vertex 1827.610240495296 -46.711218790794696 48.532536000001336
    vertex 1819.407753327785 -37.30084829079617 48.53253600000224
  endloop
endfacet
facet normal 4.622967165428034e-22 -4.079380721558729e-14 1.0
  outer loop
    vertex 1819.407753327785 -37.30084829079617 48.53253600000224
    vertex 1827.610240495296 -46.711218790794696 48.532536000001336
    vertex 1819.7374247220503 -36.50495113963449 48.53253600000224
  endloop
endfacet
facet normal 4.622967165428034e-22 -4.079380721558729e-14 1.0
  outer loop
    vertex 1819.7374247220503 -36.50495113963449 48.53253600000224
    vertex 1827.610240495296 -46.711218790794696 48.532536000001336
    vertex 1819.8498694952964 -35.650848290796176 48.53253600000224
  endloop
endfacet
facet normal 4.622967165428034e-22 -4.079380721558729e-14 1.0
  outer loop
    vertex 1805.549869495296 -24.5904772907935 48.53253600000224
    vertex 1814.8998694952963 -32.79296445830752 48.53253600000224
    vertex 1827.610240495296 -24.5904772907935 48.53253600000224
  endloop
endfacet
facet normal 4.622967165428034e-22 -4.079380721558729e-14 1.0
  outer loop
    vertex 1814.8998694952963 -32.79296445830752 48.53253600000224
    vertex 1805.549869495296 -24.5904772907935 48.53253600000224
    vertex 1814.2164171173808 -33.31739591288056 48.53253600000224
  endloop
endfacet
facet normal 4.622967165428034e-22 -4.079380721558729e-14 1.0
  outer loop
    vertex 1814.2164171173808 -33.31739591288056 48.53253600000224
    vertex 1805.549869495296 -24.5904772907935 48.53253600000224
    vertex 1813.6919856628076 -34.00084829079618 48.53253600000224
  endloop
endfacet
facet normal 4.622967165428034e-22 -4.079380721558729e-14 1.0
  outer loop
    vertex 1813.6919856628076 -34.00084829079618 48.53253600000224
    vertex 1805.549869495296 -24.5904772907935 48.53253600000224
    vertex 1813.3623142685424 -34.79674544195786 48.53253600000224
  endloop
endfacet
facet normal 4.622967165428034e-22 -4.079380721558729e-14 1.0
  outer loop
    vertex 1813.3623142685424 -34.79674544195786 48.53253600000224
    vertex 1805.549869495296 -24.5904772907935 48.53253600000224
    vertex 1813.2498694952963 -35.650848290796176 48.53253600000224
  endloop
endfacet
facet normal 4.622967165428034e-22 -4.079380721558729e-14 1.0
  outer loop
    vertex 1827.610240495296 -24.5904772907935 48.53253600000224
    vertex 1814.8998694952963 -32.79296445830752 48.53253600000224
    vertex 1815.695766646458 -32.46329306404225 48.53253600000224
  endloop
endfacet
facet normal 4.622967165428034e-22 -4.079380721558729e-14 1.0
  outer loop
    vertex 1827.610240495296 -24.5904772907935 48.53253600000224
    vertex 1815.695766646458 -32.46329306404225 48.53253600000224
    vertex 1816.5498694952964 -32.35084829079617 48.53253600000224
  endloop
endfacet
facet normal 4.622967165428034e-22 -4.079380721558729e-14 1.0
  outer loop
    vertex 1827.610240495296 -24.5904772907935 48.53253600000224
    vertex 1816.5498694952964 -32.35084829079617 48.53253600000224
    vertex 1817.4039723441347 -32.46329306404225 48.53253600000224
  endloop
endfacet
facet normal 4.622967165428034e-22 -4.079380721558729e-14 1.0
  outer loop
    vertex 1827.610240495296 -24.5904772907935 48.53253600000224
    vertex 1817.4039723441347 -32.46329306404225 48.53253600000224
    vertex 1818.1998694952963 -32.79296445830752 48.53253600000224
  endloop
endfacet
facet normal 4.622967165428034e-22 -4.079380721558729e-14 1.0
  outer loop
    vertex 1827.610240495296 -24.5904772907935 48.53253600000224
    vertex 1818.1998694952963 -32.79296445830752 48.53253600000224
    vertex 1818.8833218732118 -33.31739591288056 48.53253600000224
  endloop
endfacet
facet normal 4.622967165428034e-22 -4.079380721558729e-14 1.0
  outer loop
    vertex 1827.610240495296 -24.5904772907935 48.53253600000224
    vertex 1818.8833218732118 -33.31739591288056 48.53253600000224
    vertex 1819.407753327785 -34.00084829079617 48.53253600000224
  endloop
endfacet
facet normal 4.622967165428034e-22 -4.079380721558729e-14 1.0
  outer loop
    vertex 1827.610240495296 -24.5904772907935 48.53253600000224
    vertex 1819.407753327785 -34.00084829079617 48.53253600000224
    vertex 1819.7374247220503 -34.79674544195786 48.53253600000224
  endloop
endfacet
facet normal 4.622967165428034e-22 -4.079380721558729e-14 1.0
  outer loop
    vertex 1827.610240495296 -24.5904772907935 48.53253600000224
    vertex 1819.7374247220503 -34.79674544195786 48.53253600000224
    vertex 1819.8498694952964 -35.650848290796176 48.53253600000224
  endloop
endfacet
facet normal 4.622967165428034e-22 -4.079380721558729e-14 1.0
  outer loop
    vertex 1827.610240495296 -24.5904772907935 48.53253600000224
    vertex 1819.8498694952964 -35.650848290796176 48.53253600000224
    vertex 1827.610240495296 -46.711218790794696 48.532536000001336
  endloop
endfacet
facet normal 1.0 1.8858838690526234e-35 -4.622966024653214e-22
  outer loop
    vertex 1827.610240495296 -46.71121879079452 42.03253600000137
    vertex 1827.610240495296 -24.5904772907935 48.53253600000224
    vertex 1827.610240495296 -46.711218790794696 48.532536000001336
  endloop
endfacet
facet normal 1.0 1.8858838690526234e-35 -4.622966024653214e-22
  outer loop
    vertex 1827.610240495296 -24.5904772907935 48.53253600000224
    vertex 1827.610240495296 -46.71121879079452 42.03253600000137
    vertex 1827.610240495296 -24.59047729079332 42.032536000002274
  endloop
endfacet
facet normal 0.0 1.0 4.079380721558736e-14
  outer loop
    vertex 1805.549869495296 -24.5904772907935 48.53253600000224
    vertex 1827.610240495296 -24.59047729079332 42.032536000002274
    vertex 1805.549869495296 -24.59047729079332 42.032536000002274
  endloop
endfacet
facet normal 0.0 1.0 4.079380721558736e-14
  outer loop
    vertex 1827.610240495296 -24.59047729079332 42.032536000002274
    vertex 1805.549869495296 -24.5904772907935 48.53253600000224
    vertex 1827.610240495296 -24.5904772907935 48.53253600000224
  endloop
endfacet
facet normal -1.0 -1.8858838264256474e-35 4.622966024653214e-22
  outer loop
    vertex 1805.549869495296 -24.5904772907935 48.53253600000224
    vertex 1805.549869495296 -46.711219290793615 42.03253600000137
    vertex 1805.549869495296 -46.71121929079398 48.532536000001336
  endloop
endfacet
facet normal -1.0 -1.8858838264256474e-35 4.622966024653214e-22
  outer loop
    vertex 1805.549869495296 -46.711219290793615 42.03253600000137
    vertex 1805.549869495296 -24.5904772907935 48.53253600000224
    vertex 1805.549869495296 -24.59047729079332 42.032536000002274
  endloop
endfacet
facet normal 2.2665038324548254e-08 -0.9999999999999998 -4.0793807215587353e-14
  outer loop
    vertex 1827.610240495296 -46.711218790794696 48.532536000001336
    vertex 1805.549869495296 -46.711219290793615 42.03253600000137
    vertex 1827.610240495296 -46.71121879079452 42.03253600000137
  endloop
endfacet
facet normal 2.2665038324548254e-08 -0.9999999999999998 -4.0793807215587353e-14
  outer loop
    vertex 1805.549869495296 -46.711219290793615 42.03253600000137
    vertex 1827.610240495296 -46.711218790794696 48.532536000001336
    vertex 1805.549869495296 -46.71121929079398 48.532536000001336
  endloop
endfacet
facet normal -1.0 -2.6281141496252893e-16 -4.649573755231342e-16
  outer loop
    vertex 1805.549869495296 -46.711219290793615 42.03253600000137
    vertex 1805.549869495296 -24.590477290793682 29.032535999999997
    vertex 1805.549869495296 -46.71121929079398 29.032536000000178
  endloop
endfacet
facet normal -1.0 -2.6281141496252893e-16 -4.649573755231342e-16
  outer loop
    vertex 1805.549869495296 -24.590477290793682 29.032535999999997
    vertex 1805.549869495296 -46.711219290793615 42.03253600000137
    vertex 1805.549869495296 -24.59047729079332 42.032536000002274
  endloop
endfacet
facet normal 1.0 7.115029694140886e-29 -3.4707279785199773e-15
  outer loop
    vertex 1827.610240495296 -24.590477290793682 29.032535999999997
    vertex 1827.610240495296 -46.71121879079452 42.03253600000137
    vertex 1827.610240495296 -46.711218790794696 29.032535999999997
  endloop
endfacet
facet normal 1.0 7.115029694140886e-29 -3.4707279785199773e-15
  outer loop
    vertex 1827.610240495296 -46.71121879079452 42.03253600000137
    vertex 1827.610240495296 -24.590477290793682 29.032535999999997
    vertex 1827.610240495296 -24.59047729079332 42.032536000002274
  endloop
endfacet
facet normal 2.2665039347184386e-08 -0.9999999999999998 2.082436783101983e-14
  outer loop
    vertex 1827.610240495296 -46.71121879079452 42.03253600000137
    vertex 1805.549869495296 -46.71121929079398 29.032536000000178
    vertex 1827.610240495296 -46.711218790794696 29.032535999999997
  endloop
endfacet
facet normal 2.2665039347184386e-08 -0.9999999999999998 2.082436783101983e-14
  outer loop
    vertex 1805.549869495296 -46.71121929079398 29.032536000000178
    vertex 1827.610240495296 -46.71121879079452 42.03253600000137
    vertex 1805.549869495296 -46.711219290793615 42.03253600000137
  endloop
endfacet
facet normal 8.795414170925058e-31 1.0 -3.514112078251356e-14
  outer loop
    vertex 1805.549869495296 -24.59047729079332 42.032536000002274
    vertex 1827.610240495296 -24.590477290793682 29.032535999999997
    vertex 1805.549869495296 -24.590477290793682 29.032535999999997
  endloop
endfacet
facet normal 8.795414170925058e-31 1.0 -3.514112078251356e-14
  outer loop
    vertex 1827.610240495296 -24.590477290793682 29.032535999999997
    vertex 1805.549869495296 -24.59047729079332 42.032536000002274
    vertex 1827.610240495296 -24.59047729079332 42.032536000002274
  endloop
endfacet
facet normal 2.266504394904697e-08 -0.9999999999999999 4.079380674949897e-15
  outer loop
    vertex 1827.610240495296 -46.711218790794696 29.032535999999997
    vertex 1805.549869495296 -46.71121929079402 22.532536000000178
    vertex 1827.610240495296 -46.71121879079474 22.532536
  endloop
endfacet
facet normal 2.266504394904697e-08 -0.9999999999999999 4.079380674949897e-15
  outer loop
    vertex 1805.549869495296 -46.71121929079402 22.532536000000178
    vertex 1827.610240495296 -46.711218790794696 29.032535999999997
    vertex 1805.549869495296 -46.71121929079398 29.032536000000178
  endloop
endfacet
facet normal -1.0 3.337377532032101e-29 4.0905443712477874e-15
  outer loop
    vertex 1805.549869495296 -46.71121929079398 29.032536000000178
    vertex 1805.549869495296 -24.590477290793725 22.532536
    vertex 1805.549869495296 -46.71121929079402 22.532536000000178
  endloop
endfacet
facet normal -1.0 3.337377532032101e-29 4.0905443712477874e-15
  outer loop
    vertex 1805.549869495296 -24.590477290793725 22.532536
    vertex 1805.549869495296 -46.71121929079398 29.032536000000178
    vertex 1805.549869495296 -24.590477290793682 29.032535999999997
  endloop
endfacet
facet normal 0.0 1.0 -4.079380767662266e-15
  outer loop
    vertex 1805.549869495296 -24.590477290793682 29.032535999999997
    vertex 1827.610240495296 -24.590477290793725 22.532536
    vertex 1805.549869495296 -24.590477290793725 22.532536
  endloop
endfacet
facet normal 0.0 1.0 -4.079380767662266e-15
  outer loop
    vertex 1827.610240495296 -24.590477290793725 22.532536
    vertex 1805.549869495296 -24.590477290793682 29.032535999999997
    vertex 1827.610240495296 -24.590477290793682 29.032535999999997
  endloop
endfacet
facet normal 1.0 0.0 -4.090544371247788e-15
  outer loop
    vertex 1827.610240495296 -24.590477290793725 22.532536
    vertex 1827.610240495296 -46.711218790794696 29.032535999999997
    vertex 1827.610240495296 -46.71121879079474 22.532536
  endloop
endfacet
facet normal 1.0 0.0 -4.090544371247788e-15
  outer loop
    vertex 1827.610240495296 -46.711218790794696 29.032535999999997
    vertex 1827.610240495296 -24.590477290793725 22.532536
    vertex 1827.610240495296 -24.590477290793682 29.032535999999997
  endloop
endfacet
facet normal -4.090544371247821e-15 -4.079380767662266e-15 -1.0
  outer loop
    vertex 1805.549869495296 -24.590477290793725 22.532536
    vertex 1813.6919856628076 -34.00084829079618 22.532536000000004
    vertex 1805.549869495296 -46.71121929079402 22.532536000000178
  endloop
endfacet
facet normal -4.090544371247821e-15 -4.079380767662266e-15 -1.0
  outer loop
    vertex 1813.6919856628076 -34.00084829079618 22.532536000000004
    vertex 1805.549869495296 -24.590477290793725 22.532536
    vertex 1814.2164171173808 -33.31739591288056 22.532536000000004
  endloop
endfacet
facet normal -4.090544371247821e-15 -4.079380767662266e-15 -1.0
  outer loop
    vertex 1814.2164171173808 -33.31739591288056 22.532536000000004
    vertex 1805.549869495296 -24.590477290793725 22.532536
    vertex 1814.8998694952963 -32.79296445830752 22.532536000000004
  endloop
endfacet
facet normal -4.090544371247821e-15 -4.079380767662266e-15 -1.0
  outer loop
    vertex 1814.8998694952963 -32.79296445830752 22.532536000000004
    vertex 1805.549869495296 -24.590477290793725 22.532536
    vertex 1827.610240495296 -24.590477290793725 22.532536
  endloop
endfacet
facet normal -4.090544371247821e-15 -4.079380767662266e-15 -1.0
  outer loop
    vertex 1805.549869495296 -46.71121929079402 22.532536000000178
    vertex 1813.6919856628076 -34.00084829079618 22.532536000000004
    vertex 1813.3623142685424 -34.79674544195786 22.532536000000004
  endloop
endfacet
facet normal -4.090544371247821e-15 -4.079380767662266e-15 -1.0
  outer loop
    vertex 1805.549869495296 -46.71121929079402 22.532536000000178
    vertex 1813.3623142685424 -34.79674544195786 22.532536000000004
    vertex 1813.2498694952963 -35.650848290796176 22.532536000000004
  endloop
endfacet
facet normal -4.090544371247821e-15 -4.079380767662266e-15 -1.0
  outer loop
    vertex 1814.8998694952963 -32.79296445830752 22.532536000000004
    vertex 1827.610240495296 -24.590477290793725 22.532536
    vertex 1815.695766646458 -32.46329306404225 22.532536000000004
  endloop
endfacet
facet normal -4.090544371247821e-15 -4.079380767662266e-15 -1.0
  outer loop
    vertex 1815.695766646458 -32.46329306404225 22.532536000000004
    vertex 1827.610240495296 -24.590477290793725 22.532536
    vertex 1816.5498694952964 -32.35084829079617 22.532536000000004
  endloop
endfacet
facet normal -4.090544371247821e-15 -4.079380767662266e-15 -1.0
  outer loop
    vertex 1816.5498694952964 -32.35084829079617 22.532536000000004
    vertex 1827.610240495296 -24.590477290793725 22.532536
    vertex 1817.4039723441347 -32.46329306404225 22.532536000000004
  endloop
endfacet
facet normal -4.090544371247821e-15 -4.079380767662266e-15 -1.0
  outer loop
    vertex 1817.4039723441347 -32.46329306404225 22.532536000000004
    vertex 1827.610240495296 -24.590477290793725 22.532536
    vertex 1818.1998694952963 -32.79296445830752 22.532536000000004
  endloop
endfacet
facet normal -4.090544371247821e-15 -4.079380767662266e-15 -1.0
  outer loop
    vertex 1818.1998694952963 -32.79296445830752 22.532536000000004
    vertex 1827.610240495296 -24.590477290793725 22.532536
    vertex 1818.8833218732118 -33.31739591288056 22.532536000000004
  endloop
endfacet
facet normal -4.090544371247821e-15 -4.079380767662266e-15 -1.0
  outer loop
    vertex 1818.8833218732118 -33.31739591288056 22.532536000000004
    vertex 1827.610240495296 -24.590477290793725 22.532536
    vertex 1819.407753327785 -34.00084829079617 22.532536000000004
  endloop
endfacet
facet normal -4.090544371247821e-15 -4.079380767662266e-15 -1.0
  outer loop
    vertex 1819.407753327785 -34.00084829079617 22.532536000000004
    vertex 1827.610240495296 -24.590477290793725 22.532536
    vertex 1819.7374247220503 -34.79674544195786 22.532536000000004
  endloop
endfacet
facet normal -4.090544371247821e-15 -4.079380767662266e-15 -1.0
  outer loop
    vertex 1819.7374247220503 -34.79674544195786 22.532536000000004
    vertex 1827.610240495296 -24.590477290793725 22.532536
    vertex 1819.8498694952964 -35.650848290796176 22.532536000000004
  endloop
endfacet
facet normal -4.090544371247821e-15 -4.079380767662266e-15 -1.0
  outer loop
    vertex 1805.549869495296 -46.71121929079402 22.532536000000178
    vertex 1814.8998694952963 -38.50873212328482 22.532536000000004
    vertex 1827.610240495296 -46.71121879079474 22.532536
  endloop
endfacet
facet normal -4.090544371247821e-15 -4.079380767662266e-15 -1.0
  outer loop
    vertex 1814.8998694952963 -38.50873212328482 22.532536000000004
    vertex 1805.549869495296 -46.71121929079402 22.532536000000178
    vertex 1814.2164171173808 -37.98430066871178 22.532536000000004
  endloop
endfacet
facet normal -4.090544371247821e-15 -4.079380767662266e-15 -1.0
  outer loop
    vertex 1814.2164171173808 -37.98430066871178 22.532536000000004
    vertex 1805.549869495296 -46.71121929079402 22.532536000000178
    vertex 1813.6919856628076 -37.300848290796175 22.532536000000004
  endloop
endfacet
facet normal -4.090544371247821e-15 -4.079380767662266e-15 -1.0
  outer loop
    vertex 1813.6919856628076 -37.300848290796175 22.532536000000004
    vertex 1805.549869495296 -46.71121929079402 22.532536000000178
    vertex 1813.3623142685424 -36.5049511396345 22.532536000000004
  endloop
endfacet
facet normal -4.090544371247821e-15 -4.079380767662266e-15 -1.0
  outer loop
    vertex 1813.3623142685424 -36.5049511396345 22.532536000000004
    vertex 1805.549869495296 -46.71121929079402 22.532536000000178
    vertex 1813.2498694952963 -35.650848290796176 22.532536000000004
  endloop
endfacet
facet normal -4.090544371247821e-15 -4.079380767662266e-15 -1.0
  outer loop
    vertex 1827.610240495296 -46.71121879079474 22.532536
    vertex 1814.8998694952963 -38.50873212328482 22.532536000000004
    vertex 1815.695766646458 -38.8384035175501 22.532536000000004
  endloop
endfacet
facet normal -4.090544371247821e-15 -4.079380767662266e-15 -1.0
  outer loop
    vertex 1827.610240495296 -46.71121879079474 22.532536
    vertex 1815.695766646458 -38.8384035175501 22.532536000000004
    vertex 1816.5498694952964 -38.95084829079617 22.532536000000004
  endloop
endfacet
facet normal -4.090544371247821e-15 -4.079380767662266e-15 -1.0
  outer loop
    vertex 1827.610240495296 -46.71121879079474 22.532536
    vertex 1816.5498694952964 -38.95084829079617 22.532536000000004
    vertex 1817.4039723441347 -38.8384035175501 22.532536000000004
  endloop
endfacet
facet normal -4.090544371247821e-15 -4.079380767662266e-15 -1.0
  outer loop
    vertex 1827.610240495296 -46.71121879079474 22.532536
    vertex 1817.4039723441347 -38.8384035175501 22.532536000000004
    vertex 1818.1998694952963 -38.50873212328482 22.532536000000004
  endloop
endfacet
facet normal -4.090544371247821e-15 -4.079380767662266e-15 -1.0
  outer loop
    vertex 1827.610240495296 -46.71121879079474 22.532536
    vertex 1818.1998694952963 -38.50873212328482 22.532536000000004
    vertex 1818.8833218732118 -37.98430066871178 22.532536000000004
  endloop
endfacet
facet normal -4.090544371247821e-15 -4.079380767662266e-15 -1.0
  outer loop
    vertex 1827.610240495296 -46.71121879079474 22.532536
    vertex 1818.8833218732118 -37.98430066871178 22.532536000000004
    vertex 1819.407753327785 -37.30084829079617 22.532536000000004
  endloop
endfacet
facet normal -4.090544371247821e-15 -4.079380767662266e-15 -1.0
  outer loop
    vertex 1827.610240495296 -46.71121879079474 22.532536
    vertex 1819.407753327785 -37.30084829079617 22.532536000000004
    vertex 1819.7374247220503 -36.50495113963449 22.532536000000004
  endloop
endfacet
facet normal -4.090544371247821e-15 -4.079380767662266e-15 -1.0
  outer loop
    vertex 1827.610240495296 -46.71121879079474 22.532536
    vertex 1819.7374247220503 -36.50495113963449 22.532536000000004
    vertex 1819.8498694952964 -35.650848290796176 22.532536000000004
  endloop
endfacet
facet normal -4.090544371247821e-15 -4.079380767662266e-15 -1.0
  outer loop
    vertex 1827.610240495296 -46.71121879079474 22.532536
    vertex 1819.8498694952964 -35.650848290796176 22.532536000000004
    vertex 1827.610240495296 -24.590477290793725 22.532536
  endloop
endfacet
facet normal -0.1305261922200581 -0.9914448613738097 -0.0
  outer loop
    vertex 1817.4039723441347 -32.46329306404225 48.53253600000224
    vertex 1816.5498694952964 -32.35084829079617 22.532536000000004
    vertex 1817.4039723441347 -32.46329306404225 22.532536000000004
  endloop
endfacet
facet normal -0.1305261922200581 -0.9914448613738097 -0.0
  outer loop
    vertex 1816.5498694952964 -32.35084829079617 22.532536000000004
    vertex 1817.4039723441347 -32.46329306404225 48.53253600000224
    vertex 1816.5498694952964 -32.35084829079617 48.53253600000224
  endloop
endfacet
facet normal 0.1305261922200581 -0.9914448613738097 0.0
  outer loop
    vertex 1816.5498694952964 -32.35084829079617 48.53253600000224
    vertex 1815.695766646458 -32.46329306404225 22.532536000000004
    vertex 1816.5498694952964 -32.35084829079617 22.532536000000004
  endloop
endfacet
facet normal 0.1305261922200581 -0.9914448613738097 0.0
  outer loop
    vertex 1815.695766646458 -32.46329306404225 22.532536000000004
    vertex 1816.5498694952964 -32.35084829079617 48.53253600000224
    vertex 1815.695766646458 -32.46329306404225 48.53253600000224
  endloop
endfacet
facet normal 0.3826834323650755 -0.9238795325112927 0.0
  outer loop
    vertex 1815.695766646458 -32.46329306404225 48.53253600000224
    vertex 1814.8998694952963 -32.79296445830752 22.532536000000004
    vertex 1815.695766646458 -32.46329306404225 22.532536000000004
  endloop
endfacet
facet normal 0.3826834323650755 -0.9238795325112927 0.0
  outer loop
    vertex 1814.8998694952963 -32.79296445830752 22.532536000000004
    vertex 1815.695766646458 -32.46329306404225 48.53253600000224
    vertex 1814.8998694952963 -32.79296445830752 48.53253600000224
  endloop
endfacet
facet normal 0.6087614290087371 -0.7933533402912225 0.0
  outer loop
    vertex 1814.8998694952963 -32.79296445830752 48.53253600000224
    vertex 1814.2164171173808 -33.31739591288056 22.532536000000004
    vertex 1814.8998694952963 -32.79296445830752 22.532536000000004
  endloop
endfacet
facet normal 0.6087614290087371 -0.7933533402912225 0.0
  outer loop
    vertex 1814.2164171173808 -33.31739591288056 22.532536000000004
    vertex 1814.8998694952963 -32.79296445830752 48.53253600000224
    vertex 1814.2164171173808 -33.31739591288056 48.53253600000224
  endloop
endfacet
facet normal 0.7933533402911233 -0.6087614290088664 0.0
  outer loop
    vertex 1814.2164171173808 -33.31739591288056 22.532536000000004
    vertex 1813.6919856628076 -34.00084829079618 48.53253600000224
    vertex 1813.6919856628076 -34.00084829079618 22.532536000000004
  endloop
endfacet
facet normal 0.7933533402911233 -0.6087614290088664 0.0
  outer loop
    vertex 1813.6919856628076 -34.00084829079618 48.53253600000224
    vertex 1814.2164171173808 -33.31739591288056 22.532536000000004
    vertex 1814.2164171173808 -33.31739591288056 48.53253600000224
  endloop
endfacet
facet normal 0.9238795325113888 -0.3826834323648435 0.0
  outer loop
    vertex 1813.6919856628076 -34.00084829079618 22.532536000000004
    vertex 1813.3623142685424 -34.79674544195786 48.53253600000224
    vertex 1813.3623142685424 -34.79674544195786 22.532536000000004
  endloop
endfacet
facet normal 0.9238795325113888 -0.3826834323648435 0.0
  outer loop
    vertex 1813.3623142685424 -34.79674544195786 48.53253600000224
    vertex 1813.6919856628076 -34.00084829079618 22.532536000000004
    vertex 1813.6919856628076 -34.00084829079618 48.53253600000224
  endloop
endfacet
facet normal 0.9914448613738013 -0.1305261922201221 0.0
  outer loop
    vertex 1813.3623142685424 -34.79674544195786 22.532536000000004
    vertex 1813.2498694952963 -35.650848290796176 48.53253600000224
    vertex 1813.2498694952963 -35.650848290796176 22.532536000000004
  endloop
endfacet
facet normal 0.9914448613738013 -0.1305261922201221 0.0
  outer loop
    vertex 1813.2498694952963 -35.650848290796176 48.53253600000224
    vertex 1813.3623142685424 -34.79674544195786 22.532536000000004
    vertex 1813.3623142685424 -34.79674544195786 48.53253600000224
  endloop
endfacet
facet normal 0.9914448613738013 0.13052619222012124 0.0
  outer loop
    vertex 1813.2498694952963 -35.650848290796176 22.532536000000004
    vertex 1813.3623142685424 -36.5049511396345 48.53253600000224
    vertex 1813.3623142685424 -36.5049511396345 22.532536000000004
  endloop
endfacet
facet normal 0.9914448613738013 0.13052619222012124 0.0
  outer loop
    vertex 1813.3623142685424 -36.5049511396345 48.53253600000224
    vertex 1813.2498694952963 -35.650848290796176 22.532536000000004
    vertex 1813.2498694952963 -35.650848290796176 48.53253600000224
  endloop
endfacet
facet normal 0.9238795325113888 0.3826834323648435 0.0
  outer loop
    vertex 1813.3623142685424 -36.5049511396345 22.532536000000004
    vertex 1813.6919856628076 -37.300848290796175 48.53253600000224
    vertex 1813.6919856628076 -37.300848290796175 22.532536000000004
  endloop
endfacet
facet normal 0.9238795325113888 0.3826834323648435 0.0
  outer loop
    vertex 1813.6919856628076 -37.300848290796175 48.53253600000224
    vertex 1813.3623142685424 -36.5049511396345 22.532536000000004
    vertex 1813.3623142685424 -36.5049511396345 48.53253600000224
  endloop
endfacet
facet normal 0.7933533402911209 0.6087614290088696 0.0
  outer loop
    vertex 1813.6919856628076 -37.300848290796175 22.532536000000004
    vertex 1814.2164171173808 -37.98430066871178 48.53253600000224
    vertex 1814.2164171173808 -37.98430066871178 22.532536000000004
  endloop
endfacet
facet normal 0.7933533402911209 0.6087614290088696 0.0
  outer loop
    vertex 1814.2164171173808 -37.98430066871178 48.53253600000224
    vertex 1813.6919856628076 -37.300848290796175 22.532536000000004
    vertex 1813.6919856628076 -37.300848290796175 48.53253600000224
  endloop
endfacet
facet normal 0.6087614290087371 0.7933533402912225 0.0
  outer loop
    vertex 1814.2164171173808 -37.98430066871178 48.53253600000224
    vertex 1814.8998694952963 -38.50873212328482 22.532536000000004
    vertex 1814.2164171173808 -37.98430066871178 22.532536000000004
  endloop
endfacet
facet normal 0.6087614290087371 0.7933533402912225 0.0
  outer loop
    vertex 1814.8998694952963 -38.50873212328482 22.532536000000004
    vertex 1814.2164171173808 -37.98430066871178 48.53253600000224
    vertex 1814.8998694952963 -38.50873212328482 48.53253600000224
  endloop
endfacet
facet normal 0.3826834323650755 0.9238795325112927 0.0
  outer loop
    vertex 1814.8998694952963 -38.50873212328482 48.53253600000224
    vertex 1815.695766646458 -38.8384035175501 22.532536000000004
    vertex 1814.8998694952963 -38.50873212328482 22.532536000000004
  endloop
endfacet
facet normal 0.3826834323650755 0.9238795325112927 0.0
  outer loop
    vertex 1815.695766646458 -38.8384035175501 22.532536000000004
    vertex 1814.8998694952963 -38.50873212328482 48.53253600000224
    vertex 1815.695766646458 -38.8384035175501 48.53253600000224
  endloop
endfacet
facet normal 0.1305261922200581 0.9914448613738097 0.0
  outer loop
    vertex 1815.695766646458 -38.8384035175501 48.53253600000224
    vertex 1816.5498694952964 -38.95084829079617 22.532536000000004
    vertex 1815.695766646458 -38.8384035175501 22.532536000000004
  endloop
endfacet
facet normal 0.1305261922200581 0.9914448613738097 0.0
  outer loop
    vertex 1816.5498694952964 -38.95084829079617 22.532536000000004
    vertex 1815.695766646458 -38.8384035175501 48.53253600000224
    vertex 1816.5498694952964 -38.95084829079617 48.53253600000224
  endloop
endfacet
facet normal -0.1305261922200581 0.9914448613738097 0.0
  outer loop
    vertex 1816.5498694952964 -38.95084829079617 48.53253600000224
    vertex 1817.4039723441347 -38.8384035175501 22.532536000000004
    vertex 1816.5498694952964 -38.95084829079617 22.532536000000004
  endloop
endfacet
facet normal -0.1305261922200581 0.9914448613738097 0.0
  outer loop
    vertex 1817.4039723441347 -38.8384035175501 22.532536000000004
    vertex 1816.5498694952964 -38.95084829079617 48.53253600000224
    vertex 1817.4039723441347 -38.8384035175501 48.53253600000224
  endloop
endfacet
facet normal -0.3826834323650755 0.9238795325112927 0.0
  outer loop
    vertex 1817.4039723441347 -38.8384035175501 48.53253600000224
    vertex 1818.1998694952963 -38.50873212328482 22.532536000000004
    vertex 1817.4039723441347 -38.8384035175501 22.532536000000004
  endloop
endfacet
facet normal -0.3826834323650755 0.9238795325112927 0.0
  outer loop
    vertex 1818.1998694952963 -38.50873212328482 22.532536000000004
    vertex 1817.4039723441347 -38.8384035175501 48.53253600000224
    vertex 1818.1998694952963 -38.50873212328482 48.53253600000224
  endloop
endfacet
facet normal -0.6087614290087371 0.7933533402912225 0.0
  outer loop
    vertex 1818.1998694952963 -38.50873212328482 48.53253600000224
    vertex 1818.8833218732118 -37.98430066871178 22.532536000000004
    vertex 1818.1998694952963 -38.50873212328482 22.532536000000004
  endloop
endfacet
facet normal -0.6087614290087371 0.7933533402912225 0.0
  outer loop
    vertex 1818.8833218732118 -37.98430066871178 22.532536000000004
    vertex 1818.1998694952963 -38.50873212328482 48.53253600000224
    vertex 1818.8833218732118 -37.98430066871178 48.53253600000224
  endloop
endfacet
facet normal -0.7933533402911233 0.6087614290088664 0.0
  outer loop
    vertex 1819.407753327785 -37.30084829079617 48.53253600000224
    vertex 1818.8833218732118 -37.98430066871178 22.532536000000004
    vertex 1818.8833218732118 -37.98430066871178 48.53253600000224
  endloop
endfacet
facet normal -0.7933533402911233 0.6087614290088664 0.0
  outer loop
    vertex 1818.8833218732118 -37.98430066871178 22.532536000000004
    vertex 1819.407753327785 -37.30084829079617 48.53253600000224
    vertex 1819.407753327785 -37.30084829079617 22.532536000000004
  endloop
endfacet
facet normal -0.9238795325113888 0.3826834323648435 0.0
  outer loop
    vertex 1819.7374247220503 -36.50495113963449 48.53253600000224
    vertex 1819.407753327785 -37.30084829079617 22.532536000000004
    vertex 1819.407753327785 -37.30084829079617 48.53253600000224
  endloop
endfacet
facet normal -0.9238795325113888 0.3826834323648435 0.0
  outer loop
    vertex 1819.407753327785 -37.30084829079617 22.532536000000004
    vertex 1819.7374247220503 -36.50495113963449 48.53253600000224
    vertex 1819.7374247220503 -36.50495113963449 22.532536000000004
  endloop
endfacet
facet normal -0.9914448613738013 0.1305261922201221 0.0
  outer loop
    vertex 1819.8498694952964 -35.650848290796176 48.53253600000224
    vertex 1819.7374247220503 -36.50495113963449 22.532536000000004
    vertex 1819.7374247220503 -36.50495113963449 48.53253600000224
  endloop
endfacet
facet normal -0.9914448613738013 0.1305261922201221 0.0
  outer loop
    vertex 1819.7374247220503 -36.50495113963449 22.532536000000004
    vertex 1819.8498694952964 -35.650848290796176 48.53253600000224
    vertex 1819.8498694952964 -35.650848290796176 22.532536000000004
  endloop
endfacet
facet normal -0.9914448613738013 -0.1305261922201221 -0.0
  outer loop
    vertex 1819.7374247220503 -34.79674544195786 48.53253600000224
    vertex 1819.8498694952964 -35.650848290796176 22.532536000000004
    vertex 1819.8498694952964 -35.650848290796176 48.53253600000224
  endloop
endfacet
facet normal -0.9914448613738013 -0.1305261922201221 -0.0
  outer loop
    vertex 1819.8498694952964 -35.650848290796176 22.532536000000004
    vertex 1819.7374247220503 -34.79674544195786 48.53253600000224
    vertex 1819.7374247220503 -34.79674544195786 22.532536000000004
  endloop
endfacet
facet normal -0.9238795325113897 -0.38268343236484115 -0.0
  outer loop
    vertex 1819.407753327785 -34.00084829079617 48.53253600000224
    vertex 1819.7374247220503 -34.79674544195786 22.532536000000004
    vertex 1819.7374247220503 -34.79674544195786 48.53253600000224
  endloop
endfacet
facet normal -0.9238795325113897 -0.38268343236484115 -0.0
  outer loop
    vertex 1819.7374247220503 -34.79674544195786 22.532536000000004
    vertex 1819.407753327785 -34.00084829079617 48.53253600000224
    vertex 1819.407753327785 -34.00084829079617 22.532536000000004
  endloop
endfacet
facet normal -0.7933533402911209 -0.6087614290088696 -0.0
  outer loop
    vertex 1818.8833218732118 -33.31739591288056 48.53253600000224
    vertex 1819.407753327785 -34.00084829079617 22.532536000000004
    vertex 1819.407753327785 -34.00084829079617 48.53253600000224
  endloop
endfacet
facet normal -0.7933533402911209 -0.6087614290088696 -0.0
  outer loop
    vertex 1819.407753327785 -34.00084829079617 22.532536000000004
    vertex 1818.8833218732118 -33.31739591288056 48.53253600000224
    vertex 1818.8833218732118 -33.31739591288056 22.532536000000004
  endloop
endfacet
facet normal -0.6087614290087371 -0.7933533402912225 -0.0
  outer loop
    vertex 1818.8833218732118 -33.31739591288056 48.53253600000224
    vertex 1818.1998694952963 -32.79296445830752 22.532536000000004
    vertex 1818.8833218732118 -33.31739591288056 22.532536000000004
  endloop
endfacet
facet normal -0.6087614290087371 -0.7933533402912225 -0.0
  outer loop
    vertex 1818.1998694952963 -32.79296445830752 22.532536000000004
    vertex 1818.8833218732118 -33.31739591288056 48.53253600000224
    vertex 1818.1998694952963 -32.79296445830752 48.53253600000224
  endloop
endfacet
facet normal -0.3826834323650755 -0.9238795325112927 -0.0
  outer loop
    vertex 1818.1998694952963 -32.79296445830752 48.53253600000224
    vertex 1817.4039723441347 -32.46329306404225 22.532536000000004
    vertex 1818.1998694952963 -32.79296445830752 22.532536000000004
  endloop
endfacet
facet normal -0.3826834323650755 -0.9238795325112927 -0.0
  outer loop
    vertex 1817.4039723441347 -32.46329306404225 22.532536000000004
    vertex 1818.1998694952963 -32.79296445830752 48.53253600000224
    vertex 1817.4039723441347 -32.46329306404225 48.53253600000224
  endloop
endfacet
endsolid sliced-tower-main
