solid sliced-tower-main
facet normal -1.265520412382117e-29 -1.0 -1.0171710255736267e-14
  outer loop
    vertex 1749.8406235461227 -54.050477290793836 48.53253599999887
    vertex 1720.3806235461232 -54.050477290792976 22.532536000000462
    vertex 1749.8406235461227 -54.050477290792976 22.53253600000045
  endloop
endfacet
facet normal -1.265520412382117e-29 -1.0 -1.0171710255736267e-14
  outer loop
    vertex 1720.3806235461232 -54.050477290792976 22.532536000000462
    vertex 1749.8406235461227 -54.050477290793836 48.53253599999887
    vertex 1720.3806235461227 -54.050477290793836 48.5325359999989
  endloop
endfacet
facet normal -1.0 1.0808046539576915e-28 -4.458699893563301e-15
  outer loop
    vertex 1720.3806235461227 -24.590477290794652 48.5325359999995
    vertex 1720.3806235461232 -54.050477290792976 22.532536000000462
    vertex 1720.3806235461227 -54.050477290793836 48.5325359999989
  endloop
endfacet
facet normal -1.0 1.0808046539576915e-28 -4.458699893563301e-15
  outer loop
    vertex 1720.3806235461232 -54.050477290792976 22.532536000000462
    vertex 1720.3806235461227 -24.590477290794652 48.5325359999995
    vertex 1720.3806235461232 -24.590477290793725 22.532536
  endloop
endfacet
facet normal -4.8574199366039214e-15 -7.10169684248438e-15 1.0
  outer loop
    vertex 1720.3806235461227 -54.050477290793836 48.5325359999989
    vertex 1724.0502525461225 -50.380847790794206 48.53253600000005
    vertex 1720.3806235461227 -24.590477290794652 48.5325359999995
  endloop
endfacet
facet normal -4.8574199366039214e-15 -7.10169684248438e-15 1.0
  outer loop
    vertex 1724.0502525461225 -50.380847790794206 48.53253600000005
    vertex 1720.3806235461227 -54.050477290793836 48.5325359999989
    vertex 1749.8406235461227 -54.050477290793836 48.53253599999887
  endloop
endfacet
facet normal -4.8574199366039214e-15 -7.10169684248438e-15 1.0
  outer loop
    vertex 1724.0502525461225 -50.380847790794206 48.53253600000005
    vertex 1749.8406235461227 -54.050477290793836 48.53253599999887
    vertex 1746.1106235461227 -50.38084829079335 48.53253600000003
  endloop
endfacet
facet normal -4.8574199366039214e-15 -7.10169684248438e-15 1.0
  outer loop
    vertex 1746.1106235461227 -50.38084829079335 48.53253600000003
    vertex 1749.8406235461227 -54.050477290793836 48.53253599999887
    vertex 1746.1106235461227 -28.26010629079308 48.532535999999396
  endloop
endfacet
facet normal -4.8574199366039214e-15 -7.10169684248438e-15 1.0
  outer loop
    vertex 1720.3806235461227 -24.590477290794652 48.5325359999995
    vertex 1724.0502525461225 -28.26010629079308 48.53253599999924
    vertex 1749.8406235461227 -24.590477290794606 48.53253599999983
  endloop
endfacet
facet normal -4.8574199366039214e-15 -7.10169684248438e-15 1.0
  outer loop
    vertex 1724.0502525461225 -28.26010629079308 48.53253599999924
    vertex 1720.3806235461227 -24.590477290794652 48.5325359999995
    vertex 1724.0502525461225 -50.380847790794206 48.53253600000005
  endloop
endfacet
facet normal -4.8574199366039214e-15 -7.10169684248438e-15 1.0
  outer loop
    vertex 1749.8406235461227 -24.590477290794606 48.53253599999983
    vertex 1724.0502525461225 -28.26010629079308 48.53253599999924
    vertex 1746.1106235461227 -28.26010629079308 48.532535999999396
  endloop
endfacet
facet normal -4.8574199366039214e-15 -7.10169684248438e-15 1.0
  outer loop
    vertex 1749.8406235461227 -24.590477290794606 48.53253599999983
    vertex 1746.1106235461227 -28.26010629079308 48.532535999999396
    vertex 1749.8406235461227 -54.050477290793836 48.53253599999887
  endloop
endfacet
facet normal 1.265520412382117e-29 1.0 1.0171710255736267e-14
  outer loop
    vertex 1720.3806235461227 -24.590477290794652 48.5325359999995
    vertex 1749.8406235461227 -24.590477290793725 22.53253600000031
    vertex 1720.3806235461232 -24.590477290793725 22.532536
  endloop
endfacet
facet normal 1.265520412382117e-29 1.0 1.0171710255736267e-14
  outer loop
    vertex 1749.8406235461227 -24.590477290793725 22.53253600000031
    vertex 1720.3806235461227 -24.590477290794652 48.5325359999995
    vertex 1749.8406235461227 -24.590477290794606 48.53253599999983
  endloop
endfacet
facet normal 1.0 -1.0025627823659808e-28 3.5910178989331486e-15
  outer loop
    vertex 1749.8406235461227 -54.050477290792976 22.53253600000045
    vertex 1749.8406235461227 -24.590477290794606 48.53253599999983
    vertex 1749.8406235461227 -54.050477290793836 48.53253599999887
  endloop
endfacet
facet normal 1.0 -1.0025627823659808e-28 3.5910178989331486e-15
  outer loop
    vertex 1749.8406235461227 -24.590477290794606 48.53253599999983
    vertex 1749.8406235461227 -54.050477290792976 22.53253600000045
    vertex 1749.8406235461227 -24.590477290793725 22.53253600000031
  endloop
endfacet
facet normal 3.5910178989331486e-15 2.1231598931172663e-14 -1.0
  outer loop
    vertex 1749.8406235461227 -24.590477290793725 22.53253600000031
    vertex 1720.3806235461232 -54.050477290792976 22.532536000000462
    vertex 1720.3806235461232 -24.590477290793725 22.532536
  endloop
endfacet
facet normal 3.5910178989331486e-15 2.1231598931172663e-14 -1.0
  outer loop
    vertex 1720.3806235461232 -54.050477290792976 22.532536000000462
    vertex 1749.8406235461227 -24.590477290793725 22.53253600000031
    vertex 1749.8406235461227 -54.050477290792976 22.53253600000045
  endloop
endfacet
facet normal -1.0 -3.702623290359082e-15 3.644030218006295e-15
  outer loop
    vertex 1746.1106235461227 -28.26010629079308 48.532535999999396
    vertex 1746.1106235461227 -50.380847790794434 42.03253599999951
    vertex 1746.1106235461227 -50.38084829079335 48.53253600000003
  endloop
endfacet
facet normal -1.0 -3.702623290359082e-15 3.644030218006295e-15
  outer loop
    vertex 1746.1106235461227 -50.380847790794434 42.03253599999951
    vertex 1746.1106235461227 -28.26010629079308 48.532535999999396
    vertex 1746.1106235461232 -47.380848256795325 42.01000600000074
  endloop
endfacet
facet normal -1.0 -3.702623290359082e-15 3.644030218006295e-15
  outer loop
    vertex 1746.1106235461232 -47.380848256795325 42.01000600000074
    vertex 1746.1106235461227 -28.26010629079308 48.532535999999396
    vertex 1746.1106235461232 -31.260106290793345 42.010006000000224
  endloop
endfacet
facet normal -1.0 -3.702623290359082e-15 3.644030218006295e-15
  outer loop
    vertex 1746.1106235461232 -47.380848256795325 42.01000600000074
    vertex 1746.1106235461232 -31.260106290793345 42.010006000000224
    vertex 1746.1106235461227 -31.260106290794 26.192535999999727
  endloop
endfacet
facet normal -1.0 -3.702623290359082e-15 3.644030218006295e-15
  outer loop
    vertex 1746.1106235461232 -31.260106290793345 42.010006000000224
    vertex 1746.1106235461227 -28.26010629079308 48.532535999999396
    vertex 1746.1106235461227 -28.260106290793285 42.032535999999965
  endloop
endfacet
facet normal -1.0 -3.702623290359082e-15 3.644030218006295e-15
  outer loop
    vertex 1746.1106235461227 -31.260106290794 26.192535999999727
    vertex 1746.1106235461227 -47.38084825679652 26.192536000000246
    vertex 1746.1106235461232 -47.380848256795325 42.01000600000074
  endloop
endfacet
facet normal -2.7705399001095003e-14 -1.0 4.2506469630780486e-14
  outer loop
    vertex 1743.1106235461227 -28.26010629079398 26.19253599999965
    vertex 1727.0502525461213 -28.2601062907922 42.010005999999954
    vertex 1727.0502525461225 -28.26010629079398 26.192535999999468
  endloop
endfacet
facet normal -2.7705399001095003e-14 -1.0 4.2506469630780486e-14
  outer loop
    vertex 1727.0502525461213 -28.2601062907922 42.010005999999954
    vertex 1743.1106235461227 -28.26010629079398 26.19253599999965
    vertex 1743.1106235461225 -28.260106290794276 42.01000600000013
  endloop
endfacet
facet normal -2.7705399001095003e-14 -1.0 4.2506469630780486e-14
  outer loop
    vertex 1727.0502525461213 -28.2601062907922 42.010005999999954
    vertex 1743.1106235461225 -28.260106290794276 42.01000600000013
    vertex 1724.0502525461225 -28.260106290793285 42.032535999999986
  endloop
endfacet
facet normal -2.7705399001095003e-14 -1.0 4.2506469630780486e-14
  outer loop
    vertex 1724.0502525461225 -28.260106290793285 42.032535999999986
    vertex 1743.1106235461225 -28.260106290794276 42.01000600000013
    vertex 1746.1106235461227 -28.260106290793285 42.032535999999965
  endloop
endfacet
facet normal -2.7705399001095003e-14 -1.0 4.2506469630780486e-14
  outer loop
    vertex 1724.0502525461225 -28.260106290793285 42.032535999999986
    vertex 1746.1106235461227 -28.260106290793285 42.032535999999965
    vertex 1746.1106235461227 -28.26010629079308 48.532535999999396
  endloop
endfacet
facet normal -2.7705399001095003e-14 -1.0 4.2506469630780486e-14
  outer loop
    vertex 1724.0502525461225 -28.260106290793285 42.032535999999986
    vertex 1746.1106235461227 -28.26010629079308 48.532535999999396
    vertex 1724.0502525461225 -28.26010629079308 48.53253599999924
  endloop
endfacet
facet normal 1.0 -6.310887241768095e-30 -1.0269562977782698e-15
  outer loop
    vertex 1724.0502525461225 -31.260106290794 26.192535999999507
    vertex 1724.0502525461225 -47.380847790794775 42.010006000000686
    vertex 1724.0502525461225 -47.38084779079489 26.19253600000019
  endloop
endfacet
facet normal 1.0 -6.310887241768095e-30 -1.0269562977782698e-15
  outer loop
    vertex 1724.0502525461225 -47.380847790794775 42.010006000000686
    vertex 1724.0502525461225 -50.380847790794206 48.53253600000005
    vertex 1724.0502525461225 -50.380847790794434 42.03253599999953
  endloop
endfacet
facet normal 1.0 -6.310887241768095e-30 -1.0269562977782698e-15
  outer loop
    vertex 1724.0502525461225 -50.380847790794206 48.53253600000005
    vertex 1724.0502525461225 -47.380847790794775 42.010006000000686
    vertex 1724.0502525461225 -28.26010629079308 48.53253599999924
  endloop
endfacet
facet normal 1.0 -6.310887241768095e-30 -1.0269562977782698e-15
  outer loop
    vertex 1724.0502525461225 -28.26010629079308 48.53253599999924
    vertex 1724.0502525461225 -47.380847790794775 42.010006000000686
    vertex 1724.0502525461225 -31.260106290794 42.010006000000004
  endloop
endfacet
facet normal 1.0 -6.310887241768095e-30 -1.0269562977782698e-15
  outer loop
    vertex 1724.0502525461225 -31.260106290794 42.010006000000004
    vertex 1724.0502525461225 -47.380847790794775 42.010006000000686
    vertex 1724.0502525461225 -31.260106290794 26.192535999999507
  endloop
endfacet
facet normal 1.0 -6.310887241768095e-30 -1.0269562977782698e-15
  outer loop
    vertex 1724.0502525461225 -28.26010629079308 48.53253599999924
    vertex 1724.0502525461225 -31.260106290794 42.010006000000004
    vertex 1724.0502525461225 -28.260106290793285 42.032535999999986
  endloop
endfacet
facet normal 1.5289692889876556e-08 1.0 -2.1678583304751472e-09
  outer loop
    vertex 1727.0502525461225 -50.38084785879005 26.192536000000363
    vertex 1743.1106235461227 -50.38084822279949 42.01000600000083
    vertex 1743.1106235461227 -50.38084822279896 26.192536000000334
  endloop
endfacet
facet normal 1.5289692889876556e-08 1.0 -2.1678583304751472e-09
  outer loop
    vertex 1743.1106235461227 -50.38084822279949 42.01000600000083
    vertex 1727.0502525461225 -50.38084785879005 26.192536000000363
    vertex 1727.0502525461225 -50.38084785878844 42.01000600000086
  endloop
endfacet
facet normal 1.5289692889876556e-08 1.0 -2.1678583304751472e-09
  outer loop
    vertex 1743.1106235461227 -50.38084822279949 42.01000600000083
    vertex 1727.0502525461225 -50.38084785878844 42.01000600000086
    vertex 1746.1106235461227 -50.380847790794434 42.03253599999951
  endloop
endfacet
facet normal 1.5289692889876556e-08 1.0 -2.1678583304751472e-09
  outer loop
    vertex 1746.1106235461227 -50.380847790794434 42.03253599999951
    vertex 1727.0502525461225 -50.38084785878844 42.01000600000086
    vertex 1724.0502525461225 -50.380847790794434 42.03253599999953
  endloop
endfacet
facet normal 1.5289692889876556e-08 1.0 -2.1678583304751472e-09
  outer loop
    vertex 1746.1106235461227 -50.380847790794434 42.03253599999951
    vertex 1724.0502525461225 -50.380847790794434 42.03253599999953
    vertex 1746.1106235461227 -50.38084829079335 48.53253600000003
  endloop
endfacet
facet normal 1.5289692889876556e-08 1.0 -2.1678583304751472e-09
  outer loop
    vertex 1746.1106235461227 -50.38084829079335 48.53253600000003
    vertex 1724.0502525461225 -50.380847790794434 42.03253599999953
    vertex 1724.0502525461225 -50.380847790794206 48.53253600000005
  endloop
endfacet
facet normal -6.144211043381289e-15 3.6727580015270465e-14 1.0
  outer loop
    vertex 1727.0502525461225 -50.38084785879005 26.192536000000363
    vertex 1724.0502525461225 -31.260106290794 26.192535999999507
    vertex 1724.0502525461225 -47.38084779079489 26.19253600000019
  endloop
endfacet
facet normal -6.144211043381289e-15 3.6727580015270465e-14 1.0
  outer loop
    vertex 1724.0502525461225 -31.260106290794 26.192535999999507
    vertex 1727.0502525461225 -50.38084785879005 26.192536000000363
    vertex 1727.0502525461225 -28.26010629079398 26.192535999999468
  endloop
endfacet
facet normal -6.144211043381289e-15 3.6727580015270465e-14 1.0
  outer loop
    vertex 1727.0502525461225 -28.26010629079398 26.192535999999468
    vertex 1727.0502525461225 -50.38084785879005 26.192536000000363
    vertex 1743.1106235461227 -50.38084822279896 26.192536000000334
  endloop
endfacet
facet normal -6.144211043381289e-15 3.6727580015270465e-14 1.0
  outer loop
    vertex 1727.0502525461225 -28.26010629079398 26.192535999999468
    vertex 1743.1106235461227 -50.38084822279896 26.192536000000334
    vertex 1743.1106235461227 -28.26010629079398 26.19253599999965
  endloop
endfacet
facet normal -6.144211043381289e-15 3.6727580015270465e-14 1.0
  outer loop
    vertex 1743.1106235461227 -28.26010629079398 26.19253599999965
    vertex 1743.1106235461227 -50.38084822279896 26.192536000000334
    vertex 1746.1106235461227 -47.38084825679652 26.192536000000246
  endloop
endfacet
facet normal -6.144211043381289e-15 3.6727580015270465e-14 1.0
  outer loop
    vertex 1743.1106235461227 -28.26010629079398 26.19253599999965
    vertex 1746.1106235461227 -47.38084825679652 26.192536000000246
    vertex 1746.1106235461227 -31.260106290794 26.192535999999727
  endloop
endfacet
facet normal -0.7071067811864465 -0.7071067811866486 1.6785352306310309e-15
  outer loop
    vertex 1746.1106235461227 -31.260106290794 26.192535999999727
    vertex 1743.1106235461225 -28.260106290794276 42.01000600000013
    vertex 1743.1106235461227 -28.26010629079398 26.19253599999965
  endloop
endfacet
facet normal -0.7071067811864465 -0.7071067811866486 1.6785352306310309e-15
  outer loop
    vertex 1743.1106235461225 -28.260106290794276 42.01000600000013
    vertex 1746.1106235461227 -31.260106290794 26.192535999999727
    vertex 1746.1106235461232 -31.260106290793345 42.010006000000224
  endloop
endfacet
facet normal -0.7071067771799723 0.7071067851931229 4.809618342768206e-13
  outer loop
    vertex 1743.1106235461227 -50.38084822279896 26.192536000000334
    vertex 1746.1106235461232 -47.380848256795325 42.01000600000074
    vertex 1746.1106235461227 -47.38084825679652 26.192536000000246
  endloop
endfacet
facet normal -0.7071067771799723 0.7071067851931229 4.809618342768206e-13
  outer loop
    vertex 1746.1106235461232 -47.380848256795325 42.01000600000074
    vertex 1743.1106235461227 -50.38084822279896 26.192536000000334
    vertex 1743.1106235461227 -50.38084822279949 42.01000600000083
  endloop
endfacet
facet normal 0.707106789199761 0.707106773173334 -4.963382231865268e-14
  outer loop
    vertex 1724.0502525461225 -47.38084779079489 26.19253600000019
    vertex 1727.0502525461225 -50.38084785878844 42.01000600000086
    vertex 1727.0502525461225 -50.38084785879005 26.192536000000363
  endloop
endfacet
facet normal 0.707106789199761 0.707106773173334 -4.963382231865268e-14
  outer loop
    vertex 1727.0502525461225 -50.38084785878844 42.01000600000086
    vertex 1724.0502525461225 -47.38084779079489 26.19253600000019
    vertex 1724.0502525461225 -47.380847790794775 42.010006000000686
  endloop
endfacet
facet normal 0.7071067811867137 -0.7071067811863815 4.2692995325818975e-14
  outer loop
    vertex 1727.0502525461225 -28.26010629079398 26.192535999999468
    vertex 1724.0502525461225 -31.260106290794 42.010006000000004
    vertex 1724.0502525461225 -31.260106290794 26.192535999999507
  endloop
endfacet
facet normal 0.7071067811867137 -0.7071067811863815 4.2692995325818975e-14
  outer loop
    vertex 1724.0502525461225 -31.260106290794 42.010006000000004
    vertex 1727.0502525461225 -28.26010629079398 26.192535999999468
    vertex 1727.0502525461213 -28.2601062907922 42.010005999999954
  endloop
endfacet
facet normal -0.007509577551904372 0.0075095776370335725 0.9999436046541352
  outer loop
    vertex 1746.1106235461232 -47.380848256795325 42.01000600000074
    vertex 1743.1106235461227 -50.38084822279949 42.01000600000083
    vertex 1746.1106235461227 -50.380847790794434 42.03253599999951
  endloop
endfacet
facet normal 0.007509576640829876 0.007509576470687038 0.9999436046697365
  outer loop
    vertex 1727.0502525461225 -50.38084785878844 42.01000600000086
    vertex 1724.0502525461225 -47.380847790794775 42.010006000000686
    vertex 1724.0502525461225 -50.380847790794434 42.03253599999953
  endloop
endfacet
facet normal 0.007509576471093957 -0.007509576471071805 0.9999436046710085
  outer loop
    vertex 1727.0502525461213 -28.2601062907922 42.010005999999954
    vertex 1724.0502525461225 -28.260106290793285 42.032535999999986
    vertex 1724.0502525461225 -31.260106290794 42.010006000000004
  endloop
endfacet
facet normal -0.007509576471019361 -0.007509576470993518 0.9999436046710096
  outer loop
    vertex 1746.1106235461232 -31.260106290793345 42.010006000000224
    vertex 1746.1106235461227 -28.260106290793285 42.032535999999965
    vertex 1743.1106235461225 -28.260106290794276 42.01000600000013
  endloop
endfacet
endsolid sliced-tower-main
