solid sliced-tower-main
facet normal -0.1305373278697776 -0.9914433952739127 -5.954986373504382e-07
  outer loop
    vertex 1501.8939806457197 -38.550061853164586 42.03253600000114
    vertex 1502.7480834945563 -38.662506626411094 22.532536000000455
    vertex 1502.748083494558 -38.66250662641063 42.03253600000119
  endloop
endfacet
facet normal -0.1305373278697776 -0.9914433952739127 -5.954986373504382e-07
  outer loop
    vertex 1502.7480834945563 -38.662506626411094 22.532536000000455
    vertex 1501.8939806457197 -38.550061853164586 42.03253600000114
    vertex 1501.8941289075744 -38.55006185316483 22.53253600000045
  endloop
endfacet
facet normal 0.9914448613738195 0.13052619221998252 -5.197727475172853e-14
  outer loop
    vertex 1498.5939806457181 -41.85006185316484 22.532536000000853
    vertex 1498.7064254189656 -42.70416470200283 42.03253600000116
    vertex 1498.706425418964 -42.704164702003204 22.532536000000835
  endloop
endfacet
facet normal 0.9914448613738195 0.13052619221998252 -5.197727475172853e-14
  outer loop
    vertex 1498.7064254189656 -42.70416470200283 42.03253600000116
    vertex 1498.5939806457181 -41.85006185316484 22.532536000000853
    vertex 1498.5939806457195 -41.85006185316456 42.03253600000115
  endloop
endfacet
facet normal 0.3826835159310613 -0.9238794978971236 -7.362309843499216e-10
  outer loop
    vertex 1500.2439806629548 -38.992178062289355 22.53253600000054
    vertex 1501.0398777968812 -38.66250662641063 42.03253600000114
    vertex 1500.2439806457196 -38.992178020675844 42.03253600000114
  endloop
endfacet
facet normal 0.3826835159310613 -0.9238794978971236 -7.362309843499216e-10
  outer loop
    vertex 1501.0398777968812 -38.66250662641063 42.03253600000114
    vertex 1500.2439806629548 -38.992178062289355 22.53253600000054
    vertex 1501.039877776666 -38.66250655702463 22.53253600000054
  endloop
endfacet
facet normal 0.9914448613738382 -0.13052619221984074 -5.3544087544687125e-14
  outer loop
    vertex 1498.706425418964 -40.99595900432648 22.53253600000067
    vertex 1498.5939806457195 -41.85006185316456 42.03253600000115
    vertex 1498.5939806457181 -41.85006185316484 22.532536000000853
  endloop
endfacet
facet normal 0.9914448613738382 -0.13052619221984074 -5.3544087544687125e-14
  outer loop
    vertex 1498.5939806457195 -41.85006185316456 42.03253600000115
    vertex 1498.706425418964 -40.99595900432648 22.53253600000067
    vertex 1498.7064254189656 -40.995959004326195 42.032536000001144
  endloop
endfacet
facet normal -0.7933533402912228 -0.6087614290087368 5.1742229912039344e-14
  outer loop
    vertex 1504.7518644782083 -40.20006185316453 42.03253600000008
    vertex 1504.2274330236337 -39.51660947524919 22.532536000000466
    vertex 1504.7518644782067 -40.20006185316482 22.532536000000473
  endloop
endfacet
facet normal -0.7933533402912228 -0.6087614290087368 5.1742229912039344e-14
  outer loop
    vertex 1504.2274330236337 -39.51660947524919 22.532536000000466
    vertex 1504.7518644782083 -40.20006185316453 42.03253600000008
    vertex 1504.227433023635 -39.51660947524895 42.032536000000114
  endloop
endfacet
facet normal 0.6087614022971324 -0.7933533607877571 1.1951989438162538e-09
  outer loop
    vertex 1499.5605282678018 -39.516609475248735 22.532536000000658
    vertex 1500.2439806457196 -38.992178020675844 42.03253600000114
    vertex 1499.560528267804 -39.516609475248906 42.03253600000119
  endloop
endfacet
facet normal 0.6087614022971324 -0.7933533607877571 1.1951989438162538e-09
  outer loop
    vertex 1500.2439806457196 -38.992178020675844 42.03253600000114
    vertex 1499.5605282678018 -39.516609475248735 22.532536000000658
    vertex 1500.2439806629548 -38.992178062289355 22.53253600000054
  endloop
endfacet
facet normal -0.6087614290086539 -0.7933533402912863 4.736040157411782e-14
  outer loop
    vertex 1503.543980645718 -38.99217802067626 22.53253600000037
    vertex 1504.227433023635 -39.51660947524895 42.032536000000114
    vertex 1503.5439806457196 -38.99217802067589 42.03253600000011
  endloop
endfacet
facet normal -0.6087614290086539 -0.7933533402912863 4.736040157411782e-14
  outer loop
    vertex 1504.227433023635 -39.51660947524895 42.032536000000114
    vertex 1503.543980645718 -38.99217802067626 22.53253600000037
    vertex 1504.2274330236337 -39.51660947524919 22.532536000000466
  endloop
endfacet
facet normal -0.9238795325110032 -0.3826834323657744 2.9305178449255024e-14
  outer loop
    vertex 1504.7518644782083 -40.20006185316453 42.03253600000008
    vertex 1505.0815358724728 -40.995959004326124 22.532536000000505
    vertex 1505.0815358724735 -40.995959004326245 42.03253600000008
  endloop
endfacet
facet normal -0.9238795325110032 -0.3826834323657744 2.9305178449255024e-14
  outer loop
    vertex 1505.0815358724728 -40.995959004326124 22.532536000000505
    vertex 1504.7518644782083 -40.20006185316453 42.03253600000008
    vertex 1504.7518644782067 -40.20006185316482 22.532536000000473
  endloop
endfacet
facet normal 0.7933533402913212 -0.6087614290086085 -7.81500194652628e-14
  outer loop
    vertex 1499.036096813229 -40.20006185316454 22.532536000000725
    vertex 1499.560528267804 -39.516609475248906 42.03253600000119
    vertex 1499.0360968132309 -40.20006185316457 42.032536000001144
  endloop
endfacet
facet normal 0.7933533402913212 -0.6087614290086085 -7.81500194652628e-14
  outer loop
    vertex 1499.560528267804 -39.516609475248906 42.03253600000119
    vertex 1499.036096813229 -40.20006185316454 22.532536000000725
    vertex 1499.5605282678018 -39.516609475248735 22.532536000000658
  endloop
endfacet
facet normal -0.9914448613739255 -0.13052619221917772 3.11005931046707e-14
  outer loop
    vertex 1505.1939806457194 -41.85006185316452 42.032536000000086
    vertex 1505.0815358724728 -40.995959004326124 22.532536000000505
    vertex 1505.1939806457178 -41.85006185316498 22.532536000000487
  endloop
endfacet
facet normal -0.9914448613739255 -0.13052619221917772 3.11005931046707e-14
  outer loop
    vertex 1505.0815358724728 -40.995959004326124 22.532536000000505
    vertex 1505.1939806457194 -41.85006185316452 42.032536000000086
    vertex 1505.0815358724735 -40.995959004326245 42.03253600000008
  endloop
endfacet
facet normal -0.9914448613738184 0.13052619221999154 5.379887452934653e-14
  outer loop
    vertex 1505.0815358724735 -42.704164702002885 42.03253600000014
    vertex 1505.1939806457178 -41.85006185316498 22.532536000000487
    vertex 1505.081535872472 -42.70416470200321 22.532536000000494
  endloop
endfacet
facet normal -0.9914448613738184 0.13052619221999154 5.379887452934653e-14
  outer loop
    vertex 1505.1939806457178 -41.85006185316498 22.532536000000487
    vertex 1505.0815358724735 -42.704164702002885 42.03253600000014
    vertex 1505.1939806457194 -41.85006185316452 42.032536000000086
  endloop
endfacet
facet normal 0.9238795325113904 -0.3826834323648398 -6.942841849305407e-14
  outer loop
    vertex 1499.036096813229 -40.20006185316454 22.532536000000725
    vertex 1498.7064254189656 -40.995959004326195 42.032536000001144
    vertex 1498.706425418964 -40.99595900432648 22.53253600000067
  endloop
endfacet
facet normal 0.9238795325113904 -0.3826834323648398 -6.942841849305407e-14
  outer loop
    vertex 1498.7064254189656 -40.995959004326195 42.032536000001144
    vertex 1499.036096813229 -40.20006185316454 22.532536000000725
    vertex 1499.0360968132309 -40.20006185316457 42.032536000001144
  endloop
endfacet
facet normal -0.6087614290087316 0.7933533402912267 -4.781207592066014e-15
  outer loop
    vertex 1504.227433023635 -44.18351423108017 42.03253600000011
    vertex 1503.5439806457182 -44.70794568565402 22.53253600000071
    vertex 1503.5439806457193 -44.70794568565314 42.03253600000016
  endloop
endfacet
facet normal -0.6087614290087316 0.7933533402912267 -4.781207592066014e-15
  outer loop
    vertex 1503.5439806457182 -44.70794568565402 22.53253600000071
    vertex 1504.227433023635 -44.18351423108017 42.03253600000011
    vertex 1504.2274330236337 -44.18351423108095 22.532536000000682
  endloop
endfacet
facet normal -0.7933533402911511 0.6087614290088302 1.030910170326205e-14
  outer loop
    vertex 1504.227433023635 -44.18351423108017 42.03253600000011
    vertex 1504.751864478207 -43.50006185316528 22.532536000000587
    vertex 1504.2274330236337 -44.18351423108095 22.532536000000682
  endloop
endfacet
facet normal -0.7933533402911511 0.6087614290088302 1.030910170326205e-14
  outer loop
    vertex 1504.751864478207 -43.50006185316528 22.532536000000587
    vertex 1504.227433023635 -44.18351423108017 42.03253600000011
    vertex 1504.751864478208 -43.500061853164496 42.0325360000001
  endloop
endfacet
facet normal -0.923879532511405 0.38268343236480423 3.315774211093351e-14
  outer loop
    vertex 1504.751864478208 -43.500061853164496 42.0325360000001
    vertex 1505.081535872472 -42.70416470200321 22.532536000000494
    vertex 1504.751864478207 -43.50006185316528 22.532536000000587
  endloop
endfacet
facet normal -0.923879532511405 0.38268343236480423 3.315774211093351e-14
  outer loop
    vertex 1505.081535872472 -42.70416470200321 22.532536000000494
    vertex 1504.751864478208 -43.500061853164496 42.0325360000001
    vertex 1505.0815358724735 -42.704164702002885 42.03253600000014
  endloop
endfacet
facet normal 0.7933533402912228 0.6087614290087368 -5.822286274278055e-14
  outer loop
    vertex 1499.036096813229 -43.50006185316478 22.532536000000842
    vertex 1499.5605282678039 -44.183514231080125 42.03253600000122
    vertex 1499.5605282678023 -44.1835142310804 22.532536000000942
  endloop
endfacet
facet normal 0.7933533402912228 0.6087614290087368 -5.822286274278055e-14
  outer loop
    vertex 1499.5605282678039 -44.183514231080125 42.03253600000122
    vertex 1499.036096813229 -43.50006185316478 22.532536000000842
    vertex 1499.0360968132309 -43.500061853164546 42.032536000001215
  endloop
endfacet
facet normal 0.6087614290088208 0.7933533402911582 -5.2012617458375164e-14
  outer loop
    vertex 1500.2439806457178 -44.707945685653605 22.532536000000945
    vertex 1499.5605282678039 -44.183514231080125 42.03253600000122
    vertex 1500.2439806457194 -44.707945685653186 42.03253600000123
  endloop
endfacet
facet normal 0.6087614290088208 0.7933533402911582 -5.2012617458375164e-14
  outer loop
    vertex 1499.5605282678039 -44.183514231080125 42.03253600000122
    vertex 1500.2439806457178 -44.707945685653605 22.532536000000945
    vertex 1499.5605282678023 -44.1835142310804 22.532536000000942
  endloop
endfacet
facet normal 0.38268343236510893 0.9238795325112787 -4.285420196961231e-14
  outer loop
    vertex 1501.0398777968794 -45.0376170799189 22.53253600000086
    vertex 1500.2439806457194 -44.707945685653186 42.03253600000123
    vertex 1501.0398777968812 -45.03761707991848 42.03253600000123
  endloop
endfacet
facet normal 0.38268343236510893 0.9238795325112787 -4.285420196961231e-14
  outer loop
    vertex 1500.2439806457194 -44.707945685653186 42.03253600000123
    vertex 1501.0398777968794 -45.0376170799189 22.53253600000086
    vertex 1500.2439806457178 -44.707945685653605 22.532536000000945
  endloop
endfacet
facet normal 0.13050771717935478 0.9914472934837213 6.615055654936989e-07
  outer loop
    vertex 1501.8939806457195 -45.15006185316453 42.03253600000119
    vertex 1501.0398777968794 -45.0376170799189 22.53253600000086
    vertex 1501.0398777968812 -45.03761707991848 42.03253600000123
  endloop
endfacet
facet normal 0.13050771717935478 0.9914472934837213 6.615055654936989e-07
  outer loop
    vertex 1501.0398777968794 -45.0376170799189 22.53253600000086
    vertex 1501.8939806457195 -45.15006185316453 42.03253600000119
    vertex 1501.8940566561264 -45.15004757216507 22.532536000000775
  endloop
endfacet
facet normal 0.9238795325113546 0.38268343236492636 -6.079377743284072e-14
  outer loop
    vertex 1498.706425418964 -42.704164702003204 22.532536000000835
    vertex 1499.0360968132309 -43.500061853164546 42.032536000001215
    vertex 1499.036096813229 -43.50006185316478 22.532536000000842
  endloop
endfacet
facet normal 0.9238795325113546 0.38268343236492636 -6.079377743284072e-14
  outer loop
    vertex 1499.0360968132309 -43.500061853164546 42.032536000001215
    vertex 1498.706425418964 -42.704164702003204 22.532536000000835
    vertex 1498.7064254189656 -42.70416470200283 42.03253600000116
  endloop
endfacet
facet normal -0.38268343236454944 0.9238795325115106 8.721347101341535e-17
  outer loop
    vertex 1503.5439806457193 -44.70794568565314 42.03253600000016
    vertex 1502.748083494556 -45.037617079918554 22.532536000000682
    vertex 1502.7480834945577 -45.03761707991848 42.03253600000124
  endloop
endfacet
facet normal -0.38268343236454944 0.9238795325115106 8.721347101341535e-17
  outer loop
    vertex 1502.748083494556 -45.037617079918554 22.532536000000682
    vertex 1503.5439806457193 -44.70794568565314 42.03253600000016
    vertex 1503.5439806457182 -44.70794568565402 22.53253600000071
  endloop
endfacet
facet normal -0.13052294093854616 0.9914452894077107 1.1642109674839704e-07
  outer loop
    vertex 1502.748083494556 -45.037617079918554 22.532536000000682
    vertex 1501.8939806457195 -45.15006185316453 42.03253600000119
    vertex 1502.7480834945577 -45.03761707991848 42.03253600000124
  endloop
endfacet
facet normal -0.13052294093854616 0.9914452894077107 1.1642109674839704e-07
  outer loop
    vertex 1501.8939806457195 -45.15006185316453 42.03253600000119
    vertex 1502.748083494556 -45.037617079918554 22.532536000000682
    vertex 1501.8940566561264 -45.15004757216507 22.532536000000775
  endloop
endfacet
facet normal -0.3826834323650658 -0.9238795325112966 4.507798086092073e-14
  outer loop
    vertex 1502.7480834945563 -38.662506626411094 22.532536000000455
    vertex 1503.5439806457196 -38.99217802067589 42.03253600000011
    vertex 1502.748083494558 -38.66250662641063 42.03253600000119
  endloop
endfacet
facet normal -0.3826834323650658 -0.9238795325112966 4.507798086092073e-14
  outer loop
    vertex 1503.5439806457196 -38.99217802067589 42.03253600000011
    vertex 1502.7480834945563 -38.662506626411094 22.532536000000455
    vertex 1503.543980645718 -38.99217802067626 22.53253600000037
  endloop
endfacet
facet normal -4.6274283722713675e-14 -5.252202619648754e-14 -1.0
  outer loop
    vertex 1505.1939806457178 -41.85006185316498 22.532536000000487
    vertex 1504.9056389813386 -36.504951139631274 22.532536000000206
    vertex 1505.2353103756038 -37.30084829079295 22.53253600000023
  endloop
endfacet
facet normal -4.6274283722713675e-14 -5.252202619648754e-14 -1.0
  outer loop
    vertex 1504.9056389813386 -36.504951139631274 22.532536000000206
    vertex 1505.1939806457178 -41.85006185316498 22.532536000000487
    vertex 1505.0815358724728 -40.995959004326124 22.532536000000505
  endloop
endfacet
facet normal -4.6274283722713675e-14 -5.252202619648754e-14 -1.0
  outer loop
    vertex 1504.9056389813386 -36.504951139631274 22.532536000000206
    vertex 1505.0815358724728 -40.995959004326124 22.532536000000505
    vertex 1504.7518644782067 -40.20006185316482 22.532536000000473
  endloop
endfacet
facet normal -4.6274283722713675e-14 -5.252202619648754e-14 -1.0
  outer loop
    vertex 1504.9056389813386 -36.504951139631274 22.532536000000206
    vertex 1504.7518644782067 -40.20006185316482 22.532536000000473
    vertex 1504.7931942080925 -35.65084829079295 22.532536000000174
  endloop
endfacet
facet normal -4.6274283722713675e-14 -5.252202619648754e-14 -1.0
  outer loop
    vertex 1519.1535652080913 -46.71121929079333 22.53253600000011
    vertex 1511.2807494348463 -36.50495113963127 22.532535999999915
    vertex 1511.3931942080924 -35.65084829079295 22.53253599999987
  endloop
endfacet
facet normal -4.6274283722713675e-14 -5.252202619648754e-14 -1.0
  outer loop
    vertex 1511.2807494348463 -36.50495113963127 22.532535999999915
    vertex 1519.1535652080913 -46.71121929079333 22.53253600000011
    vertex 1510.9510780405813 -37.30084829079294 22.532535999999986
  endloop
endfacet
facet normal -4.6274283722713675e-14 -5.252202619648754e-14 -1.0
  outer loop
    vertex 1510.9510780405813 -37.30084829079294 22.532535999999986
    vertex 1519.1535652080913 -46.71121929079333 22.53253600000011
    vertex 1510.426646586008 -37.984300668708556 22.532536000000036
  endloop
endfacet
facet normal -4.6274283722713675e-14 -5.252202619648754e-14 -1.0
  outer loop
    vertex 1510.426646586008 -37.984300668708556 22.532536000000036
    vertex 1519.1535652080913 -46.71121929079333 22.53253600000011
    vertex 1504.2274330236337 -44.18351423108095 22.532536000000682
  endloop
endfacet
facet normal -4.6274283722713675e-14 -5.252202619648754e-14 -1.0
  outer loop
    vertex 1504.2274330236337 -44.18351423108095 22.532536000000682
    vertex 1519.1535652080913 -46.71121929079333 22.53253600000011
    vertex 1503.5439806457182 -44.70794568565402 22.53253600000071
  endloop
endfacet
facet normal -4.6274283722713675e-14 -5.252202619648754e-14 -1.0
  outer loop
    vertex 1503.5439806457182 -44.70794568565402 22.53253600000071
    vertex 1519.1535652080913 -46.71121929079333 22.53253600000011
    vertex 1502.748083494556 -45.037617079918554 22.532536000000682
  endloop
endfacet
facet normal -4.6274283722713675e-14 -5.252202619648754e-14 -1.0
  outer loop
    vertex 1502.748083494556 -45.037617079918554 22.532536000000682
    vertex 1519.1535652080913 -46.71121929079333 22.53253600000011
    vertex 1497.093194208091 -46.711219290793366 22.532536000001134
  endloop
endfacet
facet normal -4.6274283722713675e-14 -5.252202619648754e-14 -1.0
  outer loop
    vertex 1510.426646586008 -37.984300668708556 22.532536000000036
    vertex 1504.2274330236337 -44.18351423108095 22.532536000000682
    vertex 1509.7431942080925 -38.5087321232816 22.532536000000096
  endloop
endfacet
facet normal -4.6274283722713675e-14 -5.252202619648754e-14 -1.0
  outer loop
    vertex 1509.7431942080925 -38.5087321232816 22.532536000000096
    vertex 1504.2274330236337 -44.18351423108095 22.532536000000682
    vertex 1508.947297056931 -38.83840351754687 22.532536000000153
  endloop
endfacet
facet normal -4.6274283722713675e-14 -5.252202619648754e-14 -1.0
  outer loop
    vertex 1508.947297056931 -38.83840351754687 22.532536000000153
    vertex 1504.2274330236337 -44.18351423108095 22.532536000000682
    vertex 1504.751864478207 -43.50006185316528 22.532536000000587
  endloop
endfacet
facet normal -4.6274283722713675e-14 -5.252202619648754e-14 -1.0
  outer loop
    vertex 1508.947297056931 -38.83840351754687 22.532536000000153
    vertex 1504.751864478207 -43.50006185316528 22.532536000000587
    vertex 1508.0931942080924 -38.95084829079295 22.532536000000196
  endloop
endfacet
facet normal -4.6274283722713675e-14 -5.252202619648754e-14 -1.0
  outer loop
    vertex 1508.0931942080924 -38.95084829079295 22.532536000000196
    vertex 1504.751864478207 -43.50006185316528 22.532536000000587
    vertex 1507.2390913592542 -38.83840351754687 22.53253600000023
  endloop
endfacet
facet normal -4.6274283722713675e-14 -5.252202619648754e-14 -1.0
  outer loop
    vertex 1507.2390913592542 -38.83840351754687 22.53253600000023
    vertex 1504.751864478207 -43.50006185316528 22.532536000000587
    vertex 1505.081535872472 -42.70416470200321 22.532536000000494
  endloop
endfacet
facet normal -4.6274283722713675e-14 -5.252202619648754e-14 -1.0
  outer loop
    vertex 1507.2390913592542 -38.83840351754687 22.53253600000023
    vertex 1505.081535872472 -42.70416470200321 22.532536000000494
    vertex 1506.4431942080926 -38.5087321232816 22.532536000000242
  endloop
endfacet
facet normal -4.6274283722713675e-14 -5.252202619648754e-14 -1.0
  outer loop
    vertex 1506.4431942080926 -38.5087321232816 22.532536000000242
    vertex 1505.081535872472 -42.70416470200321 22.532536000000494
    vertex 1505.759741830177 -37.984300668708556 22.532536000000253
  endloop
endfacet
facet normal -4.6274283722713675e-14 -5.252202619648754e-14 -1.0
  outer loop
    vertex 1505.759741830177 -37.984300668708556 22.532536000000253
    vertex 1505.081535872472 -42.70416470200321 22.532536000000494
    vertex 1505.1939806457178 -41.85006185316498 22.532536000000487
  endloop
endfacet
facet normal -4.6274283722713675e-14 -5.252202619648754e-14 -1.0
  outer loop
    vertex 1505.759741830177 -37.984300668708556 22.532536000000253
    vertex 1505.1939806457178 -41.85006185316498 22.532536000000487
    vertex 1505.2353103756038 -37.30084829079295 22.53253600000023
  endloop
endfacet
facet normal -4.6274283722713675e-14 -5.252202619648754e-14 -1.0
  outer loop
    vertex 1502.748083494556 -45.037617079918554 22.532536000000682
    vertex 1497.093194208091 -46.711219290793366 22.532536000001134
    vertex 1501.8940566561264 -45.15004757216507 22.532536000000775
  endloop
endfacet
facet normal -4.6274283722713675e-14 -5.252202619648754e-14 -1.0
  outer loop
    vertex 1501.8940566561264 -45.15004757216507 22.532536000000775
    vertex 1497.093194208091 -46.711219290793366 22.532536000001134
    vertex 1501.0398777968794 -45.0376170799189 22.53253600000086
  endloop
endfacet
facet normal -4.6274283722713675e-14 -5.252202619648754e-14 -1.0
  outer loop
    vertex 1501.0398777968794 -45.0376170799189 22.53253600000086
    vertex 1497.093194208091 -46.711219290793366 22.532536000001134
    vertex 1500.2439806457178 -44.707945685653605 22.532536000000945
  endloop
endfacet
facet normal -4.6274283722713675e-14 -5.252202619648754e-14 -1.0
  outer loop
    vertex 1500.2439806457178 -44.707945685653605 22.532536000000945
    vertex 1497.093194208091 -46.711219290793366 22.532536000001134
    vertex 1499.5605282678023 -44.1835142310804 22.532536000000942
  endloop
endfacet
facet normal -4.6274283722713675e-14 -5.252202619648754e-14 -1.0
  outer loop
    vertex 1499.5605282678023 -44.1835142310804 22.532536000000942
    vertex 1497.093194208091 -46.711219290793366 22.532536000001134
    vertex 1499.036096813229 -43.50006185316478 22.532536000000842
  endloop
endfacet
facet normal -4.6274283722713675e-14 -5.252202619648754e-14 -1.0
  outer loop
    vertex 1499.036096813229 -43.50006185316478 22.532536000000842
    vertex 1497.093194208091 -46.711219290793366 22.532536000001134
    vertex 1498.706425418964 -42.704164702003204 22.532536000000835
  endloop
endfacet
facet normal -4.6274283722713675e-14 -5.252202619648754e-14 -1.0
  outer loop
    vertex 1498.706425418964 -42.704164702003204 22.532536000000835
    vertex 1497.093194208091 -46.711219290793366 22.532536000001134
    vertex 1498.5939806457181 -41.85006185316484 22.532536000000853
  endloop
endfacet
facet normal -4.6274283722713675e-14 -5.252202619648754e-14 -1.0
  outer loop
    vertex 1498.5939806457181 -41.85006185316484 22.532536000000853
    vertex 1497.093194208091 -46.711219290793366 22.532536000001134
    vertex 1497.0931942080913 -24.590477290793682 22.532535999999972
  endloop
endfacet
facet normal -4.6274283722713675e-14 -5.252202619648754e-14 -1.0
  outer loop
    vertex 1519.1535652080915 -24.590477290793643 22.53253599999895
    vertex 1509.7431942080925 -32.7929644583043 22.53253599999979
    vertex 1497.0931942080913 -24.590477290793682 22.532535999999972
  endloop
endfacet
facet normal -4.6274283722713675e-14 -5.252202619648754e-14 -1.0
  outer loop
    vertex 1509.7431942080925 -32.7929644583043 22.53253599999979
    vertex 1519.1535652080915 -24.590477290793643 22.53253599999895
    vertex 1510.426646586008 -33.31739591287734 22.53253599999979
  endloop
endfacet
facet normal -4.6274283722713675e-14 -5.252202619648754e-14 -1.0
  outer loop
    vertex 1510.426646586008 -33.31739591287734 22.53253599999979
    vertex 1519.1535652080915 -24.590477290793643 22.53253599999895
    vertex 1510.9510780405813 -34.00084829079295 22.532535999999805
  endloop
endfacet
facet normal -4.6274283722713675e-14 -5.252202619648754e-14 -1.0
  outer loop
    vertex 1510.9510780405813 -34.00084829079295 22.532535999999805
    vertex 1519.1535652080915 -24.590477290793643 22.53253599999895
    vertex 1519.1535652080913 -46.71121929079333 22.53253600000011
  endloop
endfacet
facet normal -4.6274283722713675e-14 -5.252202619648754e-14 -1.0
  outer loop
    vertex 1510.9510780405813 -34.00084829079295 22.532535999999805
    vertex 1519.1535652080913 -46.71121929079333 22.53253600000011
    vertex 1511.2807494348463 -34.796745441954634 22.532535999999823
  endloop
endfacet
facet normal -4.6274283722713675e-14 -5.252202619648754e-14 -1.0
  outer loop
    vertex 1511.2807494348463 -34.796745441954634 22.532535999999823
    vertex 1519.1535652080913 -46.71121929079333 22.53253600000011
    vertex 1511.3931942080924 -35.65084829079295 22.53253599999987
  endloop
endfacet
facet normal -4.6274283722713675e-14 -5.252202619648754e-14 -1.0
  outer loop
    vertex 1497.0931942080913 -24.590477290793682 22.532535999999972
    vertex 1509.7431942080925 -32.7929644583043 22.53253599999979
    vertex 1508.947297056931 -32.46329306403902 22.532535999999812
  endloop
endfacet
facet normal -4.6274283722713675e-14 -5.252202619648754e-14 -1.0
  outer loop
    vertex 1497.0931942080913 -24.590477290793682 22.532535999999972
    vertex 1508.947297056931 -32.46329306403902 22.532535999999812
    vertex 1508.0931942080924 -32.350848290792946 22.532535999999848
  endloop
endfacet
facet normal -4.6274283722713675e-14 -5.252202619648754e-14 -1.0
  outer loop
    vertex 1497.0931942080913 -24.590477290793682 22.532535999999972
    vertex 1508.0931942080924 -32.350848290792946 22.532535999999848
    vertex 1507.2390913592542 -32.46329306403902 22.53253599999989
  endloop
endfacet
facet normal -4.6274283722713675e-14 -5.252202619648754e-14 -1.0
  outer loop
    vertex 1497.0931942080913 -24.590477290793682 22.532535999999972
    vertex 1507.2390913592542 -32.46329306403902 22.53253599999989
    vertex 1506.4431942080926 -32.7929644583043 22.532535999999933
  endloop
endfacet
facet normal -4.6274283722713675e-14 -5.252202619648754e-14 -1.0
  outer loop
    vertex 1497.0931942080913 -24.590477290793682 22.532535999999972
    vertex 1506.4431942080926 -32.7929644583043 22.532535999999933
    vertex 1505.759741830177 -33.31739591287734 22.532536000000007
  endloop
endfacet
facet normal -4.6274283722713675e-14 -5.252202619648754e-14 -1.0
  outer loop
    vertex 1497.0931942080913 -24.590477290793682 22.532535999999972
    vertex 1505.759741830177 -33.31739591287734 22.532536000000007
    vertex 1505.2353103756038 -34.00084829079295 22.53253600000006
  endloop
endfacet
facet normal -4.6274283722713675e-14 -5.252202619648754e-14 -1.0
  outer loop
    vertex 1497.0931942080913 -24.590477290793682 22.532535999999972
    vertex 1505.2353103756038 -34.00084829079295 22.53253600000006
    vertex 1504.9056389813386 -34.796745441954634 22.532536000000118
  endloop
endfacet
facet normal -4.6274283722713675e-14 -5.252202619648754e-14 -1.0
  outer loop
    vertex 1497.0931942080913 -24.590477290793682 22.532535999999972
    vertex 1504.9056389813386 -34.796745441954634 22.532536000000118
    vertex 1504.7931942080925 -35.65084829079295 22.532536000000174
  endloop
endfacet
facet normal -4.6274283722713675e-14 -5.252202619648754e-14 -1.0
  outer loop
    vertex 1497.0931942080913 -24.590477290793682 22.532535999999972
    vertex 1504.7931942080925 -35.65084829079295 22.532536000000174
    vertex 1504.7518644782067 -40.20006185316482 22.532536000000473
  endloop
endfacet
facet normal -4.6274283722713675e-14 -5.252202619648754e-14 -1.0
  outer loop
    vertex 1497.0931942080913 -24.590477290793682 22.532535999999972
    vertex 1504.7518644782067 -40.20006185316482 22.532536000000473
    vertex 1504.2274330236337 -39.51660947524919 22.532536000000466
  endloop
endfacet
facet normal -4.6274283722713675e-14 -5.252202619648754e-14 -1.0
  outer loop
    vertex 1497.0931942080913 -24.590477290793682 22.532535999999972
    vertex 1504.2274330236337 -39.51660947524919 22.532536000000466
    vertex 1503.543980645718 -38.99217802067626 22.53253600000037
  endloop
endfacet
facet normal -4.6274283722713675e-14 -5.252202619648754e-14 -1.0
  outer loop
    vertex 1497.0931942080913 -24.590477290793682 22.532535999999972
    vertex 1503.543980645718 -38.99217802067626 22.53253600000037
    vertex 1502.7480834945563 -38.662506626411094 22.532536000000455
  endloop
endfacet
facet normal -4.6274283722713675e-14 -5.252202619648754e-14 -1.0
  outer loop
    vertex 1497.0931942080913 -24.590477290793682 22.532535999999972
    vertex 1502.7480834945563 -38.662506626411094 22.532536000000455
    vertex 1501.8941289075744 -38.55006185316483 22.53253600000045
  endloop
endfacet
facet normal -4.6274283722713675e-14 -5.252202619648754e-14 -1.0
  outer loop
    vertex 1497.0931942080913 -24.590477290793682 22.532535999999972
    vertex 1501.8941289075744 -38.55006185316483 22.53253600000045
    vertex 1501.039877776666 -38.66250655702463 22.53253600000054
  endloop
endfacet
facet normal -4.6274283722713675e-14 -5.252202619648754e-14 -1.0
  outer loop
    vertex 1497.0931942080913 -24.590477290793682 22.532535999999972
    vertex 1501.039877776666 -38.66250655702463 22.53253600000054
    vertex 1500.2439806629548 -38.992178062289355 22.53253600000054
  endloop
endfacet
facet normal -4.6274283722713675e-14 -5.252202619648754e-14 -1.0
  outer loop
    vertex 1497.0931942080913 -24.590477290793682 22.532535999999972
    vertex 1500.2439806629548 -38.992178062289355 22.53253600000054
    vertex 1499.5605282678018 -39.516609475248735 22.532536000000658
  endloop
endfacet
facet normal -4.6274283722713675e-14 -5.252202619648754e-14 -1.0
  outer loop
    vertex 1497.0931942080913 -24.590477290793682 22.532535999999972
    vertex 1499.5605282678018 -39.516609475248735 22.532536000000658
    vertex 1499.036096813229 -40.20006185316454 22.532536000000725
  endloop
endfacet
facet normal -4.6274283722713675e-14 -5.252202619648754e-14 -1.0
  outer loop
    vertex 1497.0931942080913 -24.590477290793682 22.532535999999972
    vertex 1499.036096813229 -40.20006185316454 22.532536000000725
    vertex 1498.706425418964 -40.99595900432648 22.53253600000067
  endloop
endfacet
facet normal -4.6274283722713675e-14 -5.252202619648754e-14 -1.0
  outer loop
    vertex 1497.0931942080913 -24.590477290793682 22.532535999999972
    vertex 1498.706425418964 -40.99595900432648 22.53253600000067
    vertex 1498.5939806457181 -41.85006185316484 22.532536000000853
  endloop
endfacet
facet normal -1.0 2.7058241525053563e-15 4.6286542269023425e-14
  outer loop
    vertex 1497.0931942080913 -46.711219290793 29.032536000001077
    vertex 1497.0931942080913 -24.590477290793682 22.532535999999972
    vertex 1497.093194208091 -46.711219290793366 22.532536000001134
  endloop
endfacet
facet normal -1.0 2.7058241525053563e-15 4.6286542269023425e-14
  outer loop
    vertex 1497.0931942080913 -24.590477290793682 22.532535999999972
    vertex 1497.0931942080913 -46.711219290793 29.032536000001077
    vertex 1497.0931942080915 -24.59047729079336 29.032535999999915
  endloop
endfacet
facet normal 6.661338147730352e-16 1.0 -5.251398148267967e-14
  outer loop
    vertex 1519.1535652080918 -24.590477290793327 29.032535999998892
    vertex 1497.0931942080913 -24.590477290793682 22.532535999999972
    vertex 1497.0931942080915 -24.59047729079336 29.032535999999915
  endloop
endfacet
facet normal 6.661338147730352e-16 1.0 -5.251398148267967e-14
  outer loop
    vertex 1497.0931942080913 -24.590477290793682 22.532535999999972
    vertex 1519.1535652080918 -24.590477290793327 29.032535999998892
    vertex 1519.1535652080915 -24.590477290793643 22.53253599999895
  endloop
endfacet
facet normal 1.0 -6.661338147776686e-16 -4.628654226902347e-14
  outer loop
    vertex 1519.1535652080915 -24.590477290793643 22.53253599999895
    vertex 1519.1535652080915 -46.71121929079302 29.0325360000001
    vertex 1519.1535652080913 -46.71121929079333 22.53253600000011
  endloop
endfacet
facet normal 1.0 -6.661338147776686e-16 -4.628654226902347e-14
  outer loop
    vertex 1519.1535652080915 -46.71121929079302 29.0325360000001
    vertex 1519.1535652080915 -24.590477290793643 22.53253599999895
    vertex 1519.1535652080918 -24.590477290793327 29.032535999998892
  endloop
endfacet
facet normal -6.661338147730352e-16 -1.0 5.251398148267968e-14
  outer loop
    vertex 1497.093194208091 -46.711219290793366 22.532536000001134
    vertex 1519.1535652080915 -46.71121929079302 29.0325360000001
    vertex 1497.0931942080913 -46.711219290793 29.032536000001077
  endloop
endfacet
facet normal -6.661338147730352e-16 -1.0 5.251398148267968e-14
  outer loop
    vertex 1519.1535652080915 -46.71121929079302 29.0325360000001
    vertex 1497.093194208091 -46.711219290793366 22.532536000001134
    vertex 1519.1535652080913 -46.71121929079333 22.53253600000011
  endloop
endfacet
facet normal -1.0 4.877138568444711e-16 -5.020436789956517e-15
  outer loop
    vertex 1497.0931942080927 -24.590477290793313 35.53253599999997
    vertex 1497.0931942080913 -46.711219290793 29.032536000001077
    vertex 1497.0931942080927 -46.71121929079295 35.53253600000113
  endloop
endfacet
facet normal -1.0 4.877138568444711e-16 -5.020436789956517e-15
  outer loop
    vertex 1497.0931942080913 -46.711219290793 29.032536000001077
    vertex 1497.0931942080927 -24.590477290793313 35.53253599999997
    vertex 1497.0931942080915 -24.59047729079336 29.032535999999915
  endloop
endfacet
facet normal 1.0 -4.877138568444711e-16 5.020436789956517e-15
  outer loop
    vertex 1519.1535652080918 -24.590477290793327 29.032535999998892
    vertex 1519.153565208093 -46.71121929079297 35.53253600000016
    vertex 1519.1535652080915 -46.71121929079302 29.0325360000001
  endloop
endfacet
facet normal 1.0 -4.877138568444711e-16 5.020436789956517e-15
  outer loop
    vertex 1519.153565208093 -46.71121929079297 35.53253600000016
    vertex 1519.1535652080918 -24.590477290793327 29.032535999998892
    vertex 1519.153565208093 -24.59047729079328 35.53253599999895
  endloop
endfacet
facet normal -1.5891869758902026e-16 -1.0 7.13612356844737e-15
  outer loop
    vertex 1497.0931942080913 -46.711219290793 29.032536000001077
    vertex 1519.153565208093 -46.71121929079297 35.53253600000016
    vertex 1497.0931942080927 -46.71121929079295 35.53253600000113
  endloop
endfacet
facet normal -1.5891869758902026e-16 -1.0 7.13612356844737e-15
  outer loop
    vertex 1519.153565208093 -46.71121929079297 35.53253600000016
    vertex 1497.0931942080913 -46.711219290793 29.032536000001077
    vertex 1519.1535652080915 -46.71121929079302 29.0325360000001
  endloop
endfacet
facet normal 4.9320311170548616e-17 1.0 -1.1908374538913001e-14
  outer loop
    vertex 1519.153565208093 -24.59047729079328 35.53253599999895
    vertex 1497.0931942080915 -24.59047729079336 29.032535999999915
    vertex 1497.0931942080927 -24.590477290793313 35.53253599999997
  endloop
endfacet
facet normal 4.9320311170548616e-17 1.0 -1.1908374538913001e-14
  outer loop
    vertex 1497.0931942080915 -24.59047729079336 29.032535999999915
    vertex 1519.153565208093 -24.59047729079328 35.53253599999895
    vertex 1519.1535652080918 -24.590477290793327 29.032535999998892
  endloop
endfacet
facet normal -1.0 2.5274041945721605e-15 -5.020436789956516e-15
  outer loop
    vertex 1497.0931942080927 -24.590477290793267 42.032535999999936
    vertex 1497.0931942080927 -46.71121929079295 35.53253600000113
    vertex 1497.0931942080924 -46.7112192907929 42.032536000001095
  endloop
endfacet
facet normal -1.0 2.5274041945721605e-15 -5.020436789956516e-15
  outer loop
    vertex 1497.0931942080927 -46.71121929079295 35.53253600000113
    vertex 1497.0931942080927 -24.590477290793267 42.032535999999936
    vertex 1497.0931942080927 -24.590477290793313 35.53253599999997
  endloop
endfacet
facet normal 2.36041953401983e-17 -1.0 2.6229018956769406e-15
  outer loop
    vertex 1497.0931942080927 -46.71121929079295 35.53253600000113
    vertex 1519.1535652080927 -46.71121929079291 42.03253600000012
    vertex 1497.0931942080924 -46.7112192907929 42.032536000001095
  endloop
endfacet
facet normal 2.36041953401983e-17 -1.0 2.6229018956769406e-15
  outer loop
    vertex 1519.1535652080927 -46.71121929079291 42.03253600000012
    vertex 1497.0931942080927 -46.71121929079295 35.53253600000113
    vertex 1519.153565208093 -46.71121929079297 35.53253600000016
  endloop
endfacet
facet normal 1.0 -4.877138568444711e-16 5.0204367899565154e-15
  outer loop
    vertex 1519.153565208093 -24.59047729079328 35.53253599999895
    vertex 1519.1535652080927 -46.71121929079291 42.03253600000012
    vertex 1519.153565208093 -46.71121929079297 35.53253600000016
  endloop
endfacet
facet normal 1.0 -4.877138568444711e-16 5.0204367899565154e-15
  outer loop
    vertex 1519.1535652080927 -46.71121929079291 42.03253600000012
    vertex 1519.153565208093 -24.59047729079328 35.53253599999895
    vertex 1519.153565208093 -24.59047729079323 42.03253599999891
  endloop
endfacet
facet normal 4.877138568444843e-16 1.0 -2.622901895676939e-15
  outer loop
    vertex 1519.153565208093 -24.59047729079323 42.03253599999891
    vertex 1497.0931942080927 -24.590477290793313 35.53253599999997
    vertex 1497.0931942080927 -24.590477290793267 42.032535999999936
  endloop
endfacet
facet normal 4.877138568444843e-16 1.0 -2.622901895676939e-15
  outer loop
    vertex 1497.0931942080927 -24.590477290793313 35.53253599999997
    vertex 1519.153565208093 -24.59047729079323 42.03253599999891
    vertex 1519.153565208093 -24.59047729079328 35.53253599999895
  endloop
endfacet
facet normal 4.537947713139054e-14 5.341439071924348e-14 1.0
  outer loop
    vertex 1519.153565208093 -24.59047729079323 42.03253599999891
    vertex 1510.9510780405813 -34.000848290791986 42.03253599999986
    vertex 1519.1535652080927 -46.71121929079291 42.03253600000012
  endloop
endfacet
facet normal 4.537947713139054e-14 5.341439071924348e-14 1.0
  outer loop
    vertex 1510.9510780405813 -34.000848290791986 42.03253599999986
    vertex 1519.153565208093 -24.59047729079323 42.03253599999891
    vertex 1510.4266465860082 -33.31739591287638 42.032535999999844
  endloop
endfacet
facet normal 4.537947713139054e-14 5.341439071924348e-14 1.0
  outer loop
    vertex 1510.4266465860082 -33.31739591287638 42.032535999999844
    vertex 1519.153565208093 -24.59047729079323 42.03253599999891
    vertex 1509.7431942080927 -32.79296445830334 42.032535999999844
  endloop
endfacet
facet normal 4.537947713139054e-14 5.341439071924348e-14 1.0
  outer loop
    vertex 1509.7431942080927 -32.79296445830334 42.032535999999844
    vertex 1519.153565208093 -24.59047729079323 42.03253599999891
    vertex 1497.0931942080927 -24.590477290793267 42.032535999999936
  endloop
endfacet
facet normal 4.537947713139054e-14 5.341439071924348e-14 1.0
  outer loop
    vertex 1519.1535652080927 -46.71121929079291 42.03253600000012
    vertex 1510.9510780405813 -34.000848290791986 42.03253599999986
    vertex 1511.2807494348465 -34.796745441953675 42.03253599999989
  endloop
endfacet
facet normal 4.537947713139054e-14 5.341439071924348e-14 1.0
  outer loop
    vertex 1519.1535652080927 -46.71121929079291 42.03253600000012
    vertex 1511.2807494348465 -34.796745441953675 42.03253599999989
    vertex 1511.3931942080926 -35.650848290791984 42.032535999999915
  endloop
endfacet
facet normal 4.537947713139054e-14 5.341439071924348e-14 1.0
  outer loop
    vertex 1509.7431942080927 -32.79296445830334 42.032535999999844
    vertex 1497.0931942080927 -24.590477290793267 42.032535999999936
    vertex 1508.947297056931 -32.46329306403806 42.032535999999865
  endloop
endfacet
facet normal 4.537947713139054e-14 5.341439071924348e-14 1.0
  outer loop
    vertex 1508.947297056931 -32.46329306403806 42.032535999999865
    vertex 1497.0931942080927 -24.590477290793267 42.032535999999936
    vertex 1508.0931942080927 -32.35084829079199 42.032535999999894
  endloop
endfacet
facet normal 4.537947713139054e-14 5.341439071924348e-14 1.0
  outer loop
    vertex 1508.0931942080927 -32.35084829079199 42.032535999999894
    vertex 1497.0931942080927 -24.590477290793267 42.032535999999936
    vertex 1507.2390913592544 -32.46329306403806 42.03253599999994
  endloop
endfacet
facet normal 4.537947713139054e-14 5.341439071924348e-14 1.0
  outer loop
    vertex 1507.2390913592544 -32.46329306403806 42.03253599999994
    vertex 1497.0931942080927 -24.590477290793267 42.032535999999936
    vertex 1506.4431942080928 -32.79296445830334 42.032536
  endloop
endfacet
facet normal 4.537947713139054e-14 5.341439071924348e-14 1.0
  outer loop
    vertex 1506.4431942080928 -32.79296445830334 42.032536
    vertex 1497.0931942080927 -24.590477290793267 42.032535999999936
    vertex 1505.759741830177 -33.31739591287638 42.03253600000005
  endloop
endfacet
facet normal 4.537947713139054e-14 5.341439071924348e-14 1.0
  outer loop
    vertex 1505.759741830177 -33.31739591287638 42.03253600000005
    vertex 1497.0931942080927 -24.590477290793267 42.032535999999936
    vertex 1505.235310375604 -34.00084829079199 42.032536000000114
  endloop
endfacet
facet normal 4.537947713139054e-14 5.341439071924348e-14 1.0
  outer loop
    vertex 1505.235310375604 -34.00084829079199 42.032536000000114
    vertex 1497.0931942080927 -24.590477290793267 42.032535999999936
    vertex 1504.9056389813388 -34.79674544195367 42.03253600000018
  endloop
endfacet
facet normal 4.537947713139054e-14 5.341439071924348e-14 1.0
  outer loop
    vertex 1504.9056389813388 -34.79674544195367 42.03253600000018
    vertex 1497.0931942080927 -24.590477290793267 42.032535999999936
    vertex 1504.7931942080927 -35.650848290791984 42.03253600000023
  endloop
endfacet
facet normal 4.537947713139054e-14 5.341439071924348e-14 1.0
  outer loop
    vertex 1504.7931942080927 -35.650848290791984 42.03253600000023
    vertex 1497.0931942080927 -24.590477290793267 42.032535999999936
    vertex 1504.7518644782083 -40.20006185316453 42.03253600000008
  endloop
endfacet
facet normal 4.537947713139054e-14 5.341439071924348e-14 1.0
  outer loop
    vertex 1504.7518644782083 -40.20006185316453 42.03253600000008
    vertex 1497.0931942080927 -24.590477290793267 42.032535999999936
    vertex 1504.227433023635 -39.51660947524895 42.032536000000114
  endloop
endfacet
facet normal 4.537947713139054e-14 5.341439071924348e-14 1.0
  outer loop
    vertex 1504.227433023635 -39.51660947524895 42.032536000000114
    vertex 1497.0931942080927 -24.590477290793267 42.032535999999936
    vertex 1503.5439806457196 -38.99217802067589 42.03253600000011
  endloop
endfacet
facet normal 4.537947713139054e-14 5.341439071924348e-14 1.0
  outer loop
    vertex 1503.5439806457196 -38.99217802067589 42.03253600000011
    vertex 1497.0931942080927 -24.590477290793267 42.032535999999936
    vertex 1502.748083494558 -38.66250662641063 42.03253600000119
  endloop
endfacet
facet normal 4.537947713139054e-14 5.341439071924348e-14 1.0
  outer loop
    vertex 1502.748083494558 -38.66250662641063 42.03253600000119
    vertex 1497.0931942080927 -24.590477290793267 42.032535999999936
    vertex 1501.8939806457197 -38.550061853164586 42.03253600000114
  endloop
endfacet
facet normal 4.537947713139054e-14 5.341439071924348e-14 1.0
  outer loop
    vertex 1501.8939806457197 -38.550061853164586 42.03253600000114
    vertex 1497.0931942080927 -24.590477290793267 42.032535999999936
    vertex 1501.0398777968812 -38.66250662641063 42.03253600000114
  endloop
endfacet
facet normal 4.537947713139054e-14 5.341439071924348e-14 1.0
  outer loop
    vertex 1501.0398777968812 -38.66250662641063 42.03253600000114
    vertex 1497.0931942080927 -24.590477290793267 42.032535999999936
    vertex 1500.2439806457196 -38.992178020675844 42.03253600000114
  endloop
endfacet
facet normal 4.537947713139054e-14 5.341439071924348e-14 1.0
  outer loop
    vertex 1500.2439806457196 -38.992178020675844 42.03253600000114
    vertex 1497.0931942080927 -24.590477290793267 42.032535999999936
    vertex 1499.560528267804 -39.516609475248906 42.03253600000119
  endloop
endfacet
facet normal 4.537947713139054e-14 5.341439071924348e-14 1.0
  outer loop
    vertex 1499.560528267804 -39.516609475248906 42.03253600000119
    vertex 1497.0931942080927 -24.590477290793267 42.032535999999936
    vertex 1499.0360968132309 -40.20006185316457 42.032536000001144
  endloop
endfacet
facet normal 4.537947713139054e-14 5.341439071924348e-14 1.0
  outer loop
    vertex 1499.0360968132309 -40.20006185316457 42.032536000001144
    vertex 1497.0931942080927 -24.590477290793267 42.032535999999936
    vertex 1498.7064254189656 -40.995959004326195 42.032536000001144
  endloop
endfacet
facet normal 4.537947713139054e-14 5.341439071924348e-14 1.0
  outer loop
    vertex 1498.7064254189656 -40.995959004326195 42.032536000001144
    vertex 1497.0931942080927 -24.590477290793267 42.032535999999936
    vertex 1498.5939806457195 -41.85006185316456 42.03253600000115
  endloop
endfacet
facet normal 4.537947713139054e-14 5.341439071924348e-14 1.0
  outer loop
    vertex 1519.1535652080927 -46.71121929079291 42.03253600000012
    vertex 1502.7480834945577 -45.03761707991848 42.03253600000124
    vertex 1497.0931942080924 -46.7112192907929 42.032536000001095
  endloop
endfacet
facet normal 4.537947713139054e-14 5.341439071924348e-14 1.0
  outer loop
    vertex 1502.7480834945577 -45.03761707991848 42.03253600000124
    vertex 1519.1535652080927 -46.71121929079291 42.03253600000012
    vertex 1503.5439806457193 -44.70794568565314 42.03253600000016
  endloop
endfacet
facet normal 4.537947713139054e-14 5.341439071924348e-14 1.0
  outer loop
    vertex 1503.5439806457193 -44.70794568565314 42.03253600000016
    vertex 1519.1535652080927 -46.71121929079291 42.03253600000012
    vertex 1504.227433023635 -44.18351423108017 42.03253600000011
  endloop
endfacet
facet normal 4.537947713139054e-14 5.341439071924348e-14 1.0
  outer loop
    vertex 1504.227433023635 -44.18351423108017 42.03253600000011
    vertex 1519.1535652080927 -46.71121929079291 42.03253600000012
    vertex 1510.4266465860082 -37.9843006687076 42.03253600000009
  endloop
endfacet
facet normal 4.537947713139054e-14 5.341439071924348e-14 1.0
  outer loop
    vertex 1510.4266465860082 -37.9843006687076 42.03253600000009
    vertex 1519.1535652080927 -46.71121929079291 42.03253600000012
    vertex 1510.9510780405813 -37.30084829079198 42.03253600000003
  endloop
endfacet
facet normal 4.537947713139054e-14 5.341439071924348e-14 1.0
  outer loop
    vertex 1510.9510780405813 -37.30084829079198 42.03253600000003
    vertex 1519.1535652080927 -46.71121929079291 42.03253600000012
    vertex 1511.2807494348465 -36.50495113963031 42.03253599999997
  endloop
endfacet
facet normal 4.537947713139054e-14 5.341439071924348e-14 1.0
  outer loop
    vertex 1511.2807494348465 -36.50495113963031 42.03253599999997
    vertex 1519.1535652080927 -46.71121929079291 42.03253600000012
    vertex 1511.3931942080926 -35.650848290791984 42.032535999999915
  endloop
endfacet
facet normal 4.537947713139054e-14 5.341439071924348e-14 1.0
  outer loop
    vertex 1504.227433023635 -44.18351423108017 42.03253600000011
    vertex 1510.4266465860082 -37.9843006687076 42.03253600000009
    vertex 1509.7431942080927 -38.50873212328064 42.03253600000015
  endloop
endfacet
facet normal 4.537947713139054e-14 5.341439071924348e-14 1.0
  outer loop
    vertex 1504.227433023635 -44.18351423108017 42.03253600000011
    vertex 1509.7431942080927 -38.50873212328064 42.03253600000015
    vertex 1508.947297056931 -38.83840351754591 42.0325360000002
  endloop
endfacet
facet normal 4.537947713139054e-14 5.341439071924348e-14 1.0
  outer loop
    vertex 1504.227433023635 -44.18351423108017 42.03253600000011
    vertex 1508.947297056931 -38.83840351754591 42.0325360000002
    vertex 1504.751864478208 -43.500061853164496 42.0325360000001
  endloop
endfacet
facet normal 4.537947713139054e-14 5.341439071924348e-14 1.0
  outer loop
    vertex 1504.751864478208 -43.500061853164496 42.0325360000001
    vertex 1508.947297056931 -38.83840351754591 42.0325360000002
    vertex 1508.0931942080927 -38.95084829079199 42.03253600000025
  endloop
endfacet
facet normal 4.537947713139054e-14 5.341439071924348e-14 1.0
  outer loop
    vertex 1504.751864478208 -43.500061853164496 42.0325360000001
    vertex 1508.0931942080927 -38.95084829079199 42.03253600000025
    vertex 1507.2390913592544 -38.83840351754591 42.03253600000028
  endloop
endfacet
facet normal 4.537947713139054e-14 5.341439071924348e-14 1.0
  outer loop
    vertex 1504.751864478208 -43.500061853164496 42.0325360000001
    vertex 1507.2390913592544 -38.83840351754591 42.03253600000028
    vertex 1505.0815358724735 -42.704164702002885 42.03253600000014
  endloop
endfacet
facet normal 4.537947713139054e-14 5.341439071924348e-14 1.0
  outer loop
    vertex 1505.0815358724735 -42.704164702002885 42.03253600000014
    vertex 1507.2390913592544 -38.83840351754591 42.03253600000028
    vertex 1506.4431942080928 -38.50873212328064 42.0325360000003
  endloop
endfacet
facet normal 4.537947713139054e-14 5.341439071924348e-14 1.0
  outer loop
    vertex 1505.0815358724735 -42.704164702002885 42.03253600000014
    vertex 1506.4431942080928 -38.50873212328064 42.0325360000003
    vertex 1505.759741830177 -37.9843006687076 42.032536000000306
  endloop
endfacet
facet normal 4.537947713139054e-14 5.341439071924348e-14 1.0
  outer loop
    vertex 1505.0815358724735 -42.704164702002885 42.03253600000014
    vertex 1505.759741830177 -37.9843006687076 42.032536000000306
    vertex 1505.1939806457194 -41.85006185316452 42.032536000000086
  endloop
endfacet
facet normal 4.537947713139054e-14 5.341439071924348e-14 1.0
  outer loop
    vertex 1505.1939806457194 -41.85006185316452 42.032536000000086
    vertex 1505.759741830177 -37.9843006687076 42.032536000000306
    vertex 1505.235310375604 -37.30084829079198 42.032536000000285
  endloop
endfacet
facet normal 4.537947713139054e-14 5.341439071924348e-14 1.0
  outer loop
    vertex 1497.0931942080924 -46.7112192907929 42.032536000001095
    vertex 1502.7480834945577 -45.03761707991848 42.03253600000124
    vertex 1501.8939806457195 -45.15006185316453 42.03253600000119
  endloop
endfacet
facet normal 4.537947713139054e-14 5.341439071924348e-14 1.0
  outer loop
    vertex 1497.0931942080924 -46.7112192907929 42.032536000001095
    vertex 1501.8939806457195 -45.15006185316453 42.03253600000119
    vertex 1501.0398777968812 -45.03761707991848 42.03253600000123
  endloop
endfacet
facet normal 4.537947713139054e-14 5.341439071924348e-14 1.0
  outer loop
    vertex 1497.0931942080924 -46.7112192907929 42.032536000001095
    vertex 1501.0398777968812 -45.03761707991848 42.03253600000123
    vertex 1500.2439806457194 -44.707945685653186 42.03253600000123
  endloop
endfacet
facet normal 4.537947713139054e-14 5.341439071924348e-14 1.0
  outer loop
    vertex 1497.0931942080924 -46.7112192907929 42.032536000001095
    vertex 1500.2439806457194 -44.707945685653186 42.03253600000123
    vertex 1499.5605282678039 -44.183514231080125 42.03253600000122
  endloop
endfacet
facet normal 4.537947713139054e-14 5.341439071924348e-14 1.0
  outer loop
    vertex 1497.0931942080924 -46.7112192907929 42.032536000001095
    vertex 1499.5605282678039 -44.183514231080125 42.03253600000122
    vertex 1499.0360968132309 -43.500061853164546 42.032536000001215
  endloop
endfacet
facet normal 4.537947713139054e-14 5.341439071924348e-14 1.0
  outer loop
    vertex 1497.0931942080924 -46.7112192907929 42.032536000001095
    vertex 1499.0360968132309 -43.500061853164546 42.032536000001215
    vertex 1498.7064254189656 -42.70416470200283 42.03253600000116
  endloop
endfacet
facet normal 4.537947713139054e-14 5.341439071924348e-14 1.0
  outer loop
    vertex 1497.0931942080924 -46.7112192907929 42.032536000001095
    vertex 1498.7064254189656 -42.70416470200283 42.03253600000116
    vertex 1498.5939806457195 -41.85006185316456 42.03253600000115
  endloop
endfacet
facet normal 4.537947713139054e-14 5.341439071924348e-14 1.0
  outer loop
    vertex 1497.0931942080924 -46.7112192907929 42.032536000001095
    vertex 1498.5939806457195 -41.85006185316456 42.03253600000115
    vertex 1497.0931942080927 -24.590477290793267 42.032535999999936
  endloop
endfacet
facet normal 4.537947713139054e-14 5.341439071924348e-14 1.0
  outer loop
    vertex 1504.9056389813388 -36.50495113963031 42.03253600000026
    vertex 1505.1939806457194 -41.85006185316452 42.032536000000086
    vertex 1505.235310375604 -37.30084829079198 42.032536000000285
  endloop
endfacet
facet normal 4.537947713139054e-14 5.341439071924348e-14 1.0
  outer loop
    vertex 1505.1939806457194 -41.85006185316452 42.032536000000086
    vertex 1504.9056389813388 -36.50495113963031 42.03253600000026
    vertex 1505.0815358724735 -40.995959004326245 42.03253600000008
  endloop
endfacet
facet normal 4.537947713139054e-14 5.341439071924348e-14 1.0
  outer loop
    vertex 1505.0815358724735 -40.995959004326245 42.03253600000008
    vertex 1504.9056389813388 -36.50495113963031 42.03253600000026
    vertex 1504.7518644782083 -40.20006185316453 42.03253600000008
  endloop
endfacet
facet normal 4.537947713139054e-14 5.341439071924348e-14 1.0
  outer loop
    vertex 1504.7518644782083 -40.20006185316453 42.03253600000008
    vertex 1504.9056389813388 -36.50495113963031 42.03253600000026
    vertex 1504.7931942080927 -35.650848290791984 42.03253600000023
  endloop
endfacet
facet normal 0.13051808968010364 -0.9914459280596171 5.110149871684959e-07
  outer loop
    vertex 1501.039877776666 -38.66250655702463 22.53253600000054
    vertex 1501.8939806457197 -38.550061853164586 42.03253600000114
    vertex 1501.0398777968812 -38.66250662641063 42.03253600000114
  endloop
endfacet
facet normal 0.13051808968010364 -0.9914459280596171 5.110149871684959e-07
  outer loop
    vertex 1501.8939806457197 -38.550061853164586 42.03253600000114
    vertex 1501.039877776666 -38.66250655702463 22.53253600000054
    vertex 1501.8941289075744 -38.55006185316483 22.53253600000045
  endloop
endfacet
facet normal 0.1305261922200581 0.9914448613738097 -5.859933129650136e-14
  outer loop
    vertex 1508.0931942080927 -38.95084829079199 42.03253600000025
    vertex 1507.2390913592542 -38.83840351754687 22.53253600000023
    vertex 1507.2390913592544 -38.83840351754591 42.03253600000028
  endloop
endfacet
facet normal 0.1305261922200581 0.9914448613738097 -5.859933129650136e-14
  outer loop
    vertex 1507.2390913592542 -38.83840351754687 22.53253600000023
    vertex 1508.0931942080927 -38.95084829079199 42.03253600000025
    vertex 1508.0931942080924 -38.95084829079295 22.532536000000196
  endloop
endfacet
facet normal -0.1305261922200581 0.9914448613738097 -4.672465497847639e-14
  outer loop
    vertex 1508.947297056931 -38.83840351754591 42.0325360000002
    vertex 1508.0931942080924 -38.95084829079295 22.532536000000196
    vertex 1508.0931942080927 -38.95084829079199 42.03253600000025
  endloop
endfacet
facet normal -0.1305261922200581 0.9914448613738097 -4.672465497847639e-14
  outer loop
    vertex 1508.0931942080924 -38.95084829079295 22.532536000000196
    vertex 1508.947297056931 -38.83840351754591 42.0325360000002
    vertex 1508.947297056931 -38.83840351754687 22.532536000000153
  endloop
endfacet
facet normal -0.3826834323650755 0.9238795325112927 -3.1665770639813397e-14
  outer loop
    vertex 1509.7431942080927 -38.50873212328064 42.03253600000015
    vertex 1508.947297056931 -38.83840351754687 22.532536000000153
    vertex 1508.947297056931 -38.83840351754591 42.0325360000002
  endloop
endfacet
facet normal -0.3826834323650755 0.9238795325112927 -3.1665770639813397e-14
  outer loop
    vertex 1508.947297056931 -38.83840351754687 22.532536000000153
    vertex 1509.7431942080927 -38.50873212328064 42.03253600000015
    vertex 1509.7431942080925 -38.5087321232816 22.532536000000096
  endloop
endfacet
facet normal -0.6087614290087371 0.7933533402912225 -1.4448916362203743e-14
  outer loop
    vertex 1510.4266465860082 -37.9843006687076 42.03253600000009
    vertex 1509.7431942080925 -38.5087321232816 22.532536000000096
    vertex 1509.7431942080927 -38.50873212328064 42.03253600000015
  endloop
endfacet
facet normal -0.6087614290087371 0.7933533402912225 -1.4448916362203743e-14
  outer loop
    vertex 1509.7431942080925 -38.5087321232816 22.532536000000096
    vertex 1510.4266465860082 -37.9843006687076 42.03253600000009
    vertex 1510.426646586008 -37.984300668708556 22.532536000000036
  endloop
endfacet
facet normal -0.7933533402912245 0.6087614290087346 3.75260768752189e-15
  outer loop
    vertex 1510.4266465860082 -37.9843006687076 42.03253600000009
    vertex 1510.9510780405813 -37.30084829079294 22.532535999999986
    vertex 1510.426646586008 -37.984300668708556 22.532536000000036
  endloop
endfacet
facet normal -0.7933533402912245 0.6087614290087346 3.75260768752189e-15
  outer loop
    vertex 1510.9510780405813 -37.30084829079294 22.532535999999986
    vertex 1510.4266465860082 -37.9843006687076 42.03253600000009
    vertex 1510.9510780405813 -37.30084829079198 42.03253600000003
  endloop
endfacet
facet normal -0.9238795325113148 0.3826834323650224 2.1698397724828968e-14
  outer loop
    vertex 1510.9510780405813 -37.30084829079198 42.03253600000003
    vertex 1511.2807494348463 -36.50495113963127 22.532535999999915
    vertex 1510.9510780405813 -37.30084829079294 22.532535999999986
  endloop
endfacet
facet normal -0.9238795325113148 0.3826834323650224 2.1698397724828968e-14
  outer loop
    vertex 1511.2807494348463 -36.50495113963127 22.532535999999915
    vertex 1510.9510780405813 -37.30084829079198 42.03253600000003
    vertex 1511.2807494348465 -36.50495113963031 42.03253599999997
  endloop
endfacet
facet normal -0.9914448613738013 0.1305261922201221 3.8165477815471856e-14
  outer loop
    vertex 1511.2807494348465 -36.50495113963031 42.03253599999997
    vertex 1511.3931942080924 -35.65084829079295 22.53253599999987
    vertex 1511.2807494348463 -36.50495113963127 22.532535999999915
  endloop
endfacet
facet normal -0.9914448613738013 0.1305261922201221 3.8165477815471856e-14
  outer loop
    vertex 1511.3931942080924 -35.65084829079295 22.53253599999987
    vertex 1511.2807494348465 -36.50495113963031 42.03253599999997
    vertex 1511.3931942080926 -35.650848290791984 42.032535999999915
  endloop
endfacet
facet normal -0.9914448613738013 -0.1305261922201221 5.203164366444078e-14
  outer loop
    vertex 1511.3931942080926 -35.650848290791984 42.032535999999915
    vertex 1511.2807494348463 -34.796745441954634 22.532535999999823
    vertex 1511.3931942080924 -35.65084829079295 22.53253599999987
  endloop
endfacet
facet normal -0.9914448613738013 -0.1305261922201221 5.203164366444078e-14
  outer loop
    vertex 1511.2807494348463 -34.796745441954634 22.532535999999823
    vertex 1511.3931942080926 -35.650848290791984 42.032535999999915
    vertex 1511.2807494348465 -34.796745441953675 42.03253599999989
  endloop
endfacet
facet normal -0.9238795325113158 -0.38268343236502006 6.23519389840218e-14
  outer loop
    vertex 1511.2807494348465 -34.796745441953675 42.03253599999989
    vertex 1510.9510780405813 -34.00084829079295 22.532535999999805
    vertex 1511.2807494348463 -34.796745441954634 22.532535999999823
  endloop
endfacet
facet normal -0.9238795325113158 -0.38268343236502006 6.23519389840218e-14
  outer loop
    vertex 1510.9510780405813 -34.00084829079295 22.532535999999805
    vertex 1511.2807494348465 -34.796745441953675 42.03253599999989
    vertex 1510.9510780405813 -34.000848290791986 42.03253599999986
  endloop
endfacet
facet normal -0.7933533402912221 -0.6087614290087378 6.842305270330113e-14
  outer loop
    vertex 1510.9510780405813 -34.000848290791986 42.03253599999986
    vertex 1510.426646586008 -33.31739591287734 22.53253599999979
    vertex 1510.9510780405813 -34.00084829079295 22.532535999999805
  endloop
endfacet
facet normal -0.7933533402912221 -0.6087614290087378 6.842305270330113e-14
  outer loop
    vertex 1510.426646586008 -33.31739591287734 22.53253599999979
    vertex 1510.9510780405813 -34.000848290791986 42.03253599999986
    vertex 1510.4266465860082 -33.31739591287638 42.032535999999844
  endloop
endfacet
facet normal -0.6087614290087371 -0.7933533402912225 6.983124845528855e-14
  outer loop
    vertex 1509.7431942080925 -32.7929644583043 22.53253599999979
    vertex 1510.4266465860082 -33.31739591287638 42.032535999999844
    vertex 1509.7431942080927 -32.79296445830334 42.032535999999844
  endloop
endfacet
facet normal -0.6087614290087371 -0.7933533402912225 6.983124845528855e-14
  outer loop
    vertex 1510.4266465860082 -33.31739591287638 42.032535999999844
    vertex 1509.7431942080925 -32.7929644583043 22.53253599999979
    vertex 1510.426646586008 -33.31739591287734 22.53253599999979
  endloop
endfacet
facet normal -0.3826834323650755 -0.9238795325112927 6.648056002664229e-14
  outer loop
    vertex 1508.947297056931 -32.46329306403902 22.532535999999812
    vertex 1509.7431942080927 -32.79296445830334 42.032535999999844
    vertex 1508.947297056931 -32.46329306403806 42.032535999999865
  endloop
endfacet
facet normal -0.3826834323650755 -0.9238795325112927 6.648056002664229e-14
  outer loop
    vertex 1509.7431942080927 -32.79296445830334 42.032535999999844
    vertex 1508.947297056931 -32.46329306403902 22.532535999999812
    vertex 1509.7431942080925 -32.7929644583043 22.53253599999979
  endloop
endfacet
facet normal -0.1305261922200581 -0.9914448613738097 5.859933129650136e-14
  outer loop
    vertex 1508.0931942080924 -32.350848290792946 22.532535999999848
    vertex 1508.947297056931 -32.46329306403806 42.032535999999865
    vertex 1508.0931942080927 -32.35084829079199 42.032535999999894
  endloop
endfacet
facet normal -0.1305261922200581 -0.9914448613738097 5.859933129650136e-14
  outer loop
    vertex 1508.947297056931 -32.46329306403806 42.032535999999865
    vertex 1508.0931942080924 -32.350848290792946 22.532535999999848
    vertex 1508.947297056931 -32.46329306403902 22.532535999999812
  endloop
endfacet
facet normal 0.1305261922200581 -0.9914448613738097 4.672465497847639e-14
  outer loop
    vertex 1507.2390913592542 -32.46329306403902 22.53253599999989
    vertex 1508.0931942080927 -32.35084829079199 42.032535999999894
    vertex 1507.2390913592544 -32.46329306403806 42.03253599999994
  endloop
endfacet
facet normal 0.1305261922200581 -0.9914448613738097 4.672465497847639e-14
  outer loop
    vertex 1508.0931942080927 -32.35084829079199 42.032535999999894
    vertex 1507.2390913592542 -32.46329306403902 22.53253599999989
    vertex 1508.0931942080924 -32.350848290792946 22.532535999999848
  endloop
endfacet
facet normal 0.3826834323650755 -0.9238795325112927 3.1665770639813397e-14
  outer loop
    vertex 1506.4431942080926 -32.7929644583043 22.532535999999933
    vertex 1507.2390913592544 -32.46329306403806 42.03253599999994
    vertex 1506.4431942080928 -32.79296445830334 42.032536
  endloop
endfacet
facet normal 0.3826834323650755 -0.9238795325112927 3.1665770639813397e-14
  outer loop
    vertex 1507.2390913592544 -32.46329306403806 42.03253599999994
    vertex 1506.4431942080926 -32.7929644583043 22.532535999999933
    vertex 1507.2390913592542 -32.46329306403902 22.53253599999989
  endloop
endfacet
facet normal 0.6087614290087371 -0.7933533402912225 1.4448916362203743e-14
  outer loop
    vertex 1505.759741830177 -33.31739591287734 22.532536000000007
    vertex 1506.4431942080928 -32.79296445830334 42.032536
    vertex 1505.759741830177 -33.31739591287638 42.03253600000005
  endloop
endfacet
facet normal 0.6087614290087371 -0.7933533402912225 1.4448916362203743e-14
  outer loop
    vertex 1506.4431942080928 -32.79296445830334 42.032536
    vertex 1505.759741830177 -33.31739591287734 22.532536000000007
    vertex 1506.4431942080926 -32.7929644583043 22.532535999999933
  endloop
endfacet
facet normal 0.7933533402912245 -0.6087614290087346 -3.75260768752189e-15
  outer loop
    vertex 1505.759741830177 -33.31739591287734 22.532536000000007
    vertex 1505.235310375604 -34.00084829079199 42.032536000000114
    vertex 1505.2353103756038 -34.00084829079295 22.53253600000006
  endloop
endfacet
facet normal 0.7933533402912245 -0.6087614290087346 -3.75260768752189e-15
  outer loop
    vertex 1505.235310375604 -34.00084829079199 42.032536000000114
    vertex 1505.759741830177 -33.31739591287734 22.532536000000007
    vertex 1505.759741830177 -33.31739591287638 42.03253600000005
  endloop
endfacet
facet normal 0.9238795325113148 -0.3826834323650224 -2.1698397724828968e-14
  outer loop
    vertex 1505.2353103756038 -34.00084829079295 22.53253600000006
    vertex 1504.9056389813388 -34.79674544195367 42.03253600000018
    vertex 1504.9056389813386 -34.796745441954634 22.532536000000118
  endloop
endfacet
facet normal 0.9238795325113148 -0.3826834323650224 -2.1698397724828968e-14
  outer loop
    vertex 1504.9056389813388 -34.79674544195367 42.03253600000018
    vertex 1505.2353103756038 -34.00084829079295 22.53253600000006
    vertex 1505.235310375604 -34.00084829079199 42.032536000000114
  endloop
endfacet
facet normal 0.9914448613738013 -0.1305261922201221 -3.8165477815471856e-14
  outer loop
    vertex 1504.9056389813386 -34.796745441954634 22.532536000000118
    vertex 1504.7931942080927 -35.650848290791984 42.03253600000023
    vertex 1504.7931942080925 -35.65084829079295 22.532536000000174
  endloop
endfacet
facet normal 0.9914448613738013 -0.1305261922201221 -3.8165477815471856e-14
  outer loop
    vertex 1504.7931942080927 -35.650848290791984 42.03253600000023
    vertex 1504.9056389813386 -34.796745441954634 22.532536000000118
    vertex 1504.9056389813388 -34.79674544195367 42.03253600000018
  endloop
endfacet
facet normal 0.9914448613738013 0.13052619222012124 -5.203164366444073e-14
  outer loop
    vertex 1504.7931942080925 -35.65084829079295 22.532536000000174
    vertex 1504.9056389813388 -36.50495113963031 42.03253600000026
    vertex 1504.9056389813386 -36.504951139631274 22.532536000000206
  endloop
endfacet
facet normal 0.9914448613738013 0.13052619222012124 -5.203164366444073e-14
  outer loop
    vertex 1504.9056389813388 -36.50495113963031 42.03253600000026
    vertex 1504.7931942080925 -35.65084829079295 22.532536000000174
    vertex 1504.7931942080927 -35.650848290791984 42.03253600000023
  endloop
endfacet
facet normal 0.9238795325113148 0.3826834323650224 -6.23519389840219e-14
  outer loop
    vertex 1504.9056389813386 -36.504951139631274 22.532536000000206
    vertex 1505.235310375604 -37.30084829079198 42.032536000000285
    vertex 1505.2353103756038 -37.30084829079295 22.53253600000023
  endloop
endfacet
facet normal 0.9238795325113148 0.3826834323650224 -6.23519389840219e-14
  outer loop
    vertex 1505.235310375604 -37.30084829079198 42.032536000000285
    vertex 1504.9056389813386 -36.504951139631274 22.532536000000206
    vertex 1504.9056389813388 -36.50495113963031 42.03253600000026
  endloop
endfacet
facet normal 0.7933533402912221 0.6087614290087378 -6.842305270330113e-14
  outer loop
    vertex 1505.2353103756038 -37.30084829079295 22.53253600000023
    vertex 1505.759741830177 -37.9843006687076 42.032536000000306
    vertex 1505.759741830177 -37.984300668708556 22.532536000000253
  endloop
endfacet
facet normal 0.7933533402912221 0.6087614290087378 -6.842305270330113e-14
  outer loop
    vertex 1505.759741830177 -37.9843006687076 42.032536000000306
    vertex 1505.2353103756038 -37.30084829079295 22.53253600000023
    vertex 1505.235310375604 -37.30084829079198 42.032536000000285
  endloop
endfacet
facet normal 0.6087614290087371 0.7933533402912225 -6.983124845528855e-14
  outer loop
    vertex 1506.4431942080928 -38.50873212328064 42.0325360000003
    vertex 1505.759741830177 -37.984300668708556 22.532536000000253
    vertex 1505.759741830177 -37.9843006687076 42.032536000000306
  endloop
endfacet
facet normal 0.6087614290087371 0.7933533402912225 -6.983124845528855e-14
  outer loop
    vertex 1505.759741830177 -37.984300668708556 22.532536000000253
    vertex 1506.4431942080928 -38.50873212328064 42.0325360000003
    vertex 1506.4431942080926 -38.5087321232816 22.532536000000242
  endloop
endfacet
facet normal 0.3826834323650755 0.9238795325112927 -6.648056002664229e-14
  outer loop
    vertex 1507.2390913592544 -38.83840351754591 42.03253600000028
    vertex 1506.4431942080926 -38.5087321232816 22.532536000000242
    vertex 1506.4431942080928 -38.50873212328064 42.0325360000003
  endloop
endfacet
facet normal 0.3826834323650755 0.9238795325112927 -6.648056002664229e-14
  outer loop
    vertex 1506.4431942080926 -38.5087321232816 22.532536000000242
    vertex 1507.2390913592544 -38.83840351754591 42.03253600000028
    vertex 1507.2390913592542 -38.83840351754687 22.53253600000023
  endloop
endfacet
endsolid sliced-tower-main
